<mxfile host="app.diagrams.net" modified="2022-11-11T21:40:06.687Z" agent="5.0 (Windows NT 10.0; Win64; x64) AppleWebKit/537.36 (KHTML, like Gecko) Chrome/107.0.0.0 Safari/537.36 Edg/107.0.1418.35" etag="OkyqIjv9T3mO5Nf7sy82" version="20.5.3" type="github">
  <diagram id="XUUVm7ajH1iICLezuLvB" name="Page-1">
    <mxGraphModel dx="595" dy="344" grid="0" gridSize="10" guides="1" tooltips="1" connect="1" arrows="1" fold="1" page="1" pageScale="1" pageWidth="827" pageHeight="1169" math="0" shadow="0">
      <root>
        <mxCell id="0" />
        <mxCell id="1" parent="0" />
        <mxCell id="3vIbY6viFx3dQWntIyNH-1" value="" style="shape=image;verticalLabelPosition=bottom;labelBackgroundColor=default;verticalAlign=top;aspect=fixed;imageAspect=0;image=data:image/png,iVBORw0KGgoAAAANSUhEUgAAAhwAAAFmCAYAAAAmr0NGAAAAAXNSR0IArs4c6QAAAARnQU1BAACxjwv8YQUAAAAJcEhZcwAAFxEAABcRAcom8z8AAJvGSURBVHhe7b0FmBxHlq7tf+/dvXfv7M4Ok8djjz1mZpBRtkwySxZYzMzMzMySxczMzMzMzMwM54/3VEUrVV3daskquds67zwxcldlZUZGRsT54sSJyPvgjfSPfPpGxkf6v5Hh4emWLFmyZMmSJUt3JGV8ePjrGR/OqWLjzQyPfOPEhliyZMmSJUuWLMUivZ7xkZr3oT6ifWnJkiVLlixZsnQn0usZHll/X8jlEf0AS5YsWbJkyZKln5wyPLLdBIclS5YsWbJkKbYpIcExYGw3Wbp2gSVLlixZsmTJ0i2lSXNH36ApNCUkOPiBYRiGYRjGrbLv0O4bNIUmExyGYRiGYdxJTHAYhmEYhhFzTHAYhmEYhhFzTHAYhmEYhhFzTHAYhmEYhhFzTHAYhmEYhhFzTHAYhmEYhhFzTHAYhmEYhhFzTHAYhmEYhhFzTHAYhmEYhhFzTHAYhmEYhhFzTHAYhmEYhhFzTHAYhmEYhhFzTHAYhmEYhhFz7qrg2H/yoKzdv1EW7Vguc7cusmTJkiVLliylgLRwxzJZs2+D7Dm+X65cuxq26rdGzAXHtWvX5OjZ4zJt4xypMqqBfNk+mzxX9wP5Z7VX5aGqr1iyZMmSJUuWknHCXj9b5z35rG1mKTestoxfO1UOnzkqV65eCVv6pBFzwYEqKjqwkrxUP408XO01ub/SC/LH8k/L78s+YcmSJUuWLFlKAemP5Z6Sv1V6XsXHC/U/lDx9SsuMTXPlmvtfUomp4Bi3Zop81ymX3F/5RflNmcfkD+WelL9UeFb+VvF5FR6WLFmyZMmSpeSfsNvY7z844YE9/2vF5+Sztj/IkGVjwhb/5sRMcMzYNE+nT36n6ujJqDdgyZIlS5YsWUp5SYVH6cflw1bfy9jVU+TqtZt7Ou644CBmY9PBrZKpawH5Y7mn5U/ln5a/R8msJUuWLFmyZCnlpj+HPR5p22WVFbvXONGReDDpHRcc5y9dkHoTWsmDVV/WjETLpCVLlixZsmQp5ac/lX9G/lrxeak4oq4cP3cirASic0cFB8Ejmw9tk1RNv1TPhsVqWLJkyZIlS7/chJ3/sxMdL9T7UJbsXKmzHAlxRwXHmYtnpcvcPvJQ1VdVcETLnCVLlixZsmTpl5MIJiWItNnUjnLi3KmwIojPHRUce0/sl/x9y2oGmNuJzJQlS5YsWbJk6ZeVEBuIjh+6FdZZjoS4o4Jj/YHN8n6Lb/XizOlEy5glS5YsWbJk6ZeT2J/jLxWek1cbfioLti8NK4L43FHBsXz3Gnm8Ziqdz7nfBIclS5YsWbL0i09ecDxQ5SWZumFWWBHE544KjsU7V8jfK7+oUavRMmXJkiVLlixZ+uUlplR+X+5JmbB2WlgRxOfOCo4dK/TCFjBqyZIlS5Ys3TtJBUfZJ0xwWLJkyZIlS5Zil0xwWLJkyZIlS5ZinkxwWLJkyZIlS5ZinkxwWLJkyZIlS5ZinkxwWLL0C0+8ifm/S/1Lfu0Sq8P+XunFqMclx8RePaH8PyL/U/pRzX+042Kd2Jr5j67PIt3O6xj+XOEZfW8UHW607y1ZuheSCQ5Llm4zsa7cvwkRo0hDup6elD+qgXku6m/vZnq69rvyeqPPdMOdR2u8meiGe7TLG+8jeD9P64Z90X4Xi0T5/qPKy/JMnfc0/y83+FjzH+3YWCbumbw8XO01l16P+zvasdESxz/o7uNfLu9sCXA3y9CSpeSUTHBYsnQbiVGuNxwYxQerviIPBdKDVV7RzzEwkb+9WwkxRD6bTG4vO47ultX71kuOnsXlN6UfjXo8iTwH7yPuflx6oPJLer7bGeHfTkLgvFj/I2k1vYvsPr5PdyfM0bOY5jEWr0VARPBM6RRJ/j7pq15s8JGUHlpDygytKc/WeT9UDkkQHZzvH1VekkxdC0jNMU0lbbss+rn/PYKUa5kIsXQvJBMclizdRqL+8gLCrN2LSPf5A2XqhtkyZ8simbt1kczeslAmrZshP87uI191yK6j27/8DAbFC47eCwdr27t09bIUH1RFpycijyV/HFtnXHPNP8nfD/9OWj9TWkzrJO82/ybOSEae404nPEevNfpUBi0brfk/cuaYy3/lmAkOjD7X/G2Zx+V3rlPkPtkRmZ2Rq45uKDuP7ZEdR3ZpGf2r+hs6vRLtPD79Nezd+qpDDq0fB04dltGrJslHrTKox4jr8S/X+0O5J2/Ja2LJUkpMJjgsWbqFhFGm7r7S8GOpO7aFrNizNlyz43PmwlmpMbqxPFbjrZ+lvnvB0XlOH7ly9YocPXtcCvWvoLEc0Y7FAI5ePSmc+/icPH9K+i0eJh+2TK+/ifWoHOP/SsNPpFdYMOGlKdS//J0XHK6M+PeZOu9L7l4lpcXUTlJrbDN5q8kXWlZ4NDrN6a15gD6LhsgTToSQv3jnCiQ6VzxcOXuVkP0nD+pvtx7aIel/zCP/r/hD8lKDNFJ2aC1pOa2zlBxcTadsYiGkLFlKLskEhyVLSUze5f5Erbel/vhWcvj0Ua3TJ86ddA1ourSf1UPazewuPecP1HcGHXMGvpUzJsQg3Mw4xSLdjuAYsGSE3tOFSxdk8vqZ0nxqR+m7aKhsOhh6u+O5i+ek6eT2WgZ/LB/be7pbgsPHtHzW9geZsj70jofNh7Y7YZBX/qvkw/JPJwQydMknHWb11OebuVshnWa6mZeHsuffN5uklRpjmkiP+QOk4vB68kqDj+X/Fn9QvuuUW7Yf2aXXo6wp09//DPXEkqW7lUxwWLKUxERjIeXvU1Y2Htyq9fnAyUPSdkY3df3/V6lHNGG4s3Qr7D7vKgX7lZfHa76lrnkEC/X+N6Uf01UjTG2QEAC/K/N4PAOGwSKO4X+iHR92+QeP5/e45/me4/6zxEPyP6UelU6ze8nVq1eTKDhG6n0dOX1M8vctK/cV/JO+bKnyyPr6e5ixaZ686u73V84Y/7p0aPUL+eHaXPc3ZR6LuxcCZ1ldEi3/kR6SyPz/R7EH5Gkn1nosGKTXDQoOrhE67l+h6QhXVj4gM5gP/Ty8Kofzc11/fp+X/y4Zyk/a9lllZdhjtWz3avmodUb5t8J/1fNzrv9d5H7530Xvd/f8qHaa/Ms5mBYJXSd0H6yk4bwkzotwQmD8W5G/yf9zz4Tj7yv8F0n3Yx45feGMXm/oinF6jv/jjqO89Pfu3+CqIr4nL/7clK1Nw1hKSYk2aILDkqUkJJY2Ih6Grhgr19z/zl+6IG2md5Hn66bWzh+jTfLGlmBBAi35b4wFAoHR8gv1PtRVF280TuvS57p6BMPKcd4IM+rmv1kVQeBkvONrv6vHcU4Mnf7rDC7eFMQAx+Ed4Frd5vWXS1cu3ZLgOHrmuBQeUFENJKP8d5p9LSt2r9Hv1u3fJG81/UINIXlBbHFdpiTIJ/klvoXyeqR6OP8uP9fz/4k8WesdvS7X9J4jyopzcD6OY8ohTesM0nvhEL0ugqOgExzExDzmngPHcb2nar+jv+UceB58+b5Q/8O4QFfuj/Kh3Lg+5yc/HMfzI4/c74YDm/Va69y/+fuW0/sir6yOIT8chyfi2brk8zP9Pd/rddx9cC3umbJ/vdHn8ny91Po3x7PKhvMRE/Kw+6z0kOpy5uJZvd7kDbN0qup5l/fQbz9z/36sz5/69DdXVuSfa3PfXNvft4kOSyklmeCwZCkJiYbygOvws/YoIhsPbdG6PG/rYvmyfba4Eb0GGbp/Q3suhIIBdRSqYuNZNZJFB1SSaRvnqvHcd+KApo2HtkrfxcPkkzaZQsc6w8nI9ilnHFkVMXvzAtnpjt8bPn7DgS3S0436MVB4Tjj3n8s/636fUc+z+dA2PW7n0T0yfeMcmblpno6kERG3IjiKDqysx/5XSde2nYFeunOlfrfh4BZ5q0layde3rKzeu142ueuRn0FLR8m+kwdl4rrpKhQwlhWG19Fy2n1sn+aJe1jvjHnH2b3kvebf6jXJP8b0yw45pL+7/tbDO/W4Xcf36rkmr5up191+dJfk61NajXWNMU11modAzjrjWqjxxdvwTrNvZMTKCbqqZczqyfq5eo8qPqvPqpfL5wYnmPYe36/X2OauNW3jbBm2fKz+BmEGF92/TJmt2rtOqo5uJMUGVXHX2+r+Xi/1xrfUaaU1+zbob5pN6aBCgbdgUpbEgfAd5yZwOFPXgnF5Ynqq1JAaWlZHzxyTq9eu6vXOXTrv8rPf9Y8rZfaWBa4Mdqi3JXvPYurhoh5xL3XGN9fpHkRfmSE15V813tC6Evk8LVlKjom2boLDkqWbJOor3onaY5vpagkMRec5fXV0/LuyfsXBEzpdEky4zzF2/3Qj/rJOPPipGPDGBjA4NML3W3ynLnVdGTGqYdwcP1y5diX8XyJnL55TI/auM7D/u+jf1QMxZNloPY+HuI3L7jfHz52Uy1cvy6FTR25ZcODdwJB/0CKdrHdGDhbtWK6ejYoj6qlhBowlcR+w0QmiLN2LSK2xzdVweq4E7pcAVOJFOC8j9I9afy+jnUA4fzl0DsCLdPbSOTl29oT+vf3ITsnrBAceg3Yze+hn0Gl2b/Ug4I1hBciK3aFpEYz+M3Xe1ftN3zmPChfKzUOZwMFTh50oWqTP9fKVUBlfuHzR3dtF2ePuq/6EVlJzbFP9/PKVyxrLUcU9GwQL8NtP2mZy1/+nPFf3AyemeurnF9y9NJ3cQbL3KKZCBWZvXijVRzeW8WumOXFzRcvkmktcj2e30Ym5hduXubyF8tFmRlf1rvAMXm/8mcZ6AM8SIYMn7OdYAWXJ0u0kExyWLCUhUV8ZsTee1E6DRC85w9NoUlt1cSMscIGzsqHH/IHhNEBTeTfC5xiWxy4JewgOnT4iXeb2lTy9S6kImbdtiX6OAOGcXO/bTrncKHajfo5noN2M7s7YlnGj4+q6HwVg7NnbAXFSZWT9OGO6bNcqFQMF+5XT6RTiTADDeisxHBjK/6/wX3S1Rpvp3eTU+dPOOF6TgUtHqoEvO6y2egGID+HaeEAon/z9yup9e7HByL7hxDY6Wid4cqnLH5w8d0rzTbnWn9DanSM0vbDEjfJZ3UP59FgwUI658oag4Gg+tZNekzJrPb2LTlX8quQ/JXXL9DJ362I9foEz3HiJWCXUa+EgzSfM3DRfKgyvqzEqLBMmziazM97kwQu8LS7vDd2z+L5zXvU8ITjOOfFDnhtNbCepmn4lY9dM0WPxxPzQrZDGu6RumU5mbJ6nny/dtVIFFcti/bOftmGuu1Yh9e6Qb6ZUnOTQZ1p0YCW9XtWRDWXLoe16PEGsaVpndM/sEa0TWw/t0PsYs2qSTtcQIxL5LC1ZSq7JBIclS0lIXnBgOI+fPanGHgNFTAcj62875tJpkkjmuNEvc/JVRjZwo9hLKlT6LhqmI+F/L3q/EyuPSu7eJeN+O2fLQvm0TWYVLxh3Rr0Il6dqveOOf0CDNJmm8KPrsaunqIgY5EQA7HfiAs8Ihuj/FPuHvFj/Qz2Gcx0+czTJggNj3n/xCM33qFUT5eT5UHAj0xhsvsUUSCX33aHwSh2mcUoNrq7TSP+o+rKujEEMkH+mTx6p/obcV+jPundFJSeGjoe9FuQ7tTPKk8OrQxBHxQdV0ykExA4en6kb5+h3iIFbERzzty9xn7+vzwZvB+BpQEjhRcIjwW/+s/hDOi32ebssKtZgKUGjrTLIffn/oN6puuNbquBAdDWY0EandZpMbqceGLwT1UY1cvf+hGTpXli9IngoWELMhmmc14usWU7spOG8eX6tAuLE+ZNObogMWT5WO2PqBKtYxq2ZqsczvUQAMs+GOkF5Iga5HuVws71ALFlKTskEhyVLSUhecLAcFhc/0xttpnfVPRo0dqDp19J+Zg+ZsmGWbpR1+kJotD5x3QwNNGzkhArgESg1uIauQMCIEOtB0CEbQwEGvdjAKvLj7NC+D7uP7ZUSg6qqAWauns2k3m72lczaEmpni3euUK8I14Ul7u9vOuYMn/spjfHoOKvnLS+LjYTpBeI1qjpDRyzL75xxrTa6sU5DwAAnTgiKxIATXIlIgV0u/xm65NfzE+NCWX3ZPvt1A7x5geRxImK5M/CwYNtSnSbiOGIiKLvuTnABouxWBMe8bYtV2FF+eIkAj88L7px/KBvaaMsHlN5f+QVJ1zlP3CoV9lf5qmMOFZN4kOqMbxEnOBpPbKvblGfvUdQJrdAU2eBlo+WT1pmk9timusEa+26UG1rLCY6XNXbE3y/eFQQlYgpxwtQSgmOkKy9ifH7rhA9isd6Elk7MnFcPCF6w1xp+JmNWhTwqLLn+zJ2D50WKfJaWLCXXZILDkqUkJAJBGa2WGlxNpwhg0voZbgT+rTOOIQPOck2WsRJguXZfaDpk0rqZajQbO1EAe48fkML9K2ogIMYOwcGGT8Rj4IXYdmSnBhUy5QIEHhbsV0EFB8YFAcFKDG/QMWRsXe69AOohaZtZjSltjMSy2FsVHBjyg6cOaXDiwu1LdbSOgQzdY+glZAgOYj2AwE2M+G/KPOpG6J9owCYwQn/PlRH3y3XwLDBFMHPzfP0eD1D+fuXiDP20DXMkVZMv1ZODYELEEJAKQcHRYuqPcYKDvU6ervOuigM8Il5w8C/TDuWG1ZZDpw9rTAgxEUyz8Jz8vfsVPuk7571BcHzthNuvSvwznuBoMqm9emxea/hpXMe5ZNdKqT66kQoPYIfW1C4vPIevnXCJFBwst2WX2qDg4Dp0xjyzH7oV1oBV6OrqQoG+5WT9/s0qdActG6WetZ9jbxdLln5KMsFhyVISEuKA9FGr73XkDMREsJSSjp/6zHTCvxf9u7rxvbHwgoOpGDjmDDSbP3Esv6HxsYyTrcQBg0dMwY9z+ujfjMzLO4OJd4MAVIQPgmLhjmX6/Sz3O9z908KCg4BOPBwICEbKiAhvsPFGJHVKhWmjas6APlnrbXmpfhr1ICA2yEfIWxEWHOG9OaqMaqABptwXImHUqtCOpeQ/V+9S7tyIq6fUc8H+E6v3hqY48AARt8C+FzDfiYQPnKHmOGJj2DSL6QZIyMPBu1aerP2O7mHB6hhv3L3gYKUPzwrY5p0pLjw03APJi4/vO+eLExzL96yRLzpkl/9b7B/yaI23bhAcBILi7WI6g5gVdpTFozFsxVh3H2tUFHSbP0D3L+F5MXVyM8GB4GS7dDwcBBnjmemzaKj+Bo8ZnhmCf/efOigVR9bTpcF/cueOfI6WLCXnZILDkqUkJgwthoYR9UlneAADX8SJDlzsfkUHRo/RKLCqgCkGRtmnzp9RTwPv02BVCdtb0wDZ3prYC2DH0neafyOVRtbX2ACWabJkk6DUX5V4WP5Q/iknMFrE7XI6cOkIHf16jwfv6wjFE7D51b/kqw7ZZNHO5frdraxSIU6AqQ7iLvBKcD68KxyLRyBScBA3otMgThQhuIjbYBqG/BML8qwzoGyaxf4cDTRA9Jwri6vOMPfX/TDYTAwOunJgCoSVF/9R9AEVAd5b5GM48AjhUTl+LhQH0n/JCBUWXLvcsFpxZYMwJLg1Q+f8cSts+De3E0C/KxPazIv7wvuCIGLqZ3VYKLLShZ1H7yv0F33mkYID0fM/7vfkh/gV9mTZfHCbK49jGsOByEGcIR4SEhzZuheVUxdC9Wj4ivHyj8ovCZupqQhy/SMijiDV/ScOyqo96zT+hymoVE2/1Gf110q2/4allJVMcFiylMSEUWK/i7ebfq0GwsNqDPZVYCUJ79zgxW2IC8BzgUFlGmHR9pDhP3XhjK5wqOuMJi7+DeGlsqx+YfUEW4Z/44zUmrChxbAOXzFO939gNM9+EHDkzHEpMbiqGnFWf2D0YO3eDfo+kCaT2uoUywk3ioaDt7EsNtqxiQkOvmMaAS+GX2nBMew/wUqPrnP7xa0EYZ+QAv3K6bJP4mH8slqMPbu34hWavnFu3OesUsnXp4xOKbFiZ4f7PbAXR7d5/fQ3bE7ml7sSNMreFY9Wf/OG2BTiXih3lru2nt5Z6oxtrgLwPSf0mD4C9sgY6MqC+8rWo5hUH9PYiaSzcYIDbwQC5133uwnrpul02EUnELk2e4fgmaGuUBbRBMf/Kvw33SLdx8BsObTD5ambLpnF44XwQAAt37VaV6UQLHrepS5z+oU8TRWs/7SU8pIJDkuWbiEhOhgVf942ixox4hwSAjd7sykddRdRdoRkFYffrTOSPcf3OTHRWY0NUwnEGZQfVidu6iESjG2jSe3Uc/C/ityvho+lkkwxBMETcyCcR/Z8KDG4mvx3yfhvi/WCg70wAAPKKD3asV5w1HMGm7gIwOuCh4cdMYlLYbTO8k6/c2ckiBECcJk64Deft/1Bp1e4bpAjZ45q2QDCi2WsTFW81OBj6bd4uHpQgmDAWY0DeDOerv2e5otpJjxLXpQFYVM1jPsj1V6X9jO7O+Fw/ZysRkLIsELEg7BEJCE42E2W6Z0gBLEy3eE35Pq+Sz7drAuWOQHxRbus6r35oGU63WE0CAHJiFNW0DxR823dHt/vdbLLCavSg2vI/ZVf1PKPfC6WLCX3ZILDkqVbTMRy0GjYrptVCWOdkZ69daG68ElMDwxbPk6NFFtQI1JwkeOGz9WzhPR3hpLdJOdvWyLzty5xQmGyLj9FmOgL0Sq+oP8+Uu0NndYgEBFPCccTlzBy5UTd5+Kxmql0F02EAtuMf9spp8Yo+HNP2TBbmjvBwwvYiCUZ7xo5UxQIpsh78q+nJx6EgEeOzdi1QNRjuR+uiZeB4ziePTOIP0A83O9G9cQuPFz1NSkysJIMWTZG802eKB+8Q7wdlW3GOU49Ae58mdz1WDI8d8siPZaVOw0mtlZPENcYtnyMxnsQ4Ek8CMGYrGDxx49dM1UFXtuZXfV4vClP1CIQ80n5XdnH1ZAz1TNzc7jsXcKDgkBg5Q/3hvAhXoLfk1cEWOH+FXTpMvlhiqzEoGq6LBZBQT54yRubrvEbYjHwiHBfXhR82Cq9y+dA/b7DzB7qIfuNK1etD71K6m/4jvwgYqlX5JcgWGKE/NQRS4dZwUPZ86yCz8SSpZSQTHBYsnQbiU4fw8sS0QervKJu/mAiqI/vNNjUHU/ieH6LSzx03Kua+D1GNGhIcMXzd/TjX45/fNRzv6KeFRLXYJUNeeK4hJL/fejY0HtgEkp6Xr1W9GPJH+95Ib8+73H5dwKJ8uA+OfZm+dc8uXvw+Y92vM8zXofQ8S/rMSRfVv676/l5Rc/hX5AWeU7+vSEP4b/9seSf34buMZRHno3/nsTf/nu9VuD76+UTvgf3e8QKQpI+kikWpnLwzCAcvXcpeH5LllJKMsFhydJtJowY9Zj9ImhE19OTOq3Ad15kkDBOTF0wKr7h+PCx3ojeeHzovSzxj38m3vE05hvP/aR6Vkj8N+lmxkrvJ/zbmx3LvYTO+4T+t39bqk+af/UC3Jh//ubzpObf54nfBfOU4P2GP+NfL2hIPC//XeRv+E7P6f4NnlPzihcm7l5Df/tz6m80H6F7jMwjiXP7c/rlzZQVIjRUH0K/9W+WZU8QPD5p22VRLxUQkJq3d2m9ts+rJUspLdE2qOsmOCxZsmTpZ0z+nSjlhtbWjdQIbiVYVFfzzO2nwa8mNiyl5GSCw5IlS5aSQfL7arAM2sOL3YiBeb/5dxpPE/TYWLKU0pIJDkuWLFlKBsl7L1gqzMZhPRcM1D1LeCEcG5VFHm/JUkpLJjgsWbJkKRkldj7Fm8HGZMR1+OW1liyl9GSCw5IlS5aSUcLTQTApiQ46MrjWkqWUmkxwWLJkyZIlS5Zinu6+4Ni5Qtehm5vQkiVLlixZuneSCo5yT949wbF89xp9DbO+CMpchZYsWbJkydIvPrHCio3reDXB1Igt/YPcUcGx/sBmeb/FtzpPGdwUyZIlS5YsWbL0y0xecLza8FNZEH5JYjTuqODYe2K/5O9bVjNAUFRkpixZsmTJkiVLv6yEk4EpFd6SvOnQtrAiiM8dFRxnLp6VLnP76HsDLHDUkiVLlixZ+uUnxAaio9nUjnLi3KmwIojPHRUcvM56s1M3qZp+qYLDlnxZsmTJkiVLv9yEnSdu84V6H8qSnSvl2rVrYUUQnzsqOIA3H9Yb31LfnKgvK4qSQUuWLFmyZMlSyk+sSsW7UWF4HTl+9kRYCUTnjgsO1M2mg1slU9cCuqseno7IN01asmTJkiVLllJ2Cr0R+SlJ2y6rrNi9Rq5euxpWAtG544LDM2PTPPmyfTbdvpfXPkfLrCVLlixZsmQp5SWExm9KPy4ftvpexq6e4sRGwlMpnpgJDiAT33bKqZnj3QF/KPekBpdYbIclS5YsWbKUchJ2G/uN0OB9QEyjfNomswxeNjps8W9OTAUHLNyxTIoOrCQv1U8jD1d7TTP+x/JP6xaolixZsmTJkqXkn/7ohAb7bfyz2qvyQv0PJU+f0jJj01xdLJJUYi44iOk4eva4TNs4R6qMaqDTLM/V/UAz/VDVVyxZsmTJkiVLyThhr5+t85581jazlBtWW8avnSqHzxyVK1evhC190oi54Aiy78QBWbNvgyzcvlRmb1loyZIlS5YsWUoBiR1EV+9dL3uO75MrNwkOTYi7KjgMwzAMw7g3McFhGIZhGEbMMcFhGIZhGEbMMcFhGIZhGEbMMcFhGIZhGEbMMcFhGIZhGEbMMcFhGIZhGEbMMcFhGIZhGEbMMcFhGIZhGEbMMcFhGIZhGEbMMcFhGIZhGEbMMcFhGIZhGEbMMcFhGIZhGEbMMcFhGIZhGEbMMcFhGIZhGEbMMcFhGIZhGEbMMcFhGIZhGEbMMcFhGIZhGEbMuSXBMXX+ZDl45JglS5YsWbJkydItpdUb19ygKTSZ4LBkyZIlS5Ys3cl0S4LDplQMwzAMw7gdLIbDMAzDMIyYY4LDMAzDMIyYY4LDMAzDMIyYY4LDMAzDMIyYY4LDMAzDMIyYY4LDMAzDMIyYY4LDMAzDMIyYY4LDMAzDMIyYY4LDMAzDMIyYY4LDMAzDMIyYY4LDMAzDMIyYY4LDMAzDMIyYY4LDMAzDMIyYY4LDMAzDMIyYY4LDMAzDMIyYY4LDMAzDMIyYY4LDMAzDMIyYY4LDMAzDMIyYY4LDMAzDMIyYY4LDMAzDMIyYY4LDMAzDMIyYY4LDMAzDMIyYY4LDMAzDMIyYY4LDMIxkx9lz52TlqtWyZOkyOXrsWPjTn58LFy/IiZMn5dq1a+FPbp3TZ87o/f0cXLhwQc6cOStXr14Nf2IYdw8THPcIZ8+elX379snevfv0v6NBJ3r06DHZtXu3HD9+XK7+hE7VMH4KmzZvka+/yyDvvP+RTJ4yLfzpz8up06dlwqTJ0vHHLrJ+w8bbMtr79x+QPv0GSP+Bg7Qt3k1OnTolI0ePkS7dusuGjRt/kmiKxsWLF+Xw4SOyZ89e2bN3r+tLjsrly5fD3yYOZXnixEnZvWePJj1HRPLfcd4rV66Ef2mkJExw3CPMnbdAfsiWU97/8BPp3bd/1Aa7b99+KVOuorz3QRrp2q2nnDt/PvyNkVzBaNBZ32nj8XOzYeMm+eiTL+SlV9+U8RMmhz+9e0Qr0+XLV0rGLNldnt6Qps1byenTZ8LfJJ2hw0fIe6k/ljffeV+Gjxwd/vQ6/nnGgmXLV8gnab+Sh/71hHTo1FnO38H2ferUaXdvIyVn3vzy1jsfyDvvfSSFi5aQSZOnyMVLl8JHJczx4yekddv28vpb78prb70jb779/vXkyirVe6kl1bup5a13P5DqtWrLkSNHw780UhImOO4Rdu7cJbnzFZRf/eYP+u+u3bvC34Sgoxs/cZK88kYqTePGT7RRRDKHkd7Y8ROcgOwn23fsCH/6y2Djps2S9qvv1OBMmjw1/GnsOXrsuLaDHr16y44dO8Ofhli9Zq18930mefzp550g76HTE7fKmLHj5UUnolK996FMnzkz/GlI4Gzdtl0GDBrshMgoNeB3GvKf5rO08tjTz0nffgPuWPs+cuSING7aXN51A5W/PfiI/Oevfyf/5fqZfzz8mHzx9XfSb+DAm5YVnpEKlavJf/zqf+Tf//PX8n//+7dx6f/9+vfymz/8VX77x7/K7/58vxQoXFQOu2saKQ8THPcQQ4YOl+dffl1eT/WejB03PvxpCKZQKlSuKo8+9axUrV5LjZmRfEEgzl+wUDJkzirZc+WR1avXhL/5ZfBzCA7KdNGSpZI+YxbJkj2XrIooU6ZUZs2eKyNGjZY9e/aEP701Dh485ETHOJkybbq2Oc+5c+ekd5/+8vHnX0qN2nXlmBM+dxryP23GTBk3YaLs3XdnpnOYRuk/YJC8+ubbThT8Rb51guzHLl2lfqMm+ux+96e/yZffpJPFi5fE8xgFOX/+gsbr9Ozd16U+0qtP33Dqp94Yptf+8JcH5OXX3nJir7te10h5mOC4h9i1a7eODhh5VKtZR86cue4SXrhosaRO86m6QyffxRGlcftMnz5TXnzlDcmcJbvGBvySIIbj5/BwzJk3X55+4RXJ8EO2O2aUk0rLlm3k0SeflQbOWKcUduzcKVly5Ja/P/QvFR3Dho/QzxE3VarVkD/97UF5/OkXpGWrtrcdKEu8SeasOeT3f75fcuUpIFtc3TBSJiY47iGuXb0mvdwI4slnXpDPv/xWFrvRHBCr0bJ1O3nquZc0huPAgRuNF8FtzP/OnjNX5s5fIGvXrbthdOY5efKULF+xUpYtWx7PJXzp8mXZvGWLLFq8+IZgOebBV6xcpYLnmDvnmbNnZc3adbLCnYe/k8LJkyddntbLPJe3OXPnycrVq9XlyojqypWr6hrHG7Bz16548+O4gxlZcU9+Tpvf0ZHOdcZny9atcvHSRQ1ao7yYmrp06ZIGxZFnYg1wFx84eFC/5/hgoBwrGtasWetGxnO0/DaGjw/C8Vu3bZOFCxdpXrn+4cOHNV9z5s2TdevX3xDoe/LUKVnqyrhZi1bywstvyGdffC39+g+U2e7et2zd5s6XsKv8tDMErP5YtHipG0Uf0/Lw5UPifhhtBiE/xPcscPkjWFLv19UR8rfZdf4XAqNNfRbu+flnQT53796T6OiW+XjqAOWzZNkyzRfTC199+/0NgoNzUO7zFyzScuY5BDl+4oTWU84VbUqCKQREN8+J58Hz2+7u/cKFi1ouy91vW7VtL884wUGsQ19XpjNmztJ6SzlRP9at3+DKbomKEZ4b9YT8rHefR8ZE8Ju9mt+FWqf5nvLRNuKu5dvQfleW06ZPl+Ily8oTrm0WKFRUJk6arOVNvcPbQ1luc2USWX8pVvLCNTZucnUrkZE/XhTysdC1Qa4ZfCZ8x7Pnuc2YNVvLiADNyDIOwu+nTJ2mHtM//u0fkt/le6t7Lv67fgMG6P08/NhTUrBIMX12twr1vl6DRvLIY0/Lcy+9Kl2795Srrk0bKRMTHPcYGAyCR5989kVp16GTdmB0NOkyZpE3XMcxeszYuI4Iw4LAKFO2grz+1nuu0T8ljz31nHbGrdq0jdcBLly0RD5zQiZ1ms+0Qw3C3Hi5ipXlpdfelM5du4U/FXVbM8/7wsuvy6AhQ3W+94M0n8qHH38uU6dNDx8VHQwIHX7bdh3l07Rf69w6nVvqTz5zHVMPueAM59mz53TE+JS73ybNW2rHGoQYiLff/1Cy5czjDG8oDgJD0qhJM/nno09KidLl1DgVLVnKdXiv6bkwkKxUePHVNyRfwSKaT9zgTzz7grvHSroaADC0bTt0dPeXTo0Ygu77TFlk+IiRujTRg4GtUauOPO861AqVqqhxadKshRrbB//1uHz+1bcydNjwOKGy1JUtnz306BMaAMg9k5gOq16zjgq/hEDIfZs+k7zx9nsqUubMnS+Fi5V0+XtZ/vXEM5IuQ2YN/gueAwHTrUcv7fBz5skvM50RruxGr3gCSrrywXgBwqV12w7yqRNAGBrORwBgiVJl9TqRQou6s9kZqIaNm2pMA+X91ruppal7TpOdIcMVT5CgFxwYv06du2o5VqpaI17gIILlo0/Tut+lj1f/GHGz2qVQkRLqFaLcnnr+JSnu8kabWOVEKgIHw/bgI49reT7y+NPy1wf+qfeKC5+6litvAXnB/Z46zDkJrubvjJmzxpvWQlBwb+S3dLkKTqQdlPmuPX30SVp5/6NPZPqMWXpc/4GDNU/c/0P/ejJ87afklTfflu49+0jVGrU1L6XKlpeDhw7pbzznzp3XukL9qlazdqJLiDdv2So/ZM0hz738WjhwPNR2EefEdHzv7oE6/bTLL57O2nXruzq8W4+JBs+zS7ce8szzL6vgqFm7ngp4DyLq3dRp5IF/PipffPOdlvGtgpDC0/Xr3/1Z2ygDCyPlYoLjHoNOu0PHH+WJp1+QvAUKy6bNm6VHz97aaRYvWUZHNYDoGOYM4yfOkD/25LPOGL4WnnJJrW5fDHipMuXdiH2zHg/z5i90HczHGmnuvSeeI0ePSbGSpVWwtHNG2MNo76NPPlcDwPUZreOepVO+2XLIJW70nLdAIRVPiA0MNMsoCcorWbqsdvgIjhquI6TTq9ewcTzBwXw8nWz6jD84AbVNP0Nw1KnXQI1NWieGijiD/OiTz6gRrdegsQa4tWnXISS+Pv/KjeyKaAdNvhFV7LOA2KhYuVpcgGA+V9bpndh41hkGguv6DRgkl8NBeyxFrlSlmhqcTz7/Ut3HGFuE21PPvSh/vv9BFRgYYWCUmitfQTXmGHWOeeeDjySNM7bNW7RONOBw6dLlKs4wgkVLlNJ8feCug8jjPOSBVQEDBg2JEwgIjo4/dtX7/dA9l+LuORILxNQcdeDAoYOyffsOV06lND9POwPEPWJUETL87vMvv5HxEyZp2XoYuZdwz4nfUKfeduVEPt50ZZkzTz69P1ZVBQUH5a7XdSKY5xAEbwR5T53m8xvqH/Wgvavzb7u6gTHHK/SBy9vzzvASM4E3AdGRN38hrUMc86QTjxhL6hMCiGsjsDNlya75bdO+g3oTWP1FfcfosuQ0CPeXyT3Lx5wQ7Nqjp3qOEK8Ie6YfJk8NCepRo8eqxxHR8bATPC+88rrL36fyTboMMmbMePnRiazHnnxOPv7sS/XKBMHjRrwJdbO7E4WJBYKSH875sBMzCEigrrZr31FX3nBdREehIsXl8y++0bqBtyoh8AoRLMq1/+QEB6tMgu0LD9h332fWdoSox2N4KzAF07hpM3nymRe1zNu6fFrsRsrGBMc9CG5uRnN0AnQSjNJfT/Wujmx9h7XEddiMxhlZFS1RWjtzRnCMHHFr8luMcKcu3XSUBQsWLpY0rlPE2HCNIHg4GOUxSu7UuUv4U1H3/lffplfB8eobqXQ0SVAbSxATG60xhVG2fGW5/8FH1Gj06ddf87Zy5SoZPWacG8H1VRc7noS69RupQWvkOsdIwTF67Dgd7eP12b59u36GUWzYuIk87gzlw489KRl/yKaiDEGFCx4Rg3eIe3nokSd05UI3VyaMsBlFkm+8LhgQAjqnOMPC6Ji4hFZt2qvBI9hz9ZrQiBiDWKNW3bCxfkmquRHtzFmzVYzxTPAoIWYYQdLJ42be5IwHXhaC6BAnBCIydYMLPjGjQ7mSX0QMI0cMMa57nsOkyZPVeCHOEHJMzwDn45mTN8QDHhs8Ddwv98SzwO2NEEjz2RcqVpjWYEQ7YeJkyZU3vwqZ/AWL6tQR4H3q5PLP5xjsbs4g85vQPY+Q7Lnzad3D0xUUHAQQkofylarG83BgzBE5nzlj6esfv8FrR31FSFSuWl2nnqjLTB/0cSP9qdNnaL1AfHOfeLIQmqNcPcIDR5kiwJnGyZ4rr3oTeP6UC9N+BQoX0/vA00Dd8BBjg8ihTLzHhaBTlsWSHy84CNBmmqZCxaoqnouXKqPPhKk06gbPjKBJrsuKJJcZ/R15mj5jpi4X5Xu8V4nBs6Le4dkhOBN47l+7vgCx2bJ1Gz2GaSeexVQncJlKSwgEX8Uq1bVtUZ8ok6AXi3vOkDmbfodnc5orZ+89TQob3GAGjxsrU6jjiDsjZWOC4x4Eg9XMjYQZiTIifOn1t6RQ0RLa0QCdRqs27eRfrsOnwRMTEeS8+x5X8cPu+xzOMHjDdLuCg84dY5A1Ry6dI78ZdFqTp0xVr8LLr6fSqZjIuW3cxKz/J0akzm0IDqZOuH8MOsYwiB9pP/viK2og2nfsfENHu3rNavk2fUb1OuASDoL3IUv23PK0G/kPHDxEP0MY4Q4nj9+k+9519tcNB7Ev9Rs2ln888ph6pPbtv24AZsyYpaPlrC7ve3YnbdUExou8/ckZgdLlKsqhCC/BmHHjdc+DN12ZsMkVULaMiBEA3G+LVm1vGGlyj6k//ky/Y4VBpE1hyund99NoWY4eG1odhUckhzPeCE28RsHyA1ZU4eF4x9Wl2xMcIQPPqhC8MExVMP3DpnZBqA8H3DEephCpU3gmfHvwEMtxXXB0VMHB5ngdOv2o954nXyGdVgLup6PLK22sdNkK6sWCmTNnXxccN3jwrkmbth303NS9oGE+c/aM1KxTT8u/YuWqcVN2XINRP/UQj9zJEyf184SIJjhmzZkT9gq+IcOcuA1yzT33oEcqkv0HDmodQij/+f6HNC/BOBb6AAYtf3R1DRFHm02q4KBs+zvh+rIbhPz+z3/XlXORz9tIeZjguEdhBIUbl8bMdAqdzZVwsCHGukjxkvKgG7ESyxCt08Hjwejtw08+15E/3K7g8HP+vfv0dddKeHTuoaNt2bqt6+Rf0OmO/QEjHMlPERyM9HPmyqdu6yAYWwQHxgFBFjmvPH7CRA2kIx6hQaOmOt+PR4BEvjGK/3j4UWe4W+vxCI6qNWqp0WJq5djxGz07eG+eDcdP7AoIC/ZKwTuQ6YdssmHDxvCniYPgYLSI9wVPQiR73Yg2W86QUdXRtAMbwcj/kSee1qmdoCi8evWaGq9nX3xVjUu0fBw6dEgKFi7mnsEzKhgwOnhH3vvwYzW+jNIjQcTiSXkjEDR6K4KDAFBYsWKVTuewt8yEiZP0s4RQIetG9S85YcTUQqT4jSY4gPgU4oaY/pnhBAUQIFm4WAktlwEDh8QJYtpNNMGBiGjarKUKlFpOXBBcGoT9O15zzxrPpK9vBF/nKxTyTuLFQbQkRjTBsXPnTs3nA66t42ns2KmLen6CnpqEOHj4sD6HkIfjIfWWBYXjMlfX8A7++e8PqXikbJIqOOiDEIihKbDXZaATH0n9rZF8McFxj0KDJlDxwUeekExZcsjWrSFjC7iQMcDMPfuOKRI6PeaUGcXPnDVHPyNo1AsOXONBjh0/IWUrVNJ583iCI+1X6tId5TrNSE9FNAhoxCPAyKq+Gx2fTiRmISg4GjdrEW8lAUGjeHmiCQ6ma9gtMdKwITiYiiI+gU3UGK176BQHu9E5Iu5fzkBjQDBQPmGAmCt/xxmc1u3a629OBARHRSc4jkTsgTJk2HA1mAQs7nbPxnN7gmOFTqW874w90zaRHDp0WAoWKa759J4d+nmCAwmKzZozt+wICDAEYtsOP6oIIPj04MGD4W+uw6oanTJyI/TmLVuroQ5tMve2BnhG82p5wRFcpRIUHLjyvdfAg4ghBgTB4acXWHFBWX+a9ktdAZMYtyo4vBA/SJkVLa71oWvXHlpgCHqm+j5zYocVUJ7bFRzbXB3j+b/25jsaK0JeETrETBFXwvTLzYgUHN6AT5s+U3LkyaeG/f4H/6WxQJQzK4USa4/HT4SmApl6ZNoEr2hQqDBN9PV332s7IjYpchCSGPz240+/kD/+9R+aZ++xMlI2JjjuUTCazKHTeZerWEWDOj3M29KxPv7M89Krd5/wpzeCUGB+ncA65qUBD8dHrpNAcBAwFgTBUbJMOe2UExIcdKR+1JgYTEv4mAci6b2LORoIjtr1GqrgaNikWXwPx5hxGsCXkOAggC4yODEoOPA6bA1PKQGdOHEXBItiVOo3aiqdunSVjj921k6cxMZIGHD2fADm6XEZIzjYfA0xGGTw0GHy8utvJSg42IeD5bZJwQuO99xzw/hFss2VQcYs2TSolJUMgF3ygiNLjlxq/DwIjg6uHuGhYloOb0YkCMRKTiAgOPDw8IwnTp7iyv0d+eKbdFFXHkTb+AvBwSiaZ1m2QmU5GsXDgdckKDhmORFCHcWIRgYyRxIUHOzDQSBpkEjBQX6A++G5ItIquBE/+eJ9Ka86QVW5ag1dGu1JiuCIVqfVq+bq3MuvpdJYEeI+CCZF2DZt2iLRNuCJFBx+lQrg2SLolO8RxPQLrNCibnthEgltiXbAMnuEASukgm2FmCBdafXI4xob5ON3bgb3yoZfCCA2+yKuizghI+VjguMehc5So99dx4KRCwqOE04cIEKYM65dt0E8Iw24cHHxsqTVj1wQHB9//pUawfHOGAbBC4B7leV+wWWxQcHBipGkCA6i/Zu3bKMGOmuO3ImO7oMejnLOSDGC92gZdOmm98nKkOCy2KDgCP4GEhMcwIiR6RSmmwh0w83Mb/iXlQ38SxyNdz+zLLZq9Zq3LTjwcBBEmhRCUyrp1VANGjw0/Ol1QqPmNOp9CMZweMHxQ/acNwgOIIaGoEBWQPA8I2FKiufEFFiPXiEBO3fePPVGsDJl4qQp+lkQduLEe8b3QcHBtBRxHxh+PHFBKCdiEYgJiptSWblKp+ww5KwMunQp/vSgN6hBwYGHg+XiQSIFR/AdIazAYFURq50IFiXwF2/EiJGjbzDYSRUcBAdHwvGI/FyuziGuihYvpau5uJ67SPiohElMcAB1FA8Vm3e97ervE08/L/36D4gTVpHQVseOm6Bl/se/PqBtYf2GkFeIOtO9Zy/18tH28EgdOXK9j+G3tLNoYoagawQ4fRNB25272s6ivxRMcNyj0ICDHo7DgdEinUFXN9p5xo3YUrsOjmWDQTB6LGf856NPqYH0ewOwXDND5uzaUTVu0kwuXrjeSfR1Hdcrr6dy13v2JwuOa9euypSpU+Wd99PI408/pyO/4LQKK1NYscGyuosXL0nbdp3k6edelq/caJpNyTysSsCVzOoKPBx3SnAwMs6cJacaJnZY9Kt4PCdPnVR3vZ8SYKXD7QgOOnsEh7qrlyY+evcgOL5Ln0n3TWBpaXCHUrbT9lNVjEj9CB8vRmKCgyDXr53YQAgQ8xN8Fhedge/pRAYvYWO1xrx5oXgfjDf7KhAnU8Xde3AaCYPD8mLm7zHiXnBgnBA3eN4IGPZTecAImBghDN8332WIE8HsfcFmdpyLqYfIlRw7d+2+YeoEwfE8y1KdGIr0iCQmOKgjhYuW1OBZniXxLN+kz+hEy41iODHBgeeCtsPy8OB+Fh7yiheJKUAEDdM1TH9FxhglRKTgQBQgdoNtHxAGBDb/9YGHpU279okae0QZQch/+8cj8uqbqWTg4MH6+T5Xr/CQ/P4vf1cBR4yYj89aunSZlHd9Dnmnb4kUNH6/EOoTsVCsdDJ+GZjguEdJTHDAJtfoWS7Ly5gwFCx77Nylmxpa4hYwSuxBQRzAlfA8LwaUPS/+9o+HNfKdyHlczdWdEcNwM3ImWJEpBc/tCA4IbZZVV921jNYxKu07dJL2HTtJ+UpVdJRIp42RYoMllg6GVnoUkvadfnSde0ud4mFvjOecsGKFjI/F+KmCA+9Fj5591CXM/bKDZPsOP+qIr2WbtmpoK1WtHmcobldwELNAwCtLcwmeZZUASw+jeaQ8CI5032fWLadxdzNKbtOuo3oOylWopEG97CmBJ8Kf52aCg/tlqgMxyXPUZ+H+7ti5i95nqnc/UCNNzIqfXuDc5BchwFQE4oe6wrJh9lBh9RPPBcPvBQcwVYehZZkwAoLjeRaVq9VUTw+jaZZ5esFB3lklg7eJwEiCfDHsXdyoua6r06wgCe6fgaeCMiVfhYoU0ykgyhSjyJRAQoID403AJVM6iInUH3+qK0somyAJCQ5ii3gGiN/X3nxbpyfwvq1asyauTbBiqZurQ9R39s3As8BvkhLgCUHBwXtKaBvs60E+W7Ruo+UwctQYqVe/sa7UYVpw1E2mOc+dP+fqdW8VaX/469/ds/latzRHTDAtRxsqW75SXGwPz51VV4iJ//rNH3XJPULKQ55mz52rdZN+hE3qgoMEI2VjguMeBaPZynWmjAg12O9Q/BEV0eqFipVQA/TbP/5N/vL3hzQhNpgeYcOioHGjs+A3GX/Iqh3Nf//uTyFh8gU7k7bTUTMdObuUejAMjNj++sBDOnpNquAA3Lc1a9dV9//v/nS//MGNphgxswQPsePntRkxN2zSVDvF//rtH3V0j7eFETEvmaJjJPp/ixNZgOBgpP+f//1byZYjt46Sg1B2jZo013tMl+GHqNMZeA6atWytBogyZmOkB53goTwIAGWFit+gi/l4dpGkbNmMK3I3SVapMBWFOAp2zsTalHL38MA/H9M3apKf0E6jCS+PRHDgAcDjkztfAcnuxM+Lr7ypo9nf/flv8kaqd3XJc3Abaow24uDPf39Qvvw2nRuBxp+LZ7lpy1Zt1JASQIig+csD/9Q8Mepn86zIF57hMaCcERa8xRgDQ9wDwopVMWyYRt0bM25C+BehANuuPXqqoP317/+sz5xNyEqVqSAN3bNkNM00THCDLDa3Gjh4qGRw5ffAQ4/qm0f//tAjKlq+cwYtuCHVnj37NA4D4fKr//m9vqEU9z7ign04MIAEVjZt0fIGwQHz5i2Qj504v+9//6eWAxudRcLSUIToMy++olNiHgQLef7qu+/1nn7t2g7CJrJNLF+5Ul8uR31iVQzBla7ZJQk8Vkwv/dWVM2IGiCNiF1AEAEKGusAmemk+/cIJxA4a23EzEORNm7fQANbf/ulvct99/65vfWV6iF2Kg9NsCLDEBAfCjtcvsOrl3//fryWPG9z4DfmMlI8JjnsUjCpxGGxM1dGNkk4ksB02+wowiuI9CbiJGXmy0oBXXTuJETooAOelA2ekjigpVLS4buSFEWUqJU/+gjJ6LEv4QjBqZDtv5qV5bwgd761w+MhhXTJHx8XoDWPV0okbplSC5+J9E9wHI1Q2I2rhjCOvdOctlhh5Ngfzy2vp4Nn2m/vluOPHT+jnHu4RFzEGmymEfQm85IsyHTlqtAY4MhqnPNi3gFFk0GWOMGLjMLwlGIJgkCHgReKleyzrjdw3g9VAjFDJKxtsDR02IlEXOLENxHAwgmU1zerVa3VDMfLHjqmMfCPd+cz1s5qH6Se8ArjLo0HcAdM8ZdyIlnvlnOy2yoqU4IsCgyBsCKjNkTuvClICewkYZcknK3eKFC8lS5bcGICMgGTDLjbcypglm24rz+idKb0y5Su6uldNp8uCUFMXLlokLFPGw5TJ/Y5pG/YdCZY3xhsDSewScT0/ZMsRF+vCHij8Hg/fiFGjtB4EYTUTO73iEeSZBN8Z5CGmhOWebO61ZOmNI3f2t0GkFCtZRusyxy1esiT8bQjaER484o6Ysjh0+EbvW2LgHatVp77WE4J2gW3pWf7MNalDGV3b4JmNc8/7Vl62xoqVIa7u0Q4RRLlc28DLFU0s8DxpE/QpLFW+dOl6faXu8iZr+hniYfCesGzc+GVgguMeBoNMp3kzrwJ7LXAcow9SUkQB5+TYYKfsrxf8PV4RPov8/Fbw57hZ/oLHBY/hM/LL9x6+57iEyobvo/0uGr4sSPwmGhzjzxfJza6FIPDnT+jePV5wMJodMjS0D4fPH9dI6F5u936j3U8k/tyRx/PfCeWJz6L9hs8S+g1wLZ83tpZP6LjgPfgy5Vifp4TKme+JGwrmKYjPd2J5xKOk+YtyDK8eYN8MvHgsW05MXEai146Sf1/+nIvkt9y/Vfy9+bwnVEbgyzFaGfA7po+CZW/8MjDBYRj3EEHBMWjwsPCnRkqBGBDiWj7/6rt4e90YRnLHBIdh3EOY4Ei5sLqJTcEILiZ2KdrSWcNIzpjgMIx7CBMcKQumFNjLhVVOrPZg1RM7mC5cfONbYw0jJWCCwzDuIQiSZVnmg/96Qnr3Ce0kaiRfEBwNGzfTlTG//9P98tGnaWXAoMG6gZxhpDRMcBjGPcTmzVukSrWauseKf9GYkXwhqHL4yFG6aoO9VlhKS1CqYaRETHAYxj2EX0lws1UERvJBV22EV34YRkrGBIdhGIZhGDHHBIdhGIZhGDHHBIdhGIZhGDHHBIdhGIZhGDHHBIdhGIZhGDHHBIdhGIZhGDHHBIdhGIZhGDHHBIdhGIZhGDHHBIdhGIZhGDHHBIdhGIZhGDHHBIdhGIZhGDHHBIdhGIZhGDHHBIdhGIZhGDHHBIdhGIZhGDHHBIdhGIZhGDHHBIdhGIZhGDHHBIdhGIZhGDHHBIdhGIZhGDHHBIdhGIZhGDHHBIdhGIZhGDHHBIdhGIZhGDHHBIdhGIZhGDHHBIdhGIZhGDHHBIdhGIZhGDHHBIdhGIZhGDHHBIdhGIZhGDHHBIdhGIZhGDHHBIdhGIZhGDHHBIdhGIZhGDHHBIdhGIZhGDHHBIdhGIZhGDHHBIdhGIZhGDHHBIdhGIZhGDHHBIdhGIZhGDHHBIdhGIZhGDHHBIdhGIZhGDHHBIdhGIZhGDHHBIdhGIZhGDHHBIdhGIZhGDHHBIdhGIZhGDHHBIdhGIZhGDHHBIdhGIZhGDEnRQuOa9euyZUrV+Tq1atR/07OpKS83iv8HM+Ea12+fEWvnRSs3kSH8rhXyiWpdcAfR7pd4so1ifUzkjuRh5SGL7Oktul7iRQtOI4cPSqdu3STgYOH6N8HDx2S3n36ychRo+XChQv6WXJl3/790rN3Hxk1ZqxcvHgp/Knxc7Jr9x5p1qKVzJ4z7650FlxjyrTpUq1mbVm3fkP408TZt2+/dOjUWfoPGCSnTp0Kf2rMmTdfmrdsJXPmzg9/8svl0OHD0qdvPxk+YpScO3cu/Gl8qCudu3SXXr37yunTZ8Kf3hozZ85y5dpaFixaHP7k1jjk+uRu3XtJtx695Pjxk+FPf9lMnDxFmrdqI8uWrwh/YnjujuBwHevkKVNlhBMCJ07Er3QXLlyUiZOmyOLFS+T8+fPhT2/O7j17pGjxUlK7bn39e/uOHVKxclVp2qKlnD17Vj/7qWAUVq1aLX37DZD9+w+EP/3pbNq8RcpVrCwtXMU8dy76PXMPdKBTp81wijk0muGzceMnynJXmS9evKifnTp9Wma4jmHW7LkUdVQWL10qffsPiGrYUOOzZ89RoXbkyJHwp/cea9etl8xZsku/gYPvykiZuoV4eOXNt2X6jFnhTxNnw4ZNkiVHbilXobIaHiNE73795atv00mvvv3Dn9wee/fuk8ZNm7t+pJpUrlpD2/3JkwkbykuXLsmUqdOlXsPGUrlaDanuxKNPVavXkuq16jhx0N8Z2+PhXyQM9a9G7bpSpFhJKVaitPZlPOdiJUtL/sJFpXa9BrJm7VrZs3ev5q1Rk+aJis4NGzZK7nwF3bnKuHZ9LPzprdGtew9XrundoG5Y+JNbY+v27VKgUDEpUKS46z8Phj/9ZdO6bQf5+rsMOpiMBTt37ZaBg4a4Pn+266fid/j08UOGDtP6lNy4a4KjVp162oj27Nkb/vA6p06ddqO8Oq5y90y0cUeyd98+qVCpqjRp1kL/3rlrl4qPdh06Jqr8bwUe6OAhwyTTD9lk1eo14U9/Olu3bdfOBYNz/nx0b8zRo0dd5W0v9Ro0dh3bZf3syJGj2hn27TdQzpwJjVr2HzignU/zlm0SFByz58yV7zNnUYET6d7EM8Q5O3T68Z4WHBs2bpJ8BQrL0OEj77jgOHrsmIqKzU5oehAci5cslU5duqpYTgqHDx9x+Rshk9woCvHJOVa7ernIifUTJ06Ej7r3WOkGBf0GDJQV7t/bBY9AFScafvuHv8p99/2b3Pdv/yHPv/y6tO/QSQc30Th79pwa///+7Z/cb+5zv/k/mv7tP34l//nfv5X/+f1fnPH5XnYk4fkGBUe+gkXkhVfekPc+/FgKOLERFBx4R+vWb6h9w2k32EgI6gqDPAYot9sfLlu+XMt1zdp14U9ujWNOaI0eM05Gjx13216WlMaChYvVA7nR9SexYMfOXVKmXEWtI4cO3TjooD9o3/FHVyer39uCA4NYoVIVbdSRUBHrN2yio4lbcRPfLcExctQYyeNGCnfyASZVcPzYpZsKCS84jh495sRbfadgh8d5cRAMdD7tO3ZOUHDgOapbv5EUL1VWNm3aHP5UdDpn3ISJUrFKddmydWv403uTzVu2xkxwbN22TfK4cw8bNiL8yZ2DOkSdiCbmjaRx8tRJaduuozz06JMqMr7PlEU+//JbefCRx/Xv/gMHa2ceCd7ZgYOGSp78hSR9xh8kc9Yc8kO2nPJt+kzy1HMvyT8ffUJKlSmnUwu3wsWLF9SodPyxi1y+Emr7HsRPHSc+aPPJferYiA14T7LmzOMGHlNv6KvWrFsnVarXipl35ady1wRHyE1ZNUHB0aBR03iCgwZOQ2VUSKKhBQv3VgQHRnmjM7RMZWzfsVNOh70DN8MLjryuQwkKDqYzyA/Gm8R0SzQjddLdz7btO/S6JO6H+8LVGCk4Ll++LLt379Fz8d+4YaMJjtp1G9yy4IC1bpRSyQmLrt17hj8JTe2UKV9JFbkvM/7d6VQ031FmjKiC4CFh5HI2oowvXrqkefZlS3kw6j7j8snx25zIOnDwYDwPC/hjEUZ0ori2N27aJNtd2eEBC8L3eAy4f4wsz9N7e+DEyZOyxYkH8r9l6zY55o6NBnnVurXF1S1X7oziChQqGic4yOfJk6fijSJ5NniauK+gEeJz3N2ck2tTHylL7n3SlCmS8Yfs0qpNOy2H42FvxDl3v8ePn9DfBqEsEKWcZ6u7B0arXOuy5umkO+95FYtcr2adelKidDn1elBu1Dl9PuH6EYRy4r79dFw08JhRJlybOh75nM+cORuXN0Qa9S+Yf6YZdu3afb1sabcRFZNzkE/yw/c73DOkLDzUE82Dq3+088jyiYTfUi7B+yLfPH9fD3hm0eoeLF22TD7+7Et5+LGn1JNAGeE1wTvxp/sf1DImv9GgrpA/7pt2ynOZNmOWfPhJWkn1XmoZN35CgtdNCOpcqTLldbQaWf6UFx6Odh06ycGDh7TsKCfqcFCAkCfyHFkPGBWH2sdmfU7BthMJ9Zdy5d48XGPHzp36fBmkRD7/INw3fTrX8G2F/+b+mAqm/eIJCNoF8ke94plFDkCp97Rv8kO+/POljgT7X/6b3zKFTxumDQX7HvoZpiYoN8qC/iQIeSVPvh3QzoLT/YmVAeXNtckj90msYTBvwN+HjxzRvHmow/R3XI8BSmIeS/qDdu07SbUatbVeA3lq3LSFs6VNZNfu3foZ16H/9vfB+emng/A8KFOC1z3cv/bbx47HPXvqAvdF/07ZRPa7SeGuCo5KVappA4nkvKtEeEAiBQcdc6Wq1eSd9z+Udz74SLLlyK0uaF9xkyo4KPzS5SrIq2+8LW+/96F8+W166d6z9w2NMyESEhy4sHPnLSBvpHpXXncJ99byFSvD34ZASCECPv/qW73uK+761WrW0kpIXmuGBYevqLNmz5H0GX7QSkSF4mHeScFB5WvtDB7zwjwH/lbvjbu39eHYDhokQbjfZcikeX7tzXckvzPCNCxf7nheGjVupuo62JEyZ9zYPYuhw4br3zT2lu56nbt1l9btOsgXX38n9V1jiDZtdswZ3VZt2kvPXn1kypRpOv32yhup1AjQ6fpnRZ6pA+UqIJIGSsEixSTDD9niggVpfBj191J/rPlP/fFnek3KKMiBAwf1HlK9m1reTZ1GcucrIP36D9KywA0NGpTs8j5gUCgo2UPHjngeM2ZcnIEjX7NmzZGcufNrfX3z7fclXYbMMnvuPOnbv7+Olh998ll58dU3tBwGDx2mvxk3YZK2i21OgHp47i1btZE0n32h98C94J2iPtFJ0lZ4bnSixA08/8rr8uyLr8pLr72p4nHM2PFa7v0HDrzBEPD8CKpmWg3BEA0+L16qjJbJW++klizZc2kMkYe8EYRI3rTsPkijbRSjB9zTlKnTdPqONst5srp2u9C1F77zjB03QZo0bym9XH6Y48+YJZsaeNjtjFCZ8hX1t2+8/Z7kKVBIFixcFFf/ojFx0mTtaKkbwHMZNGSoTkmQzw/SfCr1GzaOVw88k6ZM1SmMp559UUaNvj46rNegkfz9oX/JD1lzxrWRm0G9r+7a8DMvvOIGFfWcuLz1YEmMTUknItu276iGOQiCg3uh3xs8eKiWNf3QN+kyyPgJE8NHhWLamrdqLf1cv+rrwV5nKBh0UKfefOcD9eSMDNxvJGPGjpOGjZvKipWhvo1nOH7iJPk63fdazynXiq7+MkCJBgKY9tjT1RnfVoaPHCXNW7SSrt16SNESpVy5vy45cufTZ8ezr+X68A8++lTFGv0aRs9DeyI/EyZOdvWwn+sfQm0kW648smTpddtAH9O5a3f1/PVwff2nab/WqWnOxTHjJ0zQOvdGqvfkfVdH6jVsEic6rrn/rXd9GVNZ1MFU7vy0a9/H8HsCQylvyuD9jz6RCpVdGbg+HWjbBNpiL0aOHuP681pqq4LQdqtWrynDR4zUv4nRo9/54pt0er2PPk3ryq1toqJj5qzZ6nmnbQBTwgyYBg4KeeNIS5Yu1+k4354pB9pKsF8YMXKM9rH7Anmkv6Ufoe/cvGWbfkacYLPmraSLe26ly1aQDJmzypw58/S7pHIXp1Sa6fwoo7lIrrrCbupupF//gXGCA/VNx0ijYg4Stz/GsmDR4nEFjCcgIcHh1ejaNeu04RKgSVQ3HR1GjYrO+U+eTHzeO5rgwNAPHTZCvQI8FL4vXa6idpIoYcAo0wEWK1lG74vrIh66OAOG4vSCo1Pnrmq0EUX5CxXRirt02XJ94FS2Oyk4YP78BVpmo8eMdZ3ETqnlOkTmqBFoVMKOTgAVKlLcNdZummfujfiawsVKxnXmhw8f1jId7PIQFBwILoQdvwWedbmKVeSTtF9Ju46dVKBgVIKjJQ8dQYVK1Vwn+L7UcNfjmdPx0+HmcsKOcuJ3NCJiIRB5hYuW0M6LvxFQlGm9ho10DpzyIf94K3gujAg3bQrFT3Bsy9ZtNRhvhPs9I1BEEsKKzsMLDkZENDgaYxA6CwwxwYBeCA1zHUeBwsVcPW4pY935uH4b90zoFDZs3KiGHqFbtVpNDaDGGNB593N1CCHNMYDQxPNVonTZuHpDx9mlaw8VU4xS8GbQiXIsdYVpMsqIuoIQZsRGh17CfU499DCaKusESZ16DbUeRUJ7orNncDDKdZRjxo3XjnOsexZAfA/PI78T13369Xd5Gy9DXLnRjnwwcv+BiLaC0sYJTMqVxPfpM2ZRY8jzA+oO9YK8j3eia7rrzKgDiLmazkhgpGjz5KGBMzDESfh2H41BTiQXc0KJ4GegjPEQ9HBtnTIkyI5z7ggbhSDUYfL9yONPq5GbH7gOhhLh8NHHn+uzTAoEkTK4ecsZdFbP3A6JCQ7qZflKVVRMM8ol4J4YiZJlyrk2VCVOGOEh5Lg2bTto26Zvbej6YcQrfSFl29qJfJ4F/Vw0eM7UxXmu34BZs2dLWSf2ibfj2Q4ZOsL1vy21XkaDEXWlqtWlWYvWcW2F/hdBzqCBMqXt0U8igBAe1HvqCn1axszZXHsco78DPEefffGNfPXt99K7bz81njxf7rNI8ZKyMPzsuFeE1atu0NLOtV8EwspVq+SCEz30Q9iJHr16a/89xPXl/L6O6yP4HX0xQb+seqJcOT/tetr0mXruOXPnahl07d4jVAYu/5TB5s2hKWn6KgZ1a5ztmeiuRb8SNMz05Qx4sUlLwn0q/SzPjnhB+g+m6bAp2AsGPtHAjiC+WrRu4wZQB9RzTb597Agez0Kuj6QPI58873YdfpScefLrIMp7zrr36KMePD9oAOxnHydUi7rnsnptyO5NcELzQ1fncrpnRNucPmOm60tvLRD47ggOpxjpgD7+/EvtGDH2wcQDQdGinKiUdMR0EFQAXJse3LAUYBfXAWNsDx86nIDg6KTnQVE3adpCDSgds4dODyPyvVNoTDMkRjTBwXkj4x1Y3sjomAqPYZzhGkb23HlV7QbBSOCSYpqFvLJcbKMzNjSWos4A4tXxYCyYw6WxesGB0anpRMKQIdcFBx0QBpTKdDPBwW9oyCXLlNVluWVdw/ANhaBYYhjoxPxoBFasXKUeHJ4h5Uq+GNXQEQQFB79nxM15gZEe3pqMP2SLa1gJcdwZm+q16kpaN/onKNLDHDmNikbixRwBsIxcMYxBBrnRXvZceeMMpGeC65AzZ80eJyQQMtwPnU0QOoGv3AiDzhgQcs2cwaVeBqETpZzwBNGR416sULmqdqyIMQ+eLJ437HGj0qIlSt9wTeo59QMDjojhbzob6s2IkaG8enjGdAK4mqnzeAN9B97d1SG8HocC3kOMHtcLjsqZMsKbktD8Lsv4MrgR79ywcQGECfdHm5k6fYaWLx1RENziiEuETumy5aWGe46nA9NgCDwMSZ36DeLKY7i7v2/SZ1QR4KEu8ewZvQcFEb8hqBl38ZXAyCwII0WMBqLkiivHlq4TRiQHYRQeabwBI4OwIl7ju+8zqaH2IAhfeu0t9eRg3G4G9ZiBxF8e+KeOPqMJu6SQmOBgyqu8qwOU3/z5C8OfihvNLnP9Y3EVt0AfVaNWHRWi1FMCV4kxCdZBpivxmCTUb1DHqdt+sEFgeb6ChW/oH5iWSWi6iTJHxHIfvr5Sd9Nl/EE9UB6MOh7gXPkKxJUZ9b2Uq0/Ubf/ZzFlzJF2GH7S/RJx61q5bJ5lcG8fYc68E81atUUs9BT7vcOToEZcfN2ALe2E9DHDoE5a6MpzrRCJ91gonUDysCDvg6jF1tJPrk+nr6Zs8lIGf+qVPr1K9pvarGHEENP243/4AAYGIa+/6a8qRPp8BOYOUIIgdBqHB/AchLzOc0cem9nXCkL6ccsT+IASwLwxO8DJ5EBmIEjyh9CXQ1wk8RD334KHsB7r+lAHjuvWhwdDkqdPky2/S64D3dkl2goPC4maZR8Vlxe8wpqQGjZvJ5199F3aNHXOV8GiCguO8q9x0VFTMwYGK7Vm9Zq2rzBVUBQbnriJJaEoFVjpDzLUYwaHQs+fKp0qWkSSNHNXLPF00EBx0zKh8OigMGKPTIOoWdGXSyHW0vrLyGUIMhYpBAxoj5YSQuBY/jCQes+bMkUxZsmvn06f/APebkPuNzpXKxPRJEJ4H3hxGmQiepAoORqzcI88n2lRakCPuHmq4hsmxkWWGi56OFGOCUaZDYPnqNGcAPTR2PEHUG+IcgvA8MFiMaCgzjBxuTgRsEEY2iNNhw0NuzqQIDvIzy43S2EtjZnh0HQ06ROo5QtoTFBx0OohBpqTauc456EYOEhQcftqQOojrmPloD/WroWsviCv/jHiGGNaEp1O2STHXHukMI40r1+rRq6+O7KItbQeEGktBI6cWgY6QTnj16rX6N6PqkmXKu/YyV/8G6nGtuvXULYyY9O2ezphlhrhxL7i6GA0vOBiJIzh4NkwXYOiChika1Amu89C/ntA+Z/2G6yKNNsFUy6dpv1bv4M1YvnyldspPPvuidO3W84b2cSskJjgQeDxv6orvAwBRSqApzxiIb1DBETbCxEYwqi7o6jh9WjRPYySRgoMVJ1my5dLnsy6iP4xGNMGBZwIvHtMWnsVLlqnB9FMMQJ6ZGqS/p83BZCek8Yox2g5y5cplHaV7cYLgYKkyxwbF76rVq7VeUMfJE8+d/qBI8VLyXYbMMn78JPXWFS5WQvMzzRn0IDxPBBsezkauDGjXkXjBwRQzfSfbEVCGh8OxFnh58Ub5NjZ5yjTJW6CIejjow32e8JKk+fQL7f8S4sD+A1LWPXPqLXaBqWKgHbAkmynbSHiWeE/8FFFSBQdTaeQbcXa73PUplWgdKfNXGGeWX9Gx0dhQp6+8nkpV/NeuMEm4pJk3wthyHAGY0QQH3gsCcKjs5SpWvcEweWi0NExUZUKrRADBQaeN4FgTdi1h9Im34H7SZcgkX3ydTt2BdIrzFyxUg4wIwbgkFFRDXlm69F7qNPLqW++oyy8S1C+bUI1yjdx7OC5duqiusXkLFsQZHPLPPDsVAvFwM/AaIR4+TfuVzvsBjRsVjvcoMqKeM+KGxNjs379f74/fM/cb7FARcTS0GwSH61g6duyiQiUxEByMBHh2fhTsmedGcUwF0MlwPRoT8TMID8+BQwe1A+nkhF4klF2LVm3VvY6owMWKQIsEtzDGPyg42MCHDiQIoxaOw6OCUGP6gQ3DCLBNiEQFhxvFIAKOHnWjY9dpYgx85xxJUgUHRgqBQTA2AoEywJ0+YNBg7YyjQdkyRUW8AgOD3n37q3igLWHYmF5o2qxVgu2FOXW8EIzAI/FidP6CkMt70JBhKgKXLr3ueWSfBjo4XOZffpPuhnZPB0/HTT2Nhhccc+aGXNc8I6L16T+YQmB0hofMT+kEwfB279lL/v7PR+XDTz6XZQHB1KtPX11t8l36TLr8ODEoP+oYYuPb9BnUpX67JCY48EiwSoU6HOxfNFbNiTKMFnjBwYjci3CCl7PnzqdxNQhpjE80r4/HC46F4Y2/GDljnHguTFkwYCP+CJEXjYQEB95APKeeufMWaBvHCNMugOObunZFHeY8MMkZZ4TAzJk3Tm9RL9j/gme9Y9dObRsIAgZGGE8P90F/jYcUI8198G/ar75VY8ozoz7QtvFy4PWgzbAXkz8PgyfsGb9jdR9TWpSBz7cXHPSHQGwJ4oG/6dM5N/bB3xP2BbHz2ZffxOWJYGW8bfwuKIAjoc7RX7317gfqMfLVG1tAjJqPiwrCslrKcOq06fo3opq+ISjMuVcGBUHBwTQKbcz/7nZIXkGjrkOhomAQ6cAJIqTScfM+UcC+00goaNQLDkQFXoxorlAUM5UT13XQPRgJgoNjcI9inPmbYEGCGRn94komj8zV4aaa61Qj3hcaPfPsPiYlEh46QUPfusr1latcKFrcdncDBB4dY8HCxVyZhVQtDZYOqK3rxILBQ8AKg7FjJ+joiA6HuXwaAm5x38iABhXPw+EEB67DSBERiRccdI7H3H8HYYMb5uMJWvKCI1cegriuz4viFaHMCU6NBNcnnVb3nn20zrRwIwhGh8G8A4KD50x8DiA4OA5vVRCMGQKUEQB1kflRpn1WhUfv0WD/BAQHnY0nUnCwEyOjFESJFxORRBMcdOYIjqBnimdG/AAdBlMd1DfEkzcciYEg6ebqLqOr7zP+oJ4lOmEEB20moY3q2BuG0SjtMBKuS91YtDg0UkZwcB9L3MjWs3fvfqles46WP1Hzce3eta+EhIYnUnAARhChl7dAYR0Q0KdEW7HEufu5vuefjz6pwXU+7oJnS9Do/Q8SNJpD58bpemjT1KNQ274uYHBdM93wx7/9Qw0q93C7JEVwUN+DHo7EBEewj8NbSvkTyIw3JtJbECRScADlwrmZ1nn3g4/UqEcTmXArggPvDLEbNxMc1OnIYEXqJ9PnHEtsgxcc5N23E/LNtBPGluBTysTXMf47sj/Aa0pQf+o0n0mWbDmdOLvugeZctFnizt75II1ehzgKiBMcYYHK86LuUa+ZnqQN0e59O2LQy0Bj3fr1N9i7aHmKBlOhOfPk08BnDwKbthjpNQf6OTwcxGBAn/6u3TZscoOHg2tHejgQHNiAxDwuN+OuCo6bLot1jR63Mg0C7wPz/+fOR+94IeFVKqEYDjwRNNoOToBEehoIVkK90kEl9lApeKLyMc6M7qkkuKrJG/PuHowigmP27LnqqifwqVLVGvGCqaioJBQxsRjc5wQniJi3Z8QSjFmJFQgORq9Fi5WMExzkiSBAhAQehSCIBQLPmG5hegIPBzu8EqR0ITDaJXiTwEnKC25HcOBO9G5BYGSGcMPlidGke+eZRQoOBCadGp3JwYjNcLhHfo/rkLlmjDoR6MRVBMFj8q0bEdPQAK8MBhCjQ/l4FrtOi+M4H5+z6yudLp14JH45KIaP+hZVcLjPmVKhroX21Kh3Q90CX28SExwIiyCsSKA86ViY0kAw+Od9M2g/Cxct0XKi/ZBXhBBTWxibID5vjHxwC0e6XLkvRBsuXp9HyjhScOCJoT3QnqMFlydGNMHhwbPRvtOPKlqjiULyvnDRIjUsjz/9nAbZXV8Wm17+HF4WS3lj4CnvNJ+mjedhwOv54cefy9PPv6yCnvMG4W8Ec1KMSCwERzA/l5zIwuCXKFVO63dCsTHRBIeH9jFg4GANek4ooDcWgoNB5GQ3wAtCW2ZlG4MmyhgxGCk4YOPGzRoHSHxEUuC3xIyxYytBopEQj0G7yJbzehkwsAkKjrPnzuqglX6HOoJnLziViC2i/0gsRiixukM55i1QSEWGB48i08bEpQXh90yLYauWhL2LzBiwWIF+zEM/SdkTA+K94ClOcCS28ZcKDteJ+gbEQ/whWy6NIA5Ch7IrPIJCyZZ3CiwoOKjcrFKhslK4uJWJVwgGCeFJ4OGj8vbtT3y7cpQ7KxxwOdFoeegsNWMFCnOiQOdIJSLqnqWRXHf1mjWSPVceVbZn3P3BiZMntBMjsFCDiZwxphKz3plgQVx4vBvGNxAUM+9C6NS5iype4LesQMBw+TXcNDZEFjEKNxsJAjErGB/iFTDint2uw2LlB65SjJWHxombHdchYoVyoMyptL4y0kFWcQLrjbff1w4FEBwEgiZFcFCGHPvO+x/pM/PQmPI7EUOg14VwHAsdAJHSQeNCg0Tw5HDCDc+Y+yTu806du0nh4iV1e3eeDS7MDJmzqCH1YGDo8FiGycoWYNTEMjAvCAADw1LH5156VUUb50MkYwAIJCMS3sNKK+apeSaMHpg792IM+C2Cg3gQDDF5ZQRG8BtGw9cDxNiyZSvUIPuRJYGb/ntWy9BhRbpPmfpg9IroIH9MiyU2nUIeV65cHTctd879nlVHDRs30b9XrVqj8RUY36ChneeMBUJG64DraEP3c12U0BYyZskmPdy9e6OD4KDtBgUHeRg5ZqzGcw0LB+4C5UTA67p1CbuWERx0hkxpco942/YHhCtTlhikRYHrBcFrxwDgHw8/Ji+8/LpO3RLA/MDDj6q7Ghc1sNIpizOwf/jrA9peacceXNAvv57KHR/aeyMSBiysEGKk68shIShLVhklJDiIVYomOBBVQcFBgCCBlPQfeOyWr1gVd22eM/fMQDAxwYGQY+qF50B8w5at12OAmHIjFgzvYzQQCjWjCA7qa6TgQCzdTHAwxfzFN+mdgc8T9xkw+GHajRgPoPwQHOQ9KDjok/BKULbBwSArtBhw0KfSJ/pYI6DdMWDB+0ueaNPB+s19/JDtehkgOPDmecFBu+Y3iKzGzZprjBbedw82kQFc1hy5dDDnIeZj8eKlKp7of1hGPiLQLjx4OHLlza8eDncpheBQ2n3WHHlkgRPTHu6N6Wg86pQF4AUpUqyU66c76d9A3/pu6o8lpzt2a/h5IziYVk8RguNWtzbHPcmqi0yuMtNRs98Cv2ek7aNuGbkULV5avRrg36XSrEXLuEqGoWPq4/tMWXW5HiM2jA8u8GUrVsRV7khQojRerh2an78euU4jK1GqjGR3lZ5zNnLnIjjpm3QZ45Q3FZMllzQMRuN4SHCdc490IFSg8q6DZC7PK9cfu3TVqRqWcaLEmfbJk6+QRvj7qRkizVlJUdmJAj89tcZ1rpmz5HCVpkRco04MBAexDtlz5tXgQg8NA08N+UTsUeaFi5bUuU3eVeGfDWBEcB8TMY76x53JaIr5R+JAgOAtjEDzFq2jTqUF0eh+V0fYpZH4kMrVquu0RWYndJgn9Vsrk0dictjV0bsEPajy/gMHaVngRif/BQsXl6o1auuxZ86GjCSbYrE0DyHKcdQrRnkYZdb1+6kSoDFzjs+/+EYDyTiGusP6e86B+AI6FwQ1AWmh6xaTatVr6Sooni0dPkGtzMuyeoR74HO8JLjr/Twtx3EP7CuAeGIappB7BoyYqdMYvKIlymgH61cpEczMklD2eyEWygfYaUfnDAT5YW+NYJBeJOQFscP1mFYqVKSE/gaPgzcMIQEzWXLkyqsdHPfIM2Kk713qnIP6wqsAEK8EhfM3nhtejufp1aeftt0F4ZgOD/UEMc9OndSr0DlKq4ckWt/hYe8BAsTpKHkmXI99UBDV5AEhhNBMSPhy/7i0C7l7+vXv/iz33fe/5L7/7z+002Xw46diMHKU0R+d4GBU6e8bAUYf9qvf/EHn4iMDzIEpGfYmwdMTFArRQAAj3DAykStAGFgxPc00tO8XgI2oEIR8DsQUEZSOAKFM8I4VL1lG+xP6Neo98/xMFVxz9x8NYlgof0bv1CfqK+1Gn4szkrRvBC8GOxrURbwM3IcfNLHUs3jpslpXPDNmztH6xPuceBbA8QwMKVdfp+mfyH8BV6fx6nEPlBMikDrlny/Pi/6EvPt2AgyYljrxjrhBoNA26Mfw7CIq8WAjWql7fM594mlq3badii02zSLmIVgG5d1vWT7sy4C6V7JseQ0g9jC9hnCijbJaLjgw5H6nTZuhK/FYJebPS50lEJ1yWODyxG/rhG1dEAQDe7GMcSLX91tATBeDWvpKzkn/VcS1BaaJg6ssqYvkmf2BqNPYUNo9A6jczv6sD0+pkG/OgSi8Xe6a4Lidl7fR+bB/A8vbqBi40hAC/mGhYnFVecVFJcOdO3P2bB2depjfR2FTgRAcVERcTonhBQcjhKAS9xDYV8aN/hAcjCBQ3lw7GLgHrKumw6Ux8SAZnQPuSKYwZrm/ERxA59GydTsddSA4UNtch+h/b9joiJiu4Z79KgvKKbTvxPi4cyUGFZz9/nGHRu6wB0RNo2QpczpxprquV+PrEK3NcTRO9opghE2+/Fp4Rpp6j64s8WIlBqN4Rm0YFka3dMoYMzqV4KoHGhSNhaV/kdMOwNTKAGewMTLkn7KPtnqEsibWhI6LTou4H85LOfK8fcPl/3U9u+ugaWwt27TVjhzPBC7IYMeBCGMKRg2869jZ2ChoWOiwiJwnQh7BwTW4N55nUJDxfAhUI18YNzpc766lQ6Ud0cn4OsEzx01KpxIUHIDXAuFCMKff3TQhGDnT0TCaQ3AQY+QD3zzkmekZX6dpmzNm8RKp6wYLIV+xStVQx+meA20v2OkDy9Rpu8FRqoc+Ag8aU1CcA2MwbXrigWo8MwJe/TtpqMN02jw3RrMYxcSCwz2IdwwDBp0RKfU3+IwR9FN5WZsTqEwh+e8QHHg4GCwkFJiLF6Vbj5668sE/u4RAXFIXcbcTwxKEPoBOnxF1cICBkMZ74kfa1BXyz2oEng/uf+o55YLgSGiqJIg+J1fffFwO0630Y6FnW1qfbWLiKa5Pdvfhy2rh4sW6IVZQQBIPMWz4CJ169G2P49luANvgBR9eOgwxK+SYPqGN0EcxdeCXpQLlx4ifvAdtgQdRwZSDFxzNnCCi/gN1iKBQzst90h/jrQRyxm+pH3Fl4AR30As1z33P0vPgclTuBdGA+GPXz2gglmlP/rwMRvFKAe0YryZv740EIU/9ZkDhy86z1fVpeNU4J/0XAb8HIhYFAJ4PvB6UBd4n+jzaPn28F1I8G2yR3zPodrg7gsMwboKP4WBqiA7VuDPgOUFwqOFMghg1jOQMMRxM5UauUjFSBiY4jGSBFxyMmG62hNZIGox2WLLLFBnL+gwjpeMFBxsrGikPExxGsgDBQdAoLkcfjGvcHggN3MhM/bCaCtdztKlMw0hpsP0AU+vEPBgpDxMcRrKAiOzK1WqG5i1vEmBqJA5BhsTCfPVtet0BNaENrwwjpTF+4mSNb+AFj0bKwwSHkSwgoI9ASIJ5E9pYykgaBM6yRJidY6PtNGgYKRUCJNmYLbEVS0byxQSHYRiGYRgxxwSHYRiGYRgxxwSHYRiGYRgxxwSHYRiGYRgxxwSHYRiGYRgxxwSHYRiGYRgxxwSHYRiGYRgxxwSHYRiGYRgxxwRHDODNmLzlz7/Jkb95k6N/QyTbTvOCstNnEn+D6q3C9Xgj5M1efU0+uD5vuEwMznfUnS/4FsY7zaVLl+XYMfJy1nbDvAnUI94zE+3tl8kJNnHj7Z7BNz/HEl45TrkcP37ihrfWJgZ507Zyh9tgYlC/eU35SZeS8lbnWMAL/I4ePaZ9xJ1obdwTb0ql7INv1Y0G9ZbnxJtcjXsTExx3GBrduAkTJFfeArJk2XL9jFf8NmrcLG7Xxw0bN+nrt4cOHS5X76CRXbxkmb5auP+AQYl2aLyCm9cv83rwxFjm8l+lWg3p2btvkjvyW4XXUjdo1ERGjxl71wxUSoTyZ1tnXg1OmSVneJV+3fqNZPacuXdFRGLEylaoJE2at3DG/FT408ThVeAVKlfTV8rfLRBi7P7a8ceusm/f/vCndxeuy3b3gwYPvalASAoMXvr26y8tWrWWnTtDr7BPCN7tU75SFZk8ddot9Xv0ZdH6Hz7n+v67K+5f/qYfIbHjLoOmYF/If/NZvGMC5/fn9ceQklJW1HV+6+s8Aotdk/k917h48VLctbku3yfUPrinhPpcf53g9/w35/P55fzcQ+T5I/N4tzHBcYehYvZxDfCt91LLjFmhVyj37TdASpYupx0xrFi5SsqUqyCdu3S7o4KD7awzZskurdu000qVEIsXL5FSZcpJ9x69w59EZ5bLf5bsOaWxE0cJVf6fyrr1G6VYyTLSu08/HcEb0aH8Bwwa4p5HLldmG8KfJk+mTJ0uhYuWlPETJt6Vju3AgYPyXYZMUqJ0WR29J4Vx4ydIhszZpEOnzuFPYs/Zs+eldr0GUqdew5sa51ixw103d76C0tHd96U7IDgwoK3btpMKTkhs3rwl/Gl0GHBlzpZThg4fkeR+D88Jz2j4yFE35Jf3LTVu2tz1Y+Vl/YYNmo8ePXvLD+78vEPom/QZ5fMvv5E8+QvKpMlT9Dd43Zo2aynfZ84qX333vR7zmTumeKky+loFwFvTo2cvyZw1R+g86TLIF19/J7XrNpDde3brMQmxfMVKFZSrVq1RY9+pc1f5NO1Xeo70GX+QTK5vTpchs3ztrs0523foFPXN2LwLaeDgITLQtfdoL13csnWbdO3WQyZNmRr+RGTevPlSsHAx+eKbdHpfnL9A4eIyc9ac8BEhIcWrI7p27yk7d/089c8Ex09gx86driGMlmXLV4Q/CRmGrdu2yVjXoe0/cEA/o+JUdKOpxUuW6t+r16wNeQ569bmjgmP//gMyY+YsWbduvXb0uC7HuU6fVzmfcpXYg+eiUpVqKoQS44DL/0wnOsjvnTAcc+ctkNFjx2k+PRs2ulFPxSoyYOBgc7UmAvVq6PCRkq9AYfWQJWdmzJztBHVFmew6xDspOC66Edz8BQud8BqsnbKHUeS06TNk4aLFzvCEpi1vxu49e2S6aysbNm7Uv6l78+YvkFFjxsrxEyf0s5/C5i1bZZgzrOudOPRlQD4bOSPZuGkL2b17j352t+FdJEWKl5JuzujcKcHR8cfOUqNWHdnqDGFirFm7zgmAQlrGSe336CsKFCqqZXbeXQuYBuv0Y1f50hnXtu07qNeGKaKiJUrJd99nlvoNG0vL1m2lafOW0qVbd+2/AJGX6YdskiNXPvUw+2N69+0n28JewwMHD6qX+FsnEuqFz8Ox2XPllboNGsmOHTv1uGhMnDRZChYprm+0vXz5ikybMVN/26JVWyfAS8irb7yt7YIXVDZr0coJ82ku3/Gn9A4dOeIETn2pVade1BdZLlm6TEqUKiudu3bXv6lfeKwQTyVKl9c8c/5iJcs6MVVW3z0DCI6p06ZLCSfSfJncbUxw/ARQi6XLV1LRkRgY07shOCKh0td0lbZNmw6usV6frljmKiyCo1//geFP7g5du/eSyu6+d+26PlIICo47aZx+aaQkwTFn7vyYCA7o1buvjlrP3mFxevnyJfX4YWxO3oGYpQULF6tRQLB7mFJBcDRq0ly9Mj8HQcFxJ7gVwUG9vVXBgcEtXbaCtGnXQdsAicFctpx53PPqJdfc38CAqlTZ8uphSIjt23dIvoKFZcyYceFP4sMgsUHjpup9CDJi1Gj1nvQfOCj8SXwQvWWcPZgS5dX5iGGE06ZNm8OfJAyxRQgVPDiHDx8Jf3odPOSVq1aXXn366d+UCdPjFatUly1br0+34glBcFSrUVvOn7ugx82aPUffyv1zeUlTlOCgkaIax42fKOMnTHKjiC1O3oW/dOAO2+Yq1aFDh9SooyDxQnj470lOfVJh6QgI7LwZBE0yEuJ6dKA8KEYq23fskB+7dFXXW1X3QKe7fOGm4qHiJtuwYWPciP1WBQdzcJs2b7lhFMR5aXwbN21y31/vbAn+xIATAEqjo5LhOiRIdbK7V9ynxUqUln4DBmlFZQSI669ajVqaL/JMmYyfOEmWOiHCtT0EuNGJHDp8WP9muog87du/35XxYfVYjBk3XmbNmatlnhCck2vSGHPkzudGJ110pHrCjSSZ163kGsowZ0y5N8px7LgJquKjBb9SB1Dp1IEJEyffdC6cPDMqoeHSmTCKHTN2nMv7/Lj7CkI5cgx1hGvgag1O9TBPyuiY63JevEe4igl63bt3n9YL/qXzwZXrRxIYXjodrk2jZyQVCc+X+/f1mzrgDTbPPymCg86Kes7IaaerF+SBqQ3q3oWLoREiEKzLsyS/1B/qNnnFFQwYksVLluizID+USTT3Lqxdt15Hd2NdXeA5T5g0Res77Y98az3atk3OREyZUY94/pGeLfI/1XXa5JvEMdTpea7OlKtQWb5Nn1G9HExRUkd4xlu2bJW9+/Zpvrmnbdvjx7nQPja6ssNNz71Qt/lvyor+gHNjyGgrS5ct17rGNAGeviC+LfJ8gu0F+I57bdm6nRtNZ9f4JKaYKGvqCIakTdsOstaN9sk/8V20H+8NBV9n+Yz+bJorixUrV2oMAHCP/JY2O8GVO88tcgqV3+PdJFEXGd2Tt92ubvJ69z59+8s2V05T3Xc8t1A9jy/iLrr+grrj6wHtJugBSkxw0D9zfdrpgkWLtE3nd0YXL+etCo72HX/Uv+mj8BYwgvd1FXi2pctV0NF90JsbhDJBcOANCP42CGVe3z2z5u78wfpOf1rFGWpik3g+0UhMcPBd7rwFtF7djNsVHFx7+YpV+pmH+LtCxUqo0OQ44qpMcCQBOn1G5Gm//k7eeucDeT3Vuzp/56cPYOWqNRoIhsuKkfRnX3wtg4cOC3UQzkA2dMo19cefyRvvvC+ff/mtNpSgazYSOrNeffrKp2m/lnfe/1A++OhT7ZS2bduh0yR8/sQzL8gLL78u332fSY0mbj8aVP6CReLmNG91SoVGVrlqDa105B0QU+07/KgCZ+Wq65WKikbFpMNdtHipjtAQGnhfcucrIM+88Irm77U331UXHXPcuDbxcDDaYi43zWdfaJky10jH6zsvjAwVe/iIUfo3AoGyrerECiPNHLnzy6tvviPvf/iJO08X7XyigRhBZb/46hvyrMvPS6++6dR+MffsNqhAomxauQ66ddv2zphkktffelfzMtqNRHxeeMZHjhzR6/j8vvH2e9KkecuoxttDEGGDRk111IILkkb/yhup5GN3jvYdO7s8X+94eN5DXH35Nl1GPTfXyOiMxqjRY1SIAAKvZWtXBtVraqfHc69Tr4HrzHbpXHPxkmVUUH2d7ntXZz6SrDlyu3Kcr2IjV5788vLrb8n7qT+Wdh063lBeGF0EIHOvem+p3pMSpcupYeLeqQdJERx0dmVdHaXeMtr76NO08vZ7qdXVjPhglA0YWvJfpHhJadu+k841U0bHXSdLW0PwZM6S3eXjXXnT5efb7zM6QzzQdebXRSB5oi4Tg/PuB2nktbfe0VE952FkNW36TO2cEZfVataJ18lR/znOGyrOt337TqlVt757Pl+6fH8oL77yhtSr31DPQZ19/uXX5MlnX5B3PvhIirqR+jZn3FnlVK5iZTcA6KYisnnL1lLJ1dugUKQe0VbobFetXus63nlatzEE29w16Uteeu1Nefq5l/ReKlSqqjFRtPfOXbrH9TFA2XVxdalG7XrxBC9Crrcz5uTv6edf1jr/xdfptE/AgNF+atepr67+AoWLubr4tnz4yeea57NOkAB1tr6rs7jwmUpg6qBG7br6OQIHwU1sFdeg7RV0BnjJkmUqhoE8USdfc20z1buptQ7QtqhjB1zfwtQDUwnt3Cj+q2+/d3UylXzt/g22N8CLNGHCZDeyzxFXD2iXffoNiDPq0QQHz5GpJMruTdfXvvfhx5LTtbv2rn0g6Bik3IrgwFtG26I/5Tqly1fQ+wjiBUfb9h0TFBNecNBPJ0RQcPCcPbQb4jjoxxJa2ZSQ4OBWeWb0PYium/FTBMey5Sv1M8/gIcP0nvGs8GxNcCSRPW5UOdApU1ZYMN+23Cn+Qq6hEYSF+oRVq9dpUF26jJm1s2OkgRrne/8A6az5PaMOHhABNJEjLM9QZ3wIKGJOGsO4dOlyDUzavXuvGp7Ro8dKgSLFpU27juquwyBfcJUdw4ChYTQFtyo46KSZhyTy3rted+3eLXmdsUFAYAB9B8hxGD88MXgcyO94NxKhY6JS0Qhr1qqrHTaNiUq3bv16Lac0riMaOWq03hujdMRadWcY/OiQylm6bHkdEQCNuoY7Fx0UwVecn9Fn6zYdpHCxkq6cZupxkXA/zMU2aNQslD836mHERyNmNMqo520n6AiK5NnQOCivsuUrxok2ypvA0jrO+Cx3jYrjKM8CRYpJC9dZs9QwGhhIDMMLznDx/DkfnhQ6YLw/8+cv1OPoOLt27+FEVF4Z4hopedi0ebP0dNfM58Sjb9yIEoQboqVLtx46V88zYpSMoEWYMhqjDBEZ1NFUzuAzt4v3gmsjHPmcTsizd+9eGeSuu9oZQ+6NToUyZUrMd3x0lDcTHNRVjPUnTkCEnu1WvZemLVpK9lx5tFMEBCwrXl567S2thxgLOneMFt4DyqFHr95x5TBk6AjJ7wxkBxWWoQ6dfBYozPx6c63T1IXprt0hiqlbeH+ob6wIKVexijtmnf7OgyHn2SOWgTaEyOLZL3QjbjwIlBGGkJU5eOO4VracuWX+woXqacK4kG+MKM+U/ONqV8GPBzQMHTeB223ad1AhQjmULFNOR+6cg+fSqHFzPc88144w2rRnvG+1nEA4eux6MOqmTVukvBMk3br30ucehHaJAKIukwfKkLKlflLfm7VoLa+49kMdomy5LuIFzx/xV8A5qzvD+kGaT6WLq5M8Q992p0yZqiN+PECUF30c90R+8C4xjdrWCYkK7tkud3WI+olHjZVriGbKimkNzq1eDleuBDnWrldf28N2Z5Q9g4YMlewuX0y/+HowzA0+EErUYTwutG2EbVBw8C+GmUETfQ3PgcEL1303dRoVHEkFLzTCBe8C/9Jn02dE4gUHQuqgG4DQ/+GJpj/2faUXHNw3z9Yfw334Y7zgaOmE4emAuN7j2idTv9Q/DHw0fm7BwUCDQbeHtkDgarGSpWWf6385zgRHEkEUHHYj3CBtXaUv60Y2NAag06MDq+IMcHAkxsOu6wwV7rgg3VzHVMgZgmBMgYeHxWiE+U4frAR4CHyHi/hhOmX02OsNiMA25vtovD5ftxM0OmLkKB3p4Y2ARe63Wd3oIH2mLOrpYVoFI1nTGVNGKlQmBAejAdzbQOfTsEkzDbA6e+76aG+VExcYUTpcOiAPU0d5XacwMRzVTSdB9PnQYSP0bzpNBE6mLDl0nt5DJ0Vlb9q8hVwNjJAi6d13gAqGXYEIacROYVfGGOBg5D7GmVHniFFj9G+eXSXXgc0Pr/TxYPRZ8bM8ELgbhHpQp34jyZQ1uxo+zwbX0TMKxsNDh7PRGbf8hYpo50kn5DnqjAdGn04eI03Hxgg+kzOqQfcoHRudBJ0qozsPIwy8cRhD9osA3JuMoBu583j3rNbviM6FUV2ZgOhKiuBgVI7Bp14g0jw7XCedK08+PScGlukNptWI1melkGfPnr3aQbHElE7Zg5Fu5oRdQSfwEI8EHDKfXbiYG10H2hXthnaFNwfxwf2pp8x1cky9BEEY0L6YQsEY02nSfmfPvv6cgHLnvIDhLF6q9A2jTOowdYXRLXA95vNHjr4eW4WgRmSzOgUwDnhFEL/A+fv2G6ht7kRgae04J0hYVbJo8eLwJ+IM+FxtO977FI3FeBtdmw/WOe6xia6SyBLXxoB6X931I/Q3tGmmXrhmTve8ggHp3Cf1lVUhQRAVtGcEAlOdXLdu/Qbhb0PgHUSwMN1HP4KbHQPsQahyDgZi9CU8YwYHxJv4AR1gpFu2aqvxCIgyb9QQHIgX6Nm7j7ZnvyrPw0qT713/hbcnoXKLhDZRyrW9p557Sb2S9K3RYCCAdxevIt5rVmogvMu5QRuDNUDUE//zXuqP1WvEMWncMWwR4AUl02cIjjaujL2nhHLDG5zT1WkMdkL83IID0Rlsy9gBxDlT/zwnjsODTT9qgiOJqBu2ZBntqJjSYD5y/YZQITPPSeUMrTG/7opnJMKyJCoM8QyMYhg9sjyJaGQ/wgpCJaMzypA5q466FrnRaiTMe/KQGZl67pTgoGLS+Y1SN+dVjV1B5bOUlqhnDAOGHiHFKA1wEwcFBy5YPECt27S/YdqBVSoICdzuQaiENEii6wGvSFBwYMBoCMxj4rr20CFh4KrXrC1XwgY0Gp279tA9AJgG8xA0ysgFN3TQFUpnzggJkQLMM3/8+Vfq5cEg8gxx5af96jt9Rgl1BLixERyM8IPiiviBZm40xJLf06fPymxnGDjf2nXxG+JIJ3rIIzERGGGmIiiD4Nw+694ZXVWtXksNhoc5b7xd850R9BDTgEGhDgTvGXgmWr+Lufr9xddaT4kHgqQIDuJxSjrji4cvCPWZPNO5HnbPjvl6ovBLO0Hj5+5pK9Q7ysF7foJglNTQuufHM+f33Xv2ijctuXDREhVUxB4kRXDs2rNbhTz1FO9QpNfAg4uf3xQqWlxHop6g4KA9kbe2HTqqx4n7JtEn4KnwbZL4kqDgQEx37dZTByt7nFH2YFQxQCx1B7wECC2mLE4FhEkkLEekLTKN5Y2rX6WCaMc748GoENdBe6fucP8Ic9pasI7hMWXpL8aSf2kDTCvRJpiGZMoQgc190C7qN2gcb8pHPaVOWHAsBsiDKx4vFHWdaSGmZKmHwYGFZ7YTXFyfARcCBIOG5xPPA+ek3LlHLxI9xKMgKG8laJR+Bs8F4oBlpZw32lJSBgLs8YGoJG6GWA4MNs8K7y/sVi9xIfU8UbYcw/PA4+KnTGkbeJ+YjqetUT+z58yrS06Jt4kW5+L5uQQH9QtvZtqvvtWl3tQLPDm58xaUtu06xAkujlvg7BgDLT+QvdukCMFBJaaAGAHQsWBwGFl99ElarRC4cgGXIiPtUaPHxlV2jDWekMxZc2pl10bqUhHXkTN67OXUeHAkGOTosaO63lmNnBMqjA6pMHRgEEvBwUiEkXXT5q20A2Rd9nBncJYtd2LBnWv+gkWqajF+XnDdiuCgwjJaDEJFpkFSeSGa4GgabghBwYHbk6kYlnLdjuDAVYlBCE5t4bHAnY1rGoa7PH35TXpt+HSy+gzdv8QAdO7a7YYOPIgXHES5BwUH7nmML+KNcsKjwtQLMQSR4DVAUOH+pgyY39UyCATKesGBofV7QVBvOW8e19EEBSueOowfo0LqEh0BZdLKdYCMzBHRBMYx90499/UoKYKDJXm0AUbhQTAirZ1RQ3TgYaLjpLMl1gmjAeTXx1vgZo9k6bIVUt0ZFg2o3H/QGcgGGutBnQ/CtRFoQcGBJzByVEX95155dkxL0cmOGDFKyzIaSREcfqknAY4YIAwIAacIBMrP3+vkKUkTHPQj1JGm7plzL4j8Vm3aqcj33qloJCY4tE27AYMHb0KLlm1UwPFcvODQOhuoY7RP6v4PWXNc78fc3/SHGMnFYWOGpwEvHJsPMsJnGpjpF+DeKHM+Y9dRD/FfGEuEPR4/+jnadGQQIvAZ37GxIW02KDguXbri+qTW6vWIBMGJF+WWVqm4+2dqlTgRPCQMGrEDwfgKQHDcbJWKn1IhcDshgoKDfp/ypc8hqPpm3CnBQf9A30RcT7R9Zbz9wJMICQmOH90zCAa+ctx+184Q25ExMHeLFCE4ULQ0xs+++OaGkWz/gUM0mAqlDX4lBIbYCw460XZOcNAZYVhuB1QmI9IPP/7cdWwV4kYdzNEjOIaEDTLcKcFBZ8ZUCQ155uw5asyYQ8XIYfzGug6VgEmikL06jxQcVDZGTYyegh1XQvtwJFVwMIIJni+pgqNTl+4qOIJTDgntwxEpOBCRZd2zDbr5k4IXHBgJHw8DQcFBB888d2lXdhtdfiIZ44xL+YpVtUP1gkPLICDiEhMcTC8scGXpCQoOoPNs2LiZfJb2a82Hh5gl5vLx9kBSBAcrRKiTLMsMwjRgPTfixaWPe52RNNNtuKF9udMhUUfxEvqNkIIw2i1drpKOfjHyCJO+/QfGG/XhtiV41AsOrZfu2UV6OIgNILYFwUEb51nwWeRqFg+f8z2CIyigg4LDi59lThxRxkxpsDEUU2JzA16mSMFBveqigriW7I3wCowdO0Gnk5i6wGAgGiKPiQRvUOmyFbVzjxQckftwJCQ4tM4G7pP+jdH71KnXY38Sg/JGdKRO85kG1HJ9roURpRyD+3AEBQd9J30BZcbAJpJ58xeq14FpqkgPBwK6tusraVvU/yAITmJVmCb1ZXIzeLZ+lcpVN3gkhoTAVYSFH/iBj+G4U6tU2DwxGFCeFO6U4MBDx0CSPjU4SPJgd5hGJlYQKIfrUyo3ivrkRooQHHgweJBqoAOVuJUbuWshhzuyaIIDMFYlSpXRChEJc6bRKj/XCZ4DJkycJFmy5VSDDfzL9WLh4QCuR0Nu7jojOhrmKclT167d1dtSzt07I0xPpODAvYqHgxUgjPI8P5fg6OJGkFVr1IwLpoWbCY5+Awbr3xgxOs/IqQKgTBLqwG4mOBhF0LGsXrtW733IsOGuAV+vYxi55m5Ehdg55oQBQch0BndCcNR0YhkI/MMrweg9GAPDCBej6AVaUgTHZGeMMCh0RlevXi+T9e43dLZMXVFWiG9ETlBwADE1zL8zeqJteOigeX6ce7cbnSOSWEnBPH8wP9xz9x49dZqL9kZnyHLW7Dnz3CCmqJu0gaw5cmkMFXno7541YmdNRHAp+cBDQxlTRsSR4Hb2BAUHsTRALAPtq1WbtjJy9Bg15j7GACIFB0aKAHK8h6xoC0K96d6ztxNXAzT2goFAMM4nGnh5MJTBkfFPFRx4RXhmfBdpMLlvxB3lHfS8MH1HX8F97dt3QEe4jIATEhxMG3AOpg/xrhEjFYxh4znwDPiOeyAfoRiOkOCgbuEh0P7PDZCC0A8zCkc0AGKF5+gHTNHwgoO2QBPnerTZj9zgj502vT2gbyzljLCKzoiy8dzKKpXIoNGkcKcEB/Uc7zOrxIIxQMD9ssJJPZ/h2C6eNzYvMmg0Ep4NsVhMMSVURrEmRQgO3IAsEUN10llTUXHr4mJnzs5PqRBgRYfFMs6gWKCjYf6PuWkaN7+ng2Gkhrs32LF6CFQj6ImRnu/wGK1QaZjWADpKDDwuPs6JixLBgesPJe8NK8YUo+pHjVwXg68GhtqYADQQpnLeePt9XUGhNdfB6hhGLWm/TqejDQ+dHB2vFyF0KHQ2BAeucQbVR2MTgImQwPgEQbDlypvfVd5Qh0DZ4JIdEn7fBIKjsTPSzKNGCg5iFzCgiQkOOhzOR0eBkafxrN+wSY05DSxo+BBFGG+W4AGBhazaweBt2bJFGyVljogjoJYOJxohL08DfUZBwbHDCQ5EHAaAeB+EBXEerM6Y7Qwj58dAjHNlSQdN/jDgCA6mU7QMIgQHnzOVEBQcdEIY22AMB3WYDprnAhgVzsfozNdv6tjX32XQAFAvXBF+zMv6KbRozHKiE08gWyhTzzgX+cEbRnyOry88y/oNm+i0Q7Dc6YgYPWZ17YrRri8H6haxTExfYZC4t5mzZqnXD8NIOXPcandN2iRLS/1InHZCR49R9e0PQ/xe6jS6pwbTFNRLlkljqPAm4vXg2gTMEgdDLALHYCwIzOXe/AoEjBIeFQJzveAgf9QNpg9YsYHnh/N5iHVhStUHkfp2q+d2nTbl4NumXnfESC0rjCsDAT5LDD+owGBTtygzyoepDkRDpOBo1ryVCgkvOPBMap0N1DEdbDihwFJsBhU8N8qSOsOeHAQj4wHFC0yd4R54zvwGbxTX2ecMqgoJN2gJCg7ibug7/Qo42gSeC54lq4R8PeBZUA9w13txg/eBuoxwBvpJ4pYaNW2m/Sx5ZOUKQdlvvv2eBo0CAySezfDhof4mGjxbVhdRx7z3CsFbplwl+eTzL/VeyQPtn/gi2qBfpeKTtwX0p2wVwGo3v0rFJy/SEBzYGgZWkdM2NwNRQRki+oNQVSiTHLnyxg06E4Py37hxo/bF9BMEFWv5u4R3g6kj6rovD+4Pm8e1mfZMCOwY0/LYFPr6n4MUITgoUB98h0Jmr4KGbnTFSMxHiwMihA4GAxkUHFQmRpp0/O9/9IkKFYJFq1avqQ2ThhMJD5fAKiKjNaLZHc9c6ZRp07QRAQb8xy7dda49ixupEXxEJDqdU5ZsueKC/fAkMBVDwA7gisTw4sJNTHDQYdD5smSUvfI9dLbcRy7XOQc3OMKNyxwvUwBayx24lrPlyqNr9hsTcX7seMhd6kYDjACDINiy5sztDFtIYKCuaex4aAAvCYFoeDKCHSH/jQeH8kxMcOzZs0+9Fq+leldHLUxf4OEgyJGlakHDhyhiioMpI6BzpJFg/D8P1wGeI/eBOAk+7yB0GnS2eB/ocD0IGOb1GVV61ylGDtHEuYl0Z2+K/AWLaofro9j5F3GgZRCeWgPqCwa8ZOnycUFtGD06msxZcsjcwEiF+BcCgBGd1D3ujSBN9ihgnxmuj2EiYBRD6j14uII5JjG3KcslmaZg10GCAAm2I4CQlQkIUYwZIELYV4BRYbDcgU6eeIqvXPnyPgrKIWfu/Hr9YNwKK5/6OzFN8DXxVKwKoPzw/mTPlU83fILLdIjOmBPkTb1lpQIdJs8OgedX4VDfZ82erZ/RzimLdN9nVgPh84iIZ2WZrkCoWFmfI+XNfiIYaC84gOdJf8BgIziNB+QN74w3frQWPDW58xXS+Xum/hixexDf7DtDHQ8+94RAZBBQi6hiVRcCAVHGc61bv7GKMA9iirbJ9DCCA+8P19c6G3Et6jBl9/lX3+i7Pki0WZ4N02TEIFC32MOEepTelTVCBgFE+VImxCawV0xQcMxfsFjLarjru3x/yLPGm0c7Y9ts6gEDqQEDh8TVA87Zpl17rcv+OXLveJVYyUVZIpDoH9g+gP8mMBWIg8ETxvLohGCQQLwdXo2gp2XlytW6/cHHTnQwkGHUzqDu9VTvaZ2l3pNvFgtQXtQflrZiQ9ibhL1R/DHUD+/tpbzx0FCH6StvBUQ0ZUgcVRC6YmJ5fsiaM+pUZTToz/CGIMgQ5aE+6RvdYp2t2Al693AsNo9rL1ma8MZilAGLDj53zySx1TaxJEUIDkCFUkEJrKMRMOLC8GKEfBQysRbsG49Hg84+EqKr6UipvFRCOoGEDBUqE2FAw+R4XLN0TpHihAhgKiueBAw5IwM6Kka2Pt6AhohB8V4B8rtg4UIVJAnLjRAYF4xWcJ8JGjTCB7V8wZWLh46LeXbcoR5ULW5g7oERq7rUnNFkusR7hjyMlMi3FzF0rHS0fn0952KqA2EXNFL8N8qbnSn9VsMJQSNq6UYrzP3TeeLyxeVOGflRBtBxRsvj0mXL1KVNHfD3FCybSOgQeYsuzzIYa4AHC6GyzNUfv6IJGKXhPiewj7qCixkx4dEycL+JLAO8W3xOeSE6gTpEJ8fIJ2ikqMt0PJSZr6ecl0BHRnKh+j0nXL9XqDgA8sZS08RGXhPdSJ4VIYgLhCdeExIjesrCw/W4B8o4WO4e3Pd4lzB6lAMdWrRyxmgxumKagNElUxW0CbxOjLg9lDcxKZwL9zj3xf4MDCQi43KmzZihx1AOiP6gWKC9Usa4zvEcEo+CYEQcU17B9kk546Xk3iPd43gY5s53bSWwFJsBBKuVqF94k4IrBGjbdOiImqRCOXTr0VM9AHh+KHPOg7D3wg9ok3xO2+BZcI+0ba2zgTrmQRAyWCAvJFzsjN6BZ0wbpv5SflybeubBE0BAK/1KsI/knPSd9F3Bz9m9lakkXw8GDxmqwslDeeM95RrB+kHZswsqeaBOI9oRDxg6n1eeAUvxI9t4ENpY6Nmujtf3ck3qB+XJcZQZZUGZUOd9P4+xv3Tpoh5D2RCAGjyG502dAo6hj1nh2vKtxnDQZihDPDCRIPToB5jquxW4NzyOlCPPgMEf/XQQnhc2j2tHW9Xiofwoa4RRcMB4N0kxgsMwjJvD6Ip5ZNzVxp2DWA9c2cQSGYZxe5jgMIxfEF5wML1m3BnwVDESJm4AT4BhGLeHCQ7D+AUxbgKxCaH3mBg/DVzQuJ4nTZqi7w8iXsUwjNvHBIdh/IKYNGWaLhVnnt74aRBbQlBxms/SaowWsRaGYdw+JjgM4xcEAaaszw++/8K4PQjA5M3MBBoGVwUYhnF7mOAwDMMwDCPmmOAwDMMwDCPmmOAwDMMwDCPmmOAwDMMwDCPmmOAwDMMwDCPmmOAwDMMwDCPmmOAwDMMwDCPmmOAwDMMwDCPmmOAwDMMwDCPmmOAwDMMwDCPmmOAwDMMwDCPmmOAwDMMwDCPmmOAwDMMwDCPmmOAwDMMwDCPmmOAwDMMwDCPmmOAwDMMwDCPmmOAwDMMwDCPmmOAwDMMwDCPmmOAwDMMwDCPmmOAwDMMwDCPmmOAwDMMwDCPmmOAwDMMwDCPmmOAwDMMwDCPmmOAwDMMwDCPmmOAwDMMwDCPmmOAwDMMwDCPmmOAwDMMwDCPmmOAwDMMwDCPmmOAwDMMwDCPmmOAwDMMwDCPmmOAwDMMwDCPmmOAwDMMwDCPmmOAwDMMwDCPmmOAwDMMwDCPmmOAwDMMwDCPmmOAwDMMwDCPmmOAwDMMwDCPmmOAwDMMwDCPmmOAwDMMwDCPm3JLgWLhyrly6dNmSJUuWLFmyZOmW0q59O27QFJoSEhwTZk2Q3fsOWbJkyZIlS5Ys3VJatmblDZpCU0KCY+6yWXLm3HlLlixZsmTJkqVbSlt2bblBU2iyGA7DMAzDMO4kFjRqGIZhGEbMMcFhGIZhGEbMMcFhGIZhGEbMMcFhGIZhGEbMMcFhGIZhGEbMMcFhGIZhGEbMMcFhGIZhGEbMMcFhGIZhGEbMMcFhGIZhGEbMMcFhGIZhGEbMMcFhGIZhGEbMMcFhGIZhGEbMMcFhGIZhGEbMMcFhGIZhGEbMMcFhGIZhGEbMMcFhGIZhGEbMMcFhGIZhGEbMMcFhGIZhJEuuXr0ia9ZtlJFjJ8rAYaNl4HBLySq5ZzJk5FiZPW+hnDh5MvzUEsYEh2EYhpHsuHT5ssxZsEgaNG8rBUtVkpyFSkvOwmUsJafknkmeYuWkYs2GMmDYKDly9Fj46UXHBIdhGIaRrLh27Zqs27hZqtdvKrmLlpUiZataSsYJQViwdGUZO3GqnD9/IfwU42OCwzAMw0hWXL58RXr2GyxFy1VTQ8a/lpJvKlymqhRyz6l2w5aybceu8FOMjwkOwzAMI1lx8eIladiineQtXj6qgbOU/FLhMlU0rVq7PvwU42OCwzAMw0hWIDjqNGml8QHRjJul5JcQG/lLVJAVa9aFn2J8THAYhmEYyQoER92mrU1wpKCE4ChQsqKsNMFhGIZhpBRMcKS8ZILDMAzDSHGY4Eh5yQSHYRiGkeIwwZHykgkOwzAMI8VhgiPlJRMchmEYRorDBEfKSyY4DMMwjBSHCY6Ul0xwGIZhGCkOExwpL5ngMAzDMFIcKVVw8F6R/CUqSt5i5e+5LdlNcBiGYRgpjuQqOEIvKqushvXGVEkNbvEKNaRirYZSrV5TKVO1rh4f7Ty/xGSCwzAMw0hxJEfB4d+MiqgoVbmWlK5cWxP/XbxiTf2ueoPmMmf+Itm9d5/07D9Et/ouEuVcv8RkgsMwDMNIcSRHwcE0SeU6jWXilJn6RtQdu3bLjp279b+Xr14r7br0kvrN28qa9RvlytUrMmTUOMlXvLwJjgAmOAzDMIxkRXITHLkKl5GGLTrI6nUb5NDhI7J0xSoZPWGKjJ00TV9WdvHiRZk0bZY0adNJlixfJWfOnpUBw0ab4IjABIdhGIaRrEhOgiO/M6LV6zdTQ3r+/AWZOG2mVKhRX7IXLCU5i5SRKnWbyOCRY6Vjt97SqGV7WbZy9Y2Co3xoOoZ7yemEi0+53G+JBylWvrpep7A7htfxRx5DfAjfc1yBUpVU/AS/J3/B/P5cyQSHYRiGkeJILoLDx2xMnTVXLly4KNNmzZMyVeuoUPDfY2gx+hjbmo1ayorVa+MER34nIAq4Ywu5Y5hu6dC1t/zYs5906t5XWnfsJmWq1AmtaAkLj1ru9+279JQfe/STjt37SMsOXaWqEzTkgePKVa8nbTv3lM69+rtj+kord44qdRpLodKVXT5+3gBVExyGYRhGiiM5CA4vJlq17yq79+yVw4ePSsdufUJeC/dd8DgEBUYfwRAUHHmKllUPRZPWHWXLth1y+swZOXzkqBw9fkJOnTojA4eOkmLuHIVKhwTJshWr5fSp03LIHXPi5ClNg0eMlRIVazrhUlFGjJnkPjstBw4eliNHj8nxEydlyozZGltCHn7O6RsTHIZhGEaKI7kIDkTEACcKTjkRsHb9RqnbpLUKiHjHuoTBjRQc2QuUlPrN2souJ1hOnT4t4yZNkwZOWLTv2lu2bt8pZ86clTETpjqx0U6mTJ8tp0+fkTnzF0s995teA4bK5q3bZMjIser96D94pJx0+Zg5d4GUq1ZPWrTvIus3bdG8jZs8Xcq6zwqWip+3u5VMcBiGYRgpjuQkOIaMHCcnTpySeQuXSOXajdQbEe9YlyIFR59Bw6VkpVoybeZcdz8XZd4i9/tajTQGA2Ew0AmSs2fPyaYt26T/kJGyZt0GFSD8N/EZnJcy4JrN2naSLU6gsNy2UcsOki5bAZ1i6TdklIqUje4cxJnkK1EhXt7uVjLBYRiGYaQ4kpPgYErj5MnTsmjpCt3QK6mCg304ajRoroLi4KEjGrvBMZwTwdGgeTvZsGmL7D9wUHr0HSJDR42Ty5evqKgYNmq8BpCmz1FQxUefgcN1+oS0eu0GWbJslSxduVq279yt5bXXnaNWwxb6m8i83a1kgsMwDMNIcSQnwYHHgWmLDRs363RItGmLhARHrYYtZfPWHbJ91x5p1razFC1fXY8jEQy62AmHI0ePajApAaFTZsyRXXv2yYXzF2X85OnSpfcAKVmxpvTsN0SOHz+pS3I5/9IVqzUtXLJcZs9fpF6Y8jXq/6zbqZvgMAzDMFIcyUZwOCNKoOj+g4c02LNd5x6So1Ap/c4fh6HNW6KCTmfUbNjiBsFRs0EL2bRlu+w7cFDjNryIQbTUadJaNwkj+LNrrwGSNX8Jvd/m7TrrOc6eO6/naftjD+nRd7Acdsexx0clpmWKlNWVMXg0yA+/49wEoAbv4W4mExyGYRhGiiO5CA6MKNMiC5YslyuXr8jUmXN0xQhLUHlJGwaWgM5KtRuphwIRsXxVSHD0HjhMP5u/aKnGarAxWNmqdSWvuyf20+jZb7AcO3Zctm3fKa06dJXSVepIqcq1JbcTEyUr1pLZcxfKxQsXZfL0WdJ7wFD1fBw4dFi9IXmKlZc8Rd15SlZSzwbn9ft5/FzJBIdhGIaR4kgOgsMnhEfzdl003uLsuXMyzwkIVpGUqFhDRQJbmq9YvU5XkzRp3UmWrVwj586f11UqOQqV1r00jh0/IUeduOg7aJiKg7pN2zjDvF739hgwbJTUbtRCZs1ZIOMmTZeiZaup8JjlBMdZJ1wmO6HSvO2PIdFz5aosWrZShU0RJ3qYwmFaBUHCe13wnkS7h7uRTHAYhmEYKY7kJDgwpCUq1NCA0RlOFBDYyRTL9p28T2WPCgmCQpn6YEqF1SaXL1+WwSPHSc7CpXVaplufQXLq9BlNO3fvkf0HDsnxE6dk9ISpusNonSatZMvW7XLp0iXZru9p2SMnTpzUlTEEl+K9aNaus6zfuEXPze9ZVrt33wF9l0ujVh00n8GpnrudTHAYhmEYKY7kJDhIGNMcBUvpEtVBw8foe1TYU4N3qYwaP1k69+yvS2BJ7bv2kr6Dh6sXhN/5N8Z26zNQRo6dpL8Z437vp1xYhVKhZgOdKhk+ZkLovBOn6XUQInoOZ8jJBxuIsZqF33Mc+ejgrle0PJuH/XzeDZIJDsMwDCPFkdwEBwkvA8GevL/Ev8vEJ/JJXAceBvbH8O9A4TckvstdtOwNvyFWA5EQ+r6K/i74vX9Pig8G5V8CU4PHkPjdz+nZ8MkEh2EYhpHiSI6CwyeMe2SKdkz8zyJ/e+P3oWOC30cXEUk55udIJjgMwzCMFEdyFhyWoicTHIZhGEaKwwRHyksmOAzDMIwUhwmOlJdMcBiGYRgpDhMcKS+Z4DAMwzBSHCY4Ul4ywWEYhmGkOBAc7EFhgiPlJAQHe46sMMFhGIZhpBQQHA1btPtZX7du6dYSgoO0au368FOMjwkOwzAMI1nB9uG83AxD9nO+ct1S0hIbm7GJWe2GLXWr9YQwwWEYhmEkK65duybrNmyS6vWb6g6doU2u4m96ZennTqFnwg6sBUtVlrETpsr58xfCTzE+JjgMwzCMZMely5dlzoJF0qB5WzVoOQuVjrett6WfOblnQpxNxZoN9a23R44eCz+96JjgMAzDMJIlV69ekTXrNsrIsRNl4LDRMnC4pWSV3DPhtfyz5y2UEydPhp9awpjgMAzDMAwj5pjgMAzDMAwj5pjgMAzDMAwj5pjgMAzDMAwj5pjgMAzDMAwj5pjgMAzDMAwj5pjgMAzDMAwj5pjgMAzDMAwj5tyS4LBkyZIlS5YsWbpjyQSHJUuWLFmyZCnmCcHxesaHx0f90pIlS5YsWbJk6U6kkOB4pGbULy1ZsmTJkiVLlu5Ienj4fe/lePD/OtHR4fUMj5yPfpAlS5YsWbJkydLtpoeHv/f1g7/5/wGV56NB2nz/ewAAAABJRU5ErkJggg==;clipPath=inset(5.28% 3.33% 78.14% 2.67% round 4%);fontFamily=Manrope;fontSource=https%3A%2F%2Ffonts.googleapis.com%2Fcss%3Ffamily%3DManrope;" vertex="1" parent="1">
          <mxGeometry x="10" y="10" width="527.93" height="61.77904255319149" as="geometry" />
        </mxCell>
        <mxCell id="3vIbY6viFx3dQWntIyNH-2" value="&lt;font data-font-src=&quot;https://fonts.googleapis.com/css?family=Manrope&quot; face=&quot;Manrope&quot; style=&quot;font-size: 14px;&quot;&gt;Hello Josephine!!! Your productivity score is &lt;b style=&quot;font-size: 14px;&quot;&gt;0.7. &lt;/b&gt;This is impressive. &lt;br style=&quot;font-size: 14px;&quot;&gt;You are still within the normal Productivity threshold. KEEP IT UP.&lt;/font&gt;" style="text;html=1;align=center;verticalAlign=middle;resizable=0;points=[];autosize=1;strokeColor=none;fillColor=none;fontSize=14;" vertex="1" parent="1">
          <mxGeometry x="48.96000000000001" y="150" width="450" height="50" as="geometry" />
        </mxCell>
        <mxCell id="3vIbY6viFx3dQWntIyNH-3" value="" style="shape=image;verticalLabelPosition=bottom;labelBackgroundColor=default;verticalAlign=top;aspect=fixed;imageAspect=0;image=data:image/png,iVBORw0KGgoAAAANSUhEUgAAAhwAAAFmCAYAAAAmr0NGAAAAAXNSR0IArs4c6QAAAARnQU1BAACxjwv8YQUAAAAJcEhZcwAAFxEAABcRAcom8z8AAJvGSURBVHhe7b0FmBxHlq7tf+/dvXfv7M4Ok8djjz1mZpBRtkwySxZYzMzMzMySxczMzMzMzMwM54/3VEUrVV3daskquds67zwxcldlZUZGRsT54sSJyPvgjfSPfPpGxkf6v5Hh4emWLFmyZMmSJUt3JGV8ePjrGR/OqWLjzQyPfOPEhliyZMmSJUuWLMUivZ7xkZr3oT6ifWnJkiVLlixZsnQn0usZHll/X8jlEf0AS5YsWbJkyZKln5wyPLLdBIclS5YsWbJkKbYpIcExYGw3Wbp2gSVLlixZsmTJ0i2lSXNH36ApNCUkOPiBYRiGYRjGrbLv0O4bNIUmExyGYRiGYdxJTHAYhmEYhhFzTHAYhmEYhhFzTHAYhmEYhhFzTHAYhmEYhhFzTHAYhmEYhhFzTHAYhmEYhhFzTHAYhmEYhhFzTHAYhmEYhhFzTHAYhmEYhhFzTHAYhmEYhhFzTHAYhmEYhhFzTHAYhmEYhhFzTHAYhmEYhhFz7qrg2H/yoKzdv1EW7Vguc7cusmTJkiVLliylgLRwxzJZs2+D7Dm+X65cuxq26rdGzAXHtWvX5OjZ4zJt4xypMqqBfNk+mzxX9wP5Z7VX5aGqr1iyZMmSJUuWknHCXj9b5z35rG1mKTestoxfO1UOnzkqV65eCVv6pBFzwYEqKjqwkrxUP408XO01ub/SC/LH8k/L78s+YcmSJUuWLFlKAemP5Z6Sv1V6XsXHC/U/lDx9SsuMTXPlmvtfUomp4Bi3Zop81ymX3F/5RflNmcfkD+WelL9UeFb+VvF5FR6WLFmyZMmSpeSfsNvY7z844YE9/2vF5+Sztj/IkGVjwhb/5sRMcMzYNE+nT36n6ujJqDdgyZIlS5YsWUp5SYVH6cflw1bfy9jVU+TqtZt7Ou644CBmY9PBrZKpawH5Y7mn5U/ln5a/R8msJUuWLFmyZCnlpj+HPR5p22WVFbvXONGReDDpHRcc5y9dkHoTWsmDVV/WjETLpCVLlixZsmQp5ac/lX9G/lrxeak4oq4cP3cirASic0cFB8Ejmw9tk1RNv1TPhsVqWLJkyZIlS7/chJ3/sxMdL9T7UJbsXKmzHAlxRwXHmYtnpcvcPvJQ1VdVcETLnCVLlixZsmTpl5MIJiWItNnUjnLi3KmwIojPHRUce0/sl/x9y2oGmNuJzJQlS5YsWbJk6ZeVEBuIjh+6FdZZjoS4o4Jj/YHN8n6Lb/XizOlEy5glS5YsWbJk6ZeT2J/jLxWek1cbfioLti8NK4L43FHBsXz3Gnm8Ziqdz7nfBIclS5YsWbL0i09ecDxQ5SWZumFWWBHE544KjsU7V8jfK7+oUavRMmXJkiVLlixZ+uUlplR+X+5JmbB2WlgRxOfOCo4dK/TCFjBqyZIlS5Ys3TtJBUfZJ0xwWLJkyZIlS5Zil0xwWLJkyZIlS5ZinkxwWLJkyZIlS5ZinkxwWLJkyZIlS5ZinkxwWLL0C0+8ifm/S/1Lfu0Sq8P+XunFqMclx8RePaH8PyL/U/pRzX+042Kd2Jr5j67PIt3O6xj+XOEZfW8UHW607y1ZuheSCQ5Llm4zsa7cvwkRo0hDup6elD+qgXku6m/vZnq69rvyeqPPdMOdR2u8meiGe7TLG+8jeD9P64Z90X4Xi0T5/qPKy/JMnfc0/y83+FjzH+3YWCbumbw8XO01l16P+zvasdESxz/o7uNfLu9sCXA3y9CSpeSUTHBYsnQbiVGuNxwYxQerviIPBdKDVV7RzzEwkb+9WwkxRD6bTG4vO47ultX71kuOnsXlN6UfjXo8iTwH7yPuflx6oPJLer7bGeHfTkLgvFj/I2k1vYvsPr5PdyfM0bOY5jEWr0VARPBM6RRJ/j7pq15s8JGUHlpDygytKc/WeT9UDkkQHZzvH1VekkxdC0jNMU0lbbss+rn/PYKUa5kIsXQvJBMclizdRqL+8gLCrN2LSPf5A2XqhtkyZ8simbt1kczeslAmrZshP87uI191yK6j27/8DAbFC47eCwdr27t09bIUH1RFpycijyV/HFtnXHPNP8nfD/9OWj9TWkzrJO82/ybOSEae404nPEevNfpUBi0brfk/cuaYy3/lmAkOjD7X/G2Zx+V3rlPkPtkRmZ2Rq45uKDuP7ZEdR3ZpGf2r+hs6vRLtPD79Nezd+qpDDq0fB04dltGrJslHrTKox4jr8S/X+0O5J2/Ja2LJUkpMJjgsWbqFhFGm7r7S8GOpO7aFrNizNlyz43PmwlmpMbqxPFbjrZ+lvnvB0XlOH7ly9YocPXtcCvWvoLEc0Y7FAI5ePSmc+/icPH9K+i0eJh+2TK+/ifWoHOP/SsNPpFdYMOGlKdS//J0XHK6M+PeZOu9L7l4lpcXUTlJrbDN5q8kXWlZ4NDrN6a15gD6LhsgTToSQv3jnCiQ6VzxcOXuVkP0nD+pvtx7aIel/zCP/r/hD8lKDNFJ2aC1pOa2zlBxcTadsYiGkLFlKLskEhyVLSUze5f5Erbel/vhWcvj0Ua3TJ86ddA1ourSf1UPazewuPecP1HcGHXMGvpUzJsQg3Mw4xSLdjuAYsGSE3tOFSxdk8vqZ0nxqR+m7aKhsOhh6u+O5i+ek6eT2WgZ/LB/be7pbgsPHtHzW9geZsj70jofNh7Y7YZBX/qvkw/JPJwQydMknHWb11OebuVshnWa6mZeHsuffN5uklRpjmkiP+QOk4vB68kqDj+X/Fn9QvuuUW7Yf2aXXo6wp09//DPXEkqW7lUxwWLKUxERjIeXvU1Y2Htyq9fnAyUPSdkY3df3/V6lHNGG4s3Qr7D7vKgX7lZfHa76lrnkEC/X+N6Uf01UjTG2QEAC/K/N4PAOGwSKO4X+iHR92+QeP5/e45/me4/6zxEPyP6UelU6ze8nVq1eTKDhG6n0dOX1M8vctK/cV/JO+bKnyyPr6e5ixaZ686u73V84Y/7p0aPUL+eHaXPc3ZR6LuxcCZ1ldEi3/kR6SyPz/R7EH5Gkn1nosGKTXDQoOrhE67l+h6QhXVj4gM5gP/Ty8Kofzc11/fp+X/y4Zyk/a9lllZdhjtWz3avmodUb5t8J/1fNzrv9d5H7530Xvd/f8qHaa/Ms5mBYJXSd0H6yk4bwkzotwQmD8W5G/yf9zz4Tj7yv8F0n3Yx45feGMXm/oinF6jv/jjqO89Pfu3+CqIr4nL/7clK1Nw1hKSYk2aILDkqUkJJY2Ih6Grhgr19z/zl+6IG2md5Hn66bWzh+jTfLGlmBBAi35b4wFAoHR8gv1PtRVF280TuvS57p6BMPKcd4IM+rmv1kVQeBkvONrv6vHcU4Mnf7rDC7eFMQAx+Ed4Frd5vWXS1cu3ZLgOHrmuBQeUFENJKP8d5p9LSt2r9Hv1u3fJG81/UINIXlBbHFdpiTIJ/klvoXyeqR6OP8uP9fz/4k8WesdvS7X9J4jyopzcD6OY8ohTesM0nvhEL0ugqOgExzExDzmngPHcb2nar+jv+UceB58+b5Q/8O4QFfuj/Kh3Lg+5yc/HMfzI4/c74YDm/Va69y/+fuW0/sir6yOIT8chyfi2brk8zP9Pd/rddx9cC3umbJ/vdHn8ny91Po3x7PKhvMRE/Kw+6z0kOpy5uJZvd7kDbN0qup5l/fQbz9z/36sz5/69DdXVuSfa3PfXNvft4kOSyklmeCwZCkJiYbygOvws/YoIhsPbdG6PG/rYvmyfba4Eb0GGbp/Q3suhIIBdRSqYuNZNZJFB1SSaRvnqvHcd+KApo2HtkrfxcPkkzaZQsc6w8nI9ilnHFkVMXvzAtnpjt8bPn7DgS3S0436MVB4Tjj3n8s/636fUc+z+dA2PW7n0T0yfeMcmblpno6kERG3IjiKDqysx/5XSde2nYFeunOlfrfh4BZ5q0layde3rKzeu142ueuRn0FLR8m+kwdl4rrpKhQwlhWG19Fy2n1sn+aJe1jvjHnH2b3kvebf6jXJP8b0yw45pL+7/tbDO/W4Xcf36rkmr5up191+dJfk61NajXWNMU11modAzjrjWqjxxdvwTrNvZMTKCbqqZczqyfq5eo8qPqvPqpfL5wYnmPYe36/X2OauNW3jbBm2fKz+BmEGF92/TJmt2rtOqo5uJMUGVXHX2+r+Xi/1xrfUaaU1+zbob5pN6aBCgbdgUpbEgfAd5yZwOFPXgnF5Ynqq1JAaWlZHzxyTq9eu6vXOXTrv8rPf9Y8rZfaWBa4Mdqi3JXvPYurhoh5xL3XGN9fpHkRfmSE15V813tC6Evk8LVlKjom2boLDkqWbJOor3onaY5vpagkMRec5fXV0/LuyfsXBEzpdEky4zzF2/3Qj/rJOPPipGPDGBjA4NML3W3ynLnVdGTGqYdwcP1y5diX8XyJnL55TI/auM7D/u+jf1QMxZNloPY+HuI3L7jfHz52Uy1cvy6FTR25ZcODdwJB/0CKdrHdGDhbtWK6ejYoj6qlhBowlcR+w0QmiLN2LSK2xzdVweq4E7pcAVOJFOC8j9I9afy+jnUA4fzl0DsCLdPbSOTl29oT+vf3ITsnrBAceg3Yze+hn0Gl2b/Ug4I1hBciK3aFpEYz+M3Xe1ftN3zmPChfKzUOZwMFTh50oWqTP9fKVUBlfuHzR3dtF2ePuq/6EVlJzbFP9/PKVyxrLUcU9GwQL8NtP2mZy1/+nPFf3AyemeurnF9y9NJ3cQbL3KKZCBWZvXijVRzeW8WumOXFzRcvkmktcj2e30Ym5hduXubyF8tFmRlf1rvAMXm/8mcZ6AM8SIYMn7OdYAWXJ0u0kExyWLCUhUV8ZsTee1E6DRC85w9NoUlt1cSMscIGzsqHH/IHhNEBTeTfC5xiWxy4JewgOnT4iXeb2lTy9S6kImbdtiX6OAOGcXO/bTrncKHajfo5noN2M7s7YlnGj4+q6HwVg7NnbAXFSZWT9OGO6bNcqFQMF+5XT6RTiTADDeisxHBjK/6/wX3S1Rpvp3eTU+dPOOF6TgUtHqoEvO6y2egGID+HaeEAon/z9yup9e7HByL7hxDY6Wid4cqnLH5w8d0rzTbnWn9DanSM0vbDEjfJZ3UP59FgwUI658oag4Gg+tZNekzJrPb2LTlX8quQ/JXXL9DJ362I9foEz3HiJWCXUa+EgzSfM3DRfKgyvqzEqLBMmziazM97kwQu8LS7vDd2z+L5zXvU8ITjOOfFDnhtNbCepmn4lY9dM0WPxxPzQrZDGu6RumU5mbJ6nny/dtVIFFcti/bOftmGuu1Yh9e6Qb6ZUnOTQZ1p0YCW9XtWRDWXLoe16PEGsaVpndM/sEa0TWw/t0PsYs2qSTtcQIxL5LC1ZSq7JBIclS0lIXnBgOI+fPanGHgNFTAcj62875tJpkkjmuNEvc/JVRjZwo9hLKlT6LhqmI+F/L3q/EyuPSu7eJeN+O2fLQvm0TWYVLxh3Rr0Il6dqveOOf0CDNJmm8KPrsaunqIgY5EQA7HfiAs8Ihuj/FPuHvFj/Qz2Gcx0+czTJggNj3n/xCM33qFUT5eT5UHAj0xhsvsUUSCX33aHwSh2mcUoNrq7TSP+o+rKujEEMkH+mTx6p/obcV+jPundFJSeGjoe9FuQ7tTPKk8OrQxBHxQdV0ykExA4en6kb5+h3iIFbERzzty9xn7+vzwZvB+BpQEjhRcIjwW/+s/hDOi32ebssKtZgKUGjrTLIffn/oN6puuNbquBAdDWY0EandZpMbqceGLwT1UY1cvf+hGTpXli9IngoWELMhmmc14usWU7spOG8eX6tAuLE+ZNObogMWT5WO2PqBKtYxq2ZqsczvUQAMs+GOkF5Iga5HuVws71ALFlKTskEhyVLSUhecLAcFhc/0xttpnfVPRo0dqDp19J+Zg+ZsmGWbpR1+kJotD5x3QwNNGzkhArgESg1uIauQMCIEOtB0CEbQwEGvdjAKvLj7NC+D7uP7ZUSg6qqAWauns2k3m72lczaEmpni3euUK8I14Ul7u9vOuYMn/spjfHoOKvnLS+LjYTpBeI1qjpDRyzL75xxrTa6sU5DwAAnTgiKxIATXIlIgV0u/xm65NfzE+NCWX3ZPvt1A7x5geRxImK5M/CwYNtSnSbiOGIiKLvuTnABouxWBMe8bYtV2FF+eIkAj88L7px/KBvaaMsHlN5f+QVJ1zlP3CoV9lf5qmMOFZN4kOqMbxEnOBpPbKvblGfvUdQJrdAU2eBlo+WT1pmk9timusEa+26UG1rLCY6XNXbE3y/eFQQlYgpxwtQSgmOkKy9ifH7rhA9isd6Elk7MnFcPCF6w1xp+JmNWhTwqLLn+zJ2D50WKfJaWLCXXZILDkqUkJAJBGa2WGlxNpwhg0voZbgT+rTOOIQPOck2WsRJguXZfaDpk0rqZajQbO1EAe48fkML9K2ogIMYOwcGGT8Rj4IXYdmSnBhUy5QIEHhbsV0EFB8YFAcFKDG/QMWRsXe69AOohaZtZjSltjMSy2FsVHBjyg6cOaXDiwu1LdbSOgQzdY+glZAgOYj2AwE2M+G/KPOpG6J9owCYwQn/PlRH3y3XwLDBFMHPzfP0eD1D+fuXiDP20DXMkVZMv1ZODYELEEJAKQcHRYuqPcYKDvU6ervOuigM8Il5w8C/TDuWG1ZZDpw9rTAgxEUyz8Jz8vfsVPuk7571BcHzthNuvSvwznuBoMqm9emxea/hpXMe5ZNdKqT66kQoPYIfW1C4vPIevnXCJFBwst2WX2qDg4Dp0xjyzH7oV1oBV6OrqQoG+5WT9/s0qdActG6WetZ9jbxdLln5KMsFhyVISEuKA9FGr73XkDMREsJSSjp/6zHTCvxf9u7rxvbHwgoOpGDjmDDSbP3Esv6HxsYyTrcQBg0dMwY9z+ujfjMzLO4OJd4MAVIQPgmLhjmX6/Sz3O9z908KCg4BOPBwICEbKiAhvsPFGJHVKhWmjas6APlnrbXmpfhr1ICA2yEfIWxEWHOG9OaqMaqABptwXImHUqtCOpeQ/V+9S7tyIq6fUc8H+E6v3hqY48AARt8C+FzDfiYQPnKHmOGJj2DSL6QZIyMPBu1aerP2O7mHB6hhv3L3gYKUPzwrY5p0pLjw03APJi4/vO+eLExzL96yRLzpkl/9b7B/yaI23bhAcBILi7WI6g5gVdpTFozFsxVh3H2tUFHSbP0D3L+F5MXVyM8GB4GS7dDwcBBnjmemzaKj+Bo8ZnhmCf/efOigVR9bTpcF/cueOfI6WLCXnZILDkqUkJgwthoYR9UlneAADX8SJDlzsfkUHRo/RKLCqgCkGRtmnzp9RTwPv02BVCdtb0wDZ3prYC2DH0neafyOVRtbX2ACWabJkk6DUX5V4WP5Q/iknMFrE7XI6cOkIHf16jwfv6wjFE7D51b/kqw7ZZNHO5frdraxSIU6AqQ7iLvBKcD68KxyLRyBScBA3otMgThQhuIjbYBqG/BML8qwzoGyaxf4cDTRA9Jwri6vOMPfX/TDYTAwOunJgCoSVF/9R9AEVAd5b5GM48AjhUTl+LhQH0n/JCBUWXLvcsFpxZYMwJLg1Q+f8cSts+De3E0C/KxPazIv7wvuCIGLqZ3VYKLLShZ1H7yv0F33mkYID0fM/7vfkh/gV9mTZfHCbK49jGsOByEGcIR4SEhzZuheVUxdC9Wj4ivHyj8ovCZupqQhy/SMijiDV/ScOyqo96zT+hymoVE2/1Gf110q2/4allJVMcFiylMSEUWK/i7ebfq0GwsNqDPZVYCUJ79zgxW2IC8BzgUFlGmHR9pDhP3XhjK5wqOuMJi7+DeGlsqx+YfUEW4Z/44zUmrChxbAOXzFO939gNM9+EHDkzHEpMbiqGnFWf2D0YO3eDfo+kCaT2uoUywk3ioaDt7EsNtqxiQkOvmMaAS+GX2nBMew/wUqPrnP7xa0EYZ+QAv3K6bJP4mH8slqMPbu34hWavnFu3OesUsnXp4xOKbFiZ4f7PbAXR7d5/fQ3bE7ml7sSNMreFY9Wf/OG2BTiXih3lru2nt5Z6oxtrgLwPSf0mD4C9sgY6MqC+8rWo5hUH9PYiaSzcYIDbwQC5133uwnrpul02EUnELk2e4fgmaGuUBbRBMf/Kvw33SLdx8BsObTD5ambLpnF44XwQAAt37VaV6UQLHrepS5z+oU8TRWs/7SU8pIJDkuWbiEhOhgVf942ixox4hwSAjd7sykddRdRdoRkFYffrTOSPcf3OTHRWY0NUwnEGZQfVidu6iESjG2jSe3Uc/C/ityvho+lkkwxBMETcyCcR/Z8KDG4mvx3yfhvi/WCg70wAAPKKD3asV5w1HMGm7gIwOuCh4cdMYlLYbTO8k6/c2ckiBECcJk64Deft/1Bp1e4bpAjZ45q2QDCi2WsTFW81OBj6bd4uHpQgmDAWY0DeDOerv2e5otpJjxLXpQFYVM1jPsj1V6X9jO7O+Fw/ZysRkLIsELEg7BEJCE42E2W6Z0gBLEy3eE35Pq+Sz7drAuWOQHxRbus6r35oGU63WE0CAHJiFNW0DxR823dHt/vdbLLCavSg2vI/ZVf1PKPfC6WLCX3ZILDkqVbTMRy0GjYrptVCWOdkZ69daG68ElMDwxbPk6NFFtQI1JwkeOGz9WzhPR3hpLdJOdvWyLzty5xQmGyLj9FmOgL0Sq+oP8+Uu0NndYgEBFPCccTlzBy5UTd5+Kxmql0F02EAtuMf9spp8Yo+HNP2TBbmjvBwwvYiCUZ7xo5UxQIpsh78q+nJx6EgEeOzdi1QNRjuR+uiZeB4ziePTOIP0A83O9G9cQuPFz1NSkysJIMWTZG802eKB+8Q7wdlW3GOU49Ae58mdz1WDI8d8siPZaVOw0mtlZPENcYtnyMxnsQ4Ek8CMGYrGDxx49dM1UFXtuZXfV4vClP1CIQ80n5XdnH1ZAz1TNzc7jsXcKDgkBg5Q/3hvAhXoLfk1cEWOH+FXTpMvlhiqzEoGq6LBZBQT54yRubrvEbYjHwiHBfXhR82Cq9y+dA/b7DzB7qIfuNK1etD71K6m/4jvwgYqlX5JcgWGKE/NQRS4dZwUPZ86yCz8SSpZSQTHBYsnQbiU4fw8sS0QervKJu/mAiqI/vNNjUHU/ieH6LSzx03Kua+D1GNGhIcMXzd/TjX45/fNRzv6KeFRLXYJUNeeK4hJL/fejY0HtgEkp6Xr1W9GPJH+95Ib8+73H5dwKJ8uA+OfZm+dc8uXvw+Y92vM8zXofQ8S/rMSRfVv676/l5Rc/hX5AWeU7+vSEP4b/9seSf34buMZRHno3/nsTf/nu9VuD76+UTvgf3e8QKQpI+kikWpnLwzCAcvXcpeH5LllJKMsFhydJtJowY9Zj9ImhE19OTOq3Ad15kkDBOTF0wKr7h+PCx3ojeeHzovSzxj38m3vE05hvP/aR6Vkj8N+lmxkrvJ/zbmx3LvYTO+4T+t39bqk+af/UC3Jh//ubzpObf54nfBfOU4P2GP+NfL2hIPC//XeRv+E7P6f4NnlPzihcm7l5Df/tz6m80H6F7jMwjiXP7c/rlzZQVIjRUH0K/9W+WZU8QPD5p22VRLxUQkJq3d2m9ts+rJUspLdE2qOsmOCxZsmTpZ0z+nSjlhtbWjdQIbiVYVFfzzO2nwa8mNiyl5GSCw5IlS5aSQfL7arAM2sOL3YiBeb/5dxpPE/TYWLKU0pIJDkuWLFlKBsl7L1gqzMZhPRcM1D1LeCEcG5VFHm/JUkpLJjgsWbJkKRkldj7Fm8HGZMR1+OW1liyl9GSCw5IlS5aSUcLTQTApiQ46MrjWkqWUmkxwWLJkyZIlS5Zinu6+4Ni5Qtehm5vQkiVLlixZuneSCo5yT949wbF89xp9DbO+CMpchZYsWbJkydIvPrHCio3reDXB1Igt/YPcUcGx/sBmeb/FtzpPGdwUyZIlS5YsWbL0y0xecLza8FNZEH5JYjTuqODYe2K/5O9bVjNAUFRkpixZsmTJkiVLv6yEk4EpFd6SvOnQtrAiiM8dFRxnLp6VLnP76HsDLHDUkiVLlixZ+uUnxAaio9nUjnLi3KmwIojPHRUcvM56s1M3qZp+qYLDlnxZsmTJkiVLv9yEnSdu84V6H8qSnSvl2rVrYUUQnzsqOIA3H9Yb31LfnKgvK4qSQUuWLFmyZMlSyk+sSsW7UWF4HTl+9kRYCUTnjgsO1M2mg1slU9cCuqseno7IN01asmTJkiVLllJ2Cr0R+SlJ2y6rrNi9Rq5euxpWAtG544LDM2PTPPmyfTbdvpfXPkfLrCVLlixZsmQp5SWExm9KPy4ftvpexq6e4sRGwlMpnpgJDiAT33bKqZnj3QF/KPekBpdYbIclS5YsWbKUchJ2G/uN0OB9QEyjfNomswxeNjps8W9OTAUHLNyxTIoOrCQv1U8jD1d7TTP+x/JP6xaolixZsmTJkqXkn/7ohAb7bfyz2qvyQv0PJU+f0jJj01xdLJJUYi44iOk4eva4TNs4R6qMaqDTLM/V/UAz/VDVVyxZsmTJkiVLyThhr5+t85581jazlBtWW8avnSqHzxyVK1evhC190oi54Aiy78QBWbNvgyzcvlRmb1loyZIlS5YsWUoBiR1EV+9dL3uO75MrNwkOTYi7KjgMwzAMw7g3McFhGIZhGEbMMcFhGIZhGEbMMcFhGIZhGEbMMcFhGIZhGEbMMcFhGIZhGEbMMcFhGIZhGEbMMcFhGIZhGEbMMcFhGIZhGEbMMcFhGIZhGEbMMcFhGIZhGEbMMcFhGIZhGEbMMcFhGIZhGEbMMcFhGIZhGEbMMcFhGIZhGEbMMcFhGIZhGEbMMcFhGIZhGEbMMcFhGIZhGEbMuSXBMXX+ZDl45JglS5YsWbJkydItpdUb19ygKTSZ4LBkyZIlS5Ys3cl0S4LDplQMwzAMw7gdLIbDMAzDMIyYY4LDMAzDMIyYY4LDMAzDMIyYY4LDMAzDMIyYY4LDMAzDMIyYY4LDMAzDMIyYY4LDMAzDMIyYY4LDMAzDMIyYY4LDMAzDMIyYY4LDMAzDMIyYY4LDMAzDMIyYY4LDMAzDMIyYY4LDMAzDMIyYY4LDMAzDMIyYY4LDMAzDMIyYY4LDMAzDMIyYY4LDMAzDMIyYY4LDMAzDMIyYY4LDMAzDMIyYY4LDMAzDMIyYY4LDMAzDMIyYY4LDMAzDMIyYY4LDMAzDMIyYY4LDMIxkx9lz52TlqtWyZOkyOXrsWPjTn58LFy/IiZMn5dq1a+FPbp3TZ87o/f0cXLhwQc6cOStXr14Nf2IYdw8THPcIZ8+elX379snevfv0v6NBJ3r06DHZtXu3HD9+XK7+hE7VMH4KmzZvka+/yyDvvP+RTJ4yLfzpz8up06dlwqTJ0vHHLrJ+w8bbMtr79x+QPv0GSP+Bg7Qt3k1OnTolI0ePkS7dusuGjRt/kmiKxsWLF+Xw4SOyZ89e2bN3r+tLjsrly5fD3yYOZXnixEnZvWePJj1HRPLfcd4rV66Ef2mkJExw3CPMnbdAfsiWU97/8BPp3bd/1Aa7b99+KVOuorz3QRrp2q2nnDt/PvyNkVzBaNBZ32nj8XOzYeMm+eiTL+SlV9+U8RMmhz+9e0Qr0+XLV0rGLNldnt6Qps1byenTZ8LfJJ2hw0fIe6k/ljffeV+Gjxwd/vQ6/nnGgmXLV8gnab+Sh/71hHTo1FnO38H2ferUaXdvIyVn3vzy1jsfyDvvfSSFi5aQSZOnyMVLl8JHJczx4yekddv28vpb78prb70jb779/vXkyirVe6kl1bup5a13P5DqtWrLkSNHw780UhImOO4Rdu7cJbnzFZRf/eYP+u+u3bvC34Sgoxs/cZK88kYqTePGT7RRRDKHkd7Y8ROcgOwn23fsCH/6y2Djps2S9qvv1OBMmjw1/GnsOXrsuLaDHr16y44dO8Ofhli9Zq18930mefzp550g76HTE7fKmLHj5UUnolK996FMnzkz/GlI4Gzdtl0GDBrshMgoNeB3GvKf5rO08tjTz0nffgPuWPs+cuSING7aXN51A5W/PfiI/Oevfyf/5fqZfzz8mHzx9XfSb+DAm5YVnpEKlavJf/zqf+Tf//PX8n//+7dx6f/9+vfymz/8VX77x7/K7/58vxQoXFQOu2saKQ8THPcQQ4YOl+dffl1eT/WejB03PvxpCKZQKlSuKo8+9axUrV5LjZmRfEEgzl+wUDJkzirZc+WR1avXhL/5ZfBzCA7KdNGSpZI+YxbJkj2XrIooU6ZUZs2eKyNGjZY9e/aEP701Dh485ETHOJkybbq2Oc+5c+ekd5/+8vHnX0qN2nXlmBM+dxryP23GTBk3YaLs3XdnpnOYRuk/YJC8+ubbThT8Rb51guzHLl2lfqMm+ux+96e/yZffpJPFi5fE8xgFOX/+gsbr9Ozd16U+0qtP33Dqp94Yptf+8JcH5OXX3nJir7te10h5mOC4h9i1a7eODhh5VKtZR86cue4SXrhosaRO86m6QyffxRGlcftMnz5TXnzlDcmcJbvGBvySIIbj5/BwzJk3X55+4RXJ8EO2O2aUk0rLlm3k0SeflQbOWKcUduzcKVly5Ja/P/QvFR3Dho/QzxE3VarVkD/97UF5/OkXpGWrtrcdKEu8SeasOeT3f75fcuUpIFtc3TBSJiY47iGuXb0mvdwI4slnXpDPv/xWFrvRHBCr0bJ1O3nquZc0huPAgRuNF8FtzP/OnjNX5s5fIGvXrbthdOY5efKULF+xUpYtWx7PJXzp8mXZvGWLLFq8+IZgOebBV6xcpYLnmDvnmbNnZc3adbLCnYe/k8LJkyddntbLPJe3OXPnycrVq9XlyojqypWr6hrHG7Bz16548+O4gxlZcU9+Tpvf0ZHOdcZny9atcvHSRQ1ao7yYmrp06ZIGxZFnYg1wFx84eFC/5/hgoBwrGtasWetGxnO0/DaGjw/C8Vu3bZOFCxdpXrn+4cOHNV9z5s2TdevX3xDoe/LUKVnqyrhZi1bywstvyGdffC39+g+U2e7et2zd5s6XsKv8tDMErP5YtHipG0Uf0/Lw5UPifhhtBiE/xPcscPkjWFLv19UR8rfZdf4XAqNNfRbu+flnQT53796T6OiW+XjqAOWzZNkyzRfTC199+/0NgoNzUO7zFyzScuY5BDl+4oTWU84VbUqCKQREN8+J58Hz2+7u/cKFi1ouy91vW7VtL884wUGsQ19XpjNmztJ6SzlRP9at3+DKbomKEZ4b9YT8rHefR8ZE8Ju9mt+FWqf5nvLRNuKu5dvQfleW06ZPl+Ily8oTrm0WKFRUJk6arOVNvcPbQ1luc2USWX8pVvLCNTZucnUrkZE/XhTysdC1Qa4ZfCZ8x7Pnuc2YNVvLiADNyDIOwu+nTJ2mHtM//u0fkt/le6t7Lv67fgMG6P08/NhTUrBIMX12twr1vl6DRvLIY0/Lcy+9Kl2795Srrk0bKRMTHPcYGAyCR5989kVp16GTdmB0NOkyZpE3XMcxeszYuI4Iw4LAKFO2grz+1nuu0T8ljz31nHbGrdq0jdcBLly0RD5zQiZ1ms+0Qw3C3Hi5ipXlpdfelM5du4U/FXVbM8/7wsuvy6AhQ3W+94M0n8qHH38uU6dNDx8VHQwIHX7bdh3l07Rf69w6nVvqTz5zHVMPueAM59mz53TE+JS73ybNW2rHGoQYiLff/1Cy5czjDG8oDgJD0qhJM/nno09KidLl1DgVLVnKdXiv6bkwkKxUePHVNyRfwSKaT9zgTzz7grvHSroaADC0bTt0dPeXTo0Ygu77TFlk+IiRujTRg4GtUauOPO861AqVqqhxadKshRrbB//1uHz+1bcydNjwOKGy1JUtnz306BMaAMg9k5gOq16zjgq/hEDIfZs+k7zx9nsqUubMnS+Fi5V0+XtZ/vXEM5IuQ2YN/gueAwHTrUcv7fBz5skvM50RruxGr3gCSrrywXgBwqV12w7yqRNAGBrORwBgiVJl9TqRQou6s9kZqIaNm2pMA+X91ruppal7TpOdIcMVT5CgFxwYv06du2o5VqpaI17gIILlo0/Tut+lj1f/GHGz2qVQkRLqFaLcnnr+JSnu8kabWOVEKgIHw/bgI49reT7y+NPy1wf+qfeKC5+6litvAXnB/Z46zDkJrubvjJmzxpvWQlBwb+S3dLkKTqQdlPmuPX30SVp5/6NPZPqMWXpc/4GDNU/c/0P/ejJ87afklTfflu49+0jVGrU1L6XKlpeDhw7pbzznzp3XukL9qlazdqJLiDdv2So/ZM0hz738WjhwPNR2EefEdHzv7oE6/bTLL57O2nXruzq8W4+JBs+zS7ce8szzL6vgqFm7ngp4DyLq3dRp5IF/PipffPOdlvGtgpDC0/Xr3/1Z2ygDCyPlYoLjHoNOu0PHH+WJp1+QvAUKy6bNm6VHz97aaRYvWUZHNYDoGOYM4yfOkD/25LPOGL4WnnJJrW5fDHipMuXdiH2zHg/z5i90HczHGmnuvSeeI0ePSbGSpVWwtHNG2MNo76NPPlcDwPUZreOepVO+2XLIJW70nLdAIRVPiA0MNMsoCcorWbqsdvgIjhquI6TTq9ewcTzBwXw8nWz6jD84AbVNP0Nw1KnXQI1NWieGijiD/OiTz6gRrdegsQa4tWnXISS+Pv/KjeyKaAdNvhFV7LOA2KhYuVpcgGA+V9bpndh41hkGguv6DRgkl8NBeyxFrlSlmhqcTz7/Ut3HGFuE21PPvSh/vv9BFRgYYWCUmitfQTXmGHWOeeeDjySNM7bNW7RONOBw6dLlKs4wgkVLlNJ8feCug8jjPOSBVQEDBg2JEwgIjo4/dtX7/dA9l+LuORILxNQcdeDAoYOyffsOV06lND9POwPEPWJUETL87vMvv5HxEyZp2XoYuZdwz4nfUKfeduVEPt50ZZkzTz69P1ZVBQUH5a7XdSKY5xAEbwR5T53m8xvqH/Wgvavzb7u6gTHHK/SBy9vzzvASM4E3AdGRN38hrUMc86QTjxhL6hMCiGsjsDNlya75bdO+g3oTWP1FfcfosuQ0CPeXyT3Lx5wQ7Nqjp3qOEK8Ie6YfJk8NCepRo8eqxxHR8bATPC+88rrL36fyTboMMmbMePnRiazHnnxOPv7sS/XKBMHjRrwJdbO7E4WJBYKSH875sBMzCEigrrZr31FX3nBdREehIsXl8y++0bqBtyoh8AoRLMq1/+QEB6tMgu0LD9h332fWdoSox2N4KzAF07hpM3nymRe1zNu6fFrsRsrGBMc9CG5uRnN0AnQSjNJfT/Wujmx9h7XEddiMxhlZFS1RWjtzRnCMHHFr8luMcKcu3XSUBQsWLpY0rlPE2HCNIHg4GOUxSu7UuUv4U1H3/lffplfB8eobqXQ0SVAbSxATG60xhVG2fGW5/8FH1Gj06ddf87Zy5SoZPWacG8H1VRc7noS69RupQWvkOsdIwTF67Dgd7eP12b59u36GUWzYuIk87gzlw489KRl/yKaiDEGFCx4Rg3eIe3nokSd05UI3VyaMsBlFkm+8LhgQAjqnOMPC6Ji4hFZt2qvBI9hz9ZrQiBiDWKNW3bCxfkmquRHtzFmzVYzxTPAoIWYYQdLJ42be5IwHXhaC6BAnBCIydYMLPjGjQ7mSX0QMI0cMMa57nsOkyZPVeCHOEHJMzwDn45mTN8QDHhs8Ddwv98SzwO2NEEjz2RcqVpjWYEQ7YeJkyZU3vwqZ/AWL6tQR4H3q5PLP5xjsbs4g85vQPY+Q7Lnzad3D0xUUHAQQkofylarG83BgzBE5nzlj6esfv8FrR31FSFSuWl2nnqjLTB/0cSP9qdNnaL1AfHOfeLIQmqNcPcIDR5kiwJnGyZ4rr3oTeP6UC9N+BQoX0/vA00Dd8BBjg8ihTLzHhaBTlsWSHy84CNBmmqZCxaoqnouXKqPPhKk06gbPjKBJrsuKJJcZ/R15mj5jpi4X5Xu8V4nBs6Le4dkhOBN47l+7vgCx2bJ1Gz2GaSeexVQncJlKSwgEX8Uq1bVtUZ8ok6AXi3vOkDmbfodnc5orZ+89TQob3GAGjxsrU6jjiDsjZWOC4x4Eg9XMjYQZiTIifOn1t6RQ0RLa0QCdRqs27eRfrsOnwRMTEeS8+x5X8cPu+xzOMHjDdLuCg84dY5A1Ry6dI78ZdFqTp0xVr8LLr6fSqZjIuW3cxKz/J0akzm0IDqZOuH8MOsYwiB9pP/viK2og2nfsfENHu3rNavk2fUb1OuASDoL3IUv23PK0G/kPHDxEP0MY4Q4nj9+k+9519tcNB7Ev9Rs2ln888ph6pPbtv24AZsyYpaPlrC7ve3YnbdUExou8/ckZgdLlKsqhCC/BmHHjdc+DN12ZsMkVULaMiBEA3G+LVm1vGGlyj6k//ky/Y4VBpE1hyund99NoWY4eG1odhUckhzPeCE28RsHyA1ZU4eF4x9Wl2xMcIQPPqhC8MExVMP3DpnZBqA8H3DEephCpU3gmfHvwEMtxXXB0VMHB5ngdOv2o954nXyGdVgLup6PLK22sdNkK6sWCmTNnXxccN3jwrkmbth303NS9oGE+c/aM1KxTT8u/YuWqcVN2XINRP/UQj9zJEyf184SIJjhmzZkT9gq+IcOcuA1yzT33oEcqkv0HDmodQij/+f6HNC/BOBb6AAYtf3R1DRFHm02q4KBs+zvh+rIbhPz+z3/XlXORz9tIeZjguEdhBIUbl8bMdAqdzZVwsCHGukjxkvKgG7ESyxCt08Hjwejtw08+15E/3K7g8HP+vfv0dddKeHTuoaNt2bqt6+Rf0OmO/QEjHMlPERyM9HPmyqdu6yAYWwQHxgFBFjmvPH7CRA2kIx6hQaOmOt+PR4BEvjGK/3j4UWe4W+vxCI6qNWqp0WJq5djxGz07eG+eDcdP7AoIC/ZKwTuQ6YdssmHDxvCniYPgYLSI9wVPQiR73Yg2W86QUdXRtAMbwcj/kSee1qmdoCi8evWaGq9nX3xVjUu0fBw6dEgKFi7mnsEzKhgwOnhH3vvwYzW+jNIjQcTiSXkjEDR6K4KDAFBYsWKVTuewt8yEiZP0s4RQIetG9S85YcTUQqT4jSY4gPgU4oaY/pnhBAUQIFm4WAktlwEDh8QJYtpNNMGBiGjarKUKlFpOXBBcGoT9O15zzxrPpK9vBF/nKxTyTuLFQbQkRjTBsXPnTs3nA66t42ns2KmLen6CnpqEOHj4sD6HkIfjIfWWBYXjMlfX8A7++e8PqXikbJIqOOiDEIihKbDXZaATH0n9rZF8McFxj0KDJlDxwUeekExZcsjWrSFjC7iQMcDMPfuOKRI6PeaUGcXPnDVHPyNo1AsOXONBjh0/IWUrVNJ583iCI+1X6tId5TrNSE9FNAhoxCPAyKq+Gx2fTiRmISg4GjdrEW8lAUGjeHmiCQ6ma9gtMdKwITiYiiI+gU3UGK176BQHu9E5Iu5fzkBjQDBQPmGAmCt/xxmc1u3a629OBARHRSc4jkTsgTJk2HA1mAQs7nbPxnN7gmOFTqW874w90zaRHDp0WAoWKa759J4d+nmCAwmKzZozt+wICDAEYtsOP6oIIPj04MGD4W+uw6oanTJyI/TmLVuroQ5tMve2BnhG82p5wRFcpRIUHLjyvdfAg4ghBgTB4acXWHFBWX+a9ktdAZMYtyo4vBA/SJkVLa71oWvXHlpgCHqm+j5zYocVUJ7bFRzbXB3j+b/25jsaK0JeETrETBFXwvTLzYgUHN6AT5s+U3LkyaeG/f4H/6WxQJQzK4USa4/HT4SmApl6ZNoEr2hQqDBN9PV332s7IjYpchCSGPz240+/kD/+9R+aZ++xMlI2JjjuUTCazKHTeZerWEWDOj3M29KxPv7M89Krd5/wpzeCUGB+ncA65qUBD8dHrpNAcBAwFgTBUbJMOe2UExIcdKR+1JgYTEv4mAci6b2LORoIjtr1GqrgaNikWXwPx5hxGsCXkOAggC4yODEoOPA6bA1PKQGdOHEXBItiVOo3aiqdunSVjj921k6cxMZIGHD2fADm6XEZIzjYfA0xGGTw0GHy8utvJSg42IeD5bZJwQuO99xzw/hFss2VQcYs2TSolJUMgF3ygiNLjlxq/DwIjg6uHuGhYloOb0YkCMRKTiAgOPDw8IwnTp7iyv0d+eKbdFFXHkTb+AvBwSiaZ1m2QmU5GsXDgdckKDhmORFCHcWIRgYyRxIUHOzDQSBpkEjBQX6A++G5ItIquBE/+eJ9Ka86QVW5ag1dGu1JiuCIVqfVq+bq3MuvpdJYEeI+CCZF2DZt2iLRNuCJFBx+lQrg2SLolO8RxPQLrNCibnthEgltiXbAMnuEASukgm2FmCBdafXI4xob5ON3bgb3yoZfCCA2+yKuizghI+VjguMehc5So99dx4KRCwqOE04cIEKYM65dt0E8Iw24cHHxsqTVj1wQHB9//pUawfHOGAbBC4B7leV+wWWxQcHBipGkCA6i/Zu3bKMGOmuO3ImO7oMejnLOSDGC92gZdOmm98nKkOCy2KDgCP4GEhMcwIiR6RSmmwh0w83Mb/iXlQ38SxyNdz+zLLZq9Zq3LTjwcBBEmhRCUyrp1VANGjw0/Ol1QqPmNOp9CMZweMHxQ/acNwgOIIaGoEBWQPA8I2FKiufEFFiPXiEBO3fePPVGsDJl4qQp+lkQduLEe8b3QcHBtBRxHxh+PHFBKCdiEYgJiptSWblKp+ww5KwMunQp/vSgN6hBwYGHg+XiQSIFR/AdIazAYFURq50IFiXwF2/EiJGjbzDYSRUcBAdHwvGI/FyuziGuihYvpau5uJ67SPiohElMcAB1FA8Vm3e97ervE08/L/36D4gTVpHQVseOm6Bl/se/PqBtYf2GkFeIOtO9Zy/18tH28EgdOXK9j+G3tLNoYoagawQ4fRNB25272s6ivxRMcNyj0ICDHo7DgdEinUFXN9p5xo3YUrsOjmWDQTB6LGf856NPqYH0ewOwXDND5uzaUTVu0kwuXrjeSfR1Hdcrr6dy13v2JwuOa9euypSpU+Wd99PI408/pyO/4LQKK1NYscGyuosXL0nbdp3k6edelq/caJpNyTysSsCVzOoKPBx3SnAwMs6cJacaJnZY9Kt4PCdPnVR3vZ8SYKXD7QgOOnsEh7qrlyY+evcgOL5Ln0n3TWBpaXCHUrbT9lNVjEj9CB8vRmKCgyDXr53YQAgQ8xN8Fhedge/pRAYvYWO1xrx5oXgfjDf7KhAnU8Xde3AaCYPD8mLm7zHiXnBgnBA3eN4IGPZTecAImBghDN8332WIE8HsfcFmdpyLqYfIlRw7d+2+YeoEwfE8y1KdGIr0iCQmOKgjhYuW1OBZniXxLN+kz+hEy41iODHBgeeCtsPy8OB+Fh7yiheJKUAEDdM1TH9FxhglRKTgQBQgdoNtHxAGBDb/9YGHpU279okae0QZQch/+8cj8uqbqWTg4MH6+T5Xr/CQ/P4vf1cBR4yYj89aunSZlHd9Dnmnb4kUNH6/EOoTsVCsdDJ+GZjguEdJTHDAJtfoWS7Ly5gwFCx77Nylmxpa4hYwSuxBQRzAlfA8LwaUPS/+9o+HNfKdyHlczdWdEcNwM3ImWJEpBc/tCA4IbZZVV921jNYxKu07dJL2HTtJ+UpVdJRIp42RYoMllg6GVnoUkvadfnSde0ud4mFvjOecsGKFjI/F+KmCA+9Fj5591CXM/bKDZPsOP+qIr2WbtmpoK1WtHmcobldwELNAwCtLcwmeZZUASw+jeaQ8CI5032fWLadxdzNKbtOuo3oOylWopEG97CmBJ8Kf52aCg/tlqgMxyXPUZ+H+7ti5i95nqnc/UCNNzIqfXuDc5BchwFQE4oe6wrJh9lBh9RPPBcPvBQcwVYehZZkwAoLjeRaVq9VUTw+jaZZ5esFB3lklg7eJwEiCfDHsXdyoua6r06wgCe6fgaeCMiVfhYoU0ykgyhSjyJRAQoID403AJVM6iInUH3+qK0somyAJCQ5ii3gGiN/X3nxbpyfwvq1asyauTbBiqZurQ9R39s3As8BvkhLgCUHBwXtKaBvs60E+W7Ruo+UwctQYqVe/sa7UYVpw1E2mOc+dP+fqdW8VaX/469/ds/latzRHTDAtRxsqW75SXGwPz51VV4iJ//rNH3XJPULKQ55mz52rdZN+hE3qgoMEI2VjguMeBaPZynWmjAg12O9Q/BEV0eqFipVQA/TbP/5N/vL3hzQhNpgeYcOioHGjs+A3GX/Iqh3Nf//uTyFh8gU7k7bTUTMdObuUejAMjNj++sBDOnpNquAA3Lc1a9dV9//v/nS//MGNphgxswQPsePntRkxN2zSVDvF//rtH3V0j7eFETEvmaJjJPp/ixNZgOBgpP+f//1byZYjt46Sg1B2jZo013tMl+GHqNMZeA6atWytBogyZmOkB53goTwIAGWFit+gi/l4dpGkbNmMK3I3SVapMBWFOAp2zsTalHL38MA/H9M3apKf0E6jCS+PRHDgAcDjkztfAcnuxM+Lr7ypo9nf/flv8kaqd3XJc3Abaow24uDPf39Qvvw2nRuBxp+LZ7lpy1Zt1JASQIig+csD/9Q8Mepn86zIF57hMaCcERa8xRgDQ9wDwopVMWyYRt0bM25C+BehANuuPXqqoP317/+sz5xNyEqVqSAN3bNkNM00THCDLDa3Gjh4qGRw5ffAQ4/qm0f//tAjKlq+cwYtuCHVnj37NA4D4fKr//m9vqEU9z7ign04MIAEVjZt0fIGwQHz5i2Qj504v+9//6eWAxudRcLSUIToMy++olNiHgQLef7qu+/1nn7t2g7CJrJNLF+5Ul8uR31iVQzBla7ZJQk8Vkwv/dWVM2IGiCNiF1AEAEKGusAmemk+/cIJxA4a23EzEORNm7fQANbf/ulvct99/65vfWV6iF2Kg9NsCLDEBAfCjtcvsOrl3//fryWPG9z4DfmMlI8JjnsUjCpxGGxM1dGNkk4ksB02+wowiuI9CbiJGXmy0oBXXTuJETooAOelA2ekjigpVLS4buSFEWUqJU/+gjJ6LEv4QjBqZDtv5qV5bwgd761w+MhhXTJHx8XoDWPV0okbplSC5+J9E9wHI1Q2I2rhjCOvdOctlhh5Ngfzy2vp4Nn2m/vluOPHT+jnHu4RFzEGmymEfQm85IsyHTlqtAY4MhqnPNi3gFFk0GWOMGLjMLwlGIJgkCHgReKleyzrjdw3g9VAjFDJKxtsDR02IlEXOLENxHAwgmU1zerVa3VDMfLHjqmMfCPd+cz1s5qH6Se8ArjLo0HcAdM8ZdyIlnvlnOy2yoqU4IsCgyBsCKjNkTuvClICewkYZcknK3eKFC8lS5bcGICMgGTDLjbcypglm24rz+idKb0y5Su6uldNp8uCUFMXLlokLFPGw5TJ/Y5pG/YdCZY3xhsDSewScT0/ZMsRF+vCHij8Hg/fiFGjtB4EYTUTO73iEeSZBN8Z5CGmhOWebO61ZOmNI3f2t0GkFCtZRusyxy1esiT8bQjaER484o6Ysjh0+EbvW2LgHatVp77WE4J2gW3pWf7MNalDGV3b4JmNc8/7Vl62xoqVIa7u0Q4RRLlc28DLFU0s8DxpE/QpLFW+dOl6faXu8iZr+hniYfCesGzc+GVgguMeBoNMp3kzrwJ7LXAcow9SUkQB5+TYYKfsrxf8PV4RPov8/Fbw57hZ/oLHBY/hM/LL9x6+57iEyobvo/0uGr4sSPwmGhzjzxfJza6FIPDnT+jePV5wMJodMjS0D4fPH9dI6F5u936j3U8k/tyRx/PfCeWJz6L9hs8S+g1wLZ83tpZP6LjgPfgy5Vifp4TKme+JGwrmKYjPd2J5xKOk+YtyDK8eYN8MvHgsW05MXEai146Sf1/+nIvkt9y/Vfy9+bwnVEbgyzFaGfA7po+CZW/8MjDBYRj3EEHBMWjwsPCnRkqBGBDiWj7/6rt4e90YRnLHBIdh3EOY4Ei5sLqJTcEILiZ2KdrSWcNIzpjgMIx7CBMcKQumFNjLhVVOrPZg1RM7mC5cfONbYw0jJWCCwzDuIQiSZVnmg/96Qnr3Ce0kaiRfEBwNGzfTlTG//9P98tGnaWXAoMG6gZxhpDRMcBjGPcTmzVukSrWauseKf9GYkXwhqHL4yFG6aoO9VlhKS1CqYaRETHAYxj2EX0lws1UERvJBV22EV34YRkrGBIdhGIZhGDHHBIdhGIZhGDHHBIdhGIZhGDHHBIdhGIZhGDHHBIdhGIZhGDHHBIdhGIZhGDHHBIdhGIZhGDHHBIdhGIZhGDHHBIdhGIZhGDHHBIdhGIZhGDHHBIdhGIZhGDHHBIdhGIZhGDHHBIdhGIZhGDHHBIdhGIZhGDHHBIdhGIZhGDHHBIdhGIZhGDHHBIdhGIZhGDHHBIdhGIZhGDHHBIdhGIZhGDHHBIdhGIZhGDHHBIdhGIZhGDHHBIdhGIZhGDHHBIdhGIZhGDHHBIdhGIZhGDHHBIdhGIZhGDHHBIdhGIZhGDHHBIdhGIZhGDHHBIdhGIZhGDHHBIdhGIZhGDHHBIdhGIZhGDHHBIdhGIZhGDHHBIdhGIZhGDHHBIdhGIZhGDHHBIdhGIZhGDHHBIdhGIZhGDHHBIdhGIZhGDHHBIdhGIZhGDHHBIdhGIZhGDHHBIdhGIZhGDHHBIdhGIZhGDHHBIdhGIZhGDHHBIdhGIZhGDEnRQuOa9euyZUrV+Tq1atR/07OpKS83iv8HM+Ea12+fEWvnRSs3kSH8rhXyiWpdcAfR7pd4so1ifUzkjuRh5SGL7Oktul7iRQtOI4cPSqdu3STgYOH6N8HDx2S3n36ychRo+XChQv6WXJl3/790rN3Hxk1ZqxcvHgp/Knxc7Jr9x5p1qKVzJ4z7650FlxjyrTpUq1mbVm3fkP408TZt2+/dOjUWfoPGCSnTp0Kf2rMmTdfmrdsJXPmzg9/8svl0OHD0qdvPxk+YpScO3cu/Gl8qCudu3SXXr37yunTZ8Kf3hozZ85y5dpaFixaHP7k1jjk+uRu3XtJtx695Pjxk+FPf9lMnDxFmrdqI8uWrwh/YnjujuBwHevkKVNlhBMCJ07Er3QXLlyUiZOmyOLFS+T8+fPhT2/O7j17pGjxUlK7bn39e/uOHVKxclVp2qKlnD17Vj/7qWAUVq1aLX37DZD9+w+EP/3pbNq8RcpVrCwtXMU8dy76PXMPdKBTp81wijk0muGzceMnynJXmS9evKifnTp9Wma4jmHW7LkUdVQWL10qffsPiGrYUOOzZ89RoXbkyJHwp/cea9etl8xZsku/gYPvykiZuoV4eOXNt2X6jFnhTxNnw4ZNkiVHbilXobIaHiNE73795atv00mvvv3Dn9wee/fuk8ZNm7t+pJpUrlpD2/3JkwkbykuXLsmUqdOlXsPGUrlaDanuxKNPVavXkuq16jhx0N8Z2+PhXyQM9a9G7bpSpFhJKVaitPZlPOdiJUtL/sJFpXa9BrJm7VrZs3ev5q1Rk+aJis4NGzZK7nwF3bnKuHZ9LPzprdGtew9XrundoG5Y+JNbY+v27VKgUDEpUKS46z8Phj/9ZdO6bQf5+rsMOpiMBTt37ZaBg4a4Pn+266fid/j08UOGDtP6lNy4a4KjVp162oj27Nkb/vA6p06ddqO8Oq5y90y0cUeyd98+qVCpqjRp1kL/3rlrl4qPdh06Jqr8bwUe6OAhwyTTD9lk1eo14U9/Olu3bdfOBYNz/nx0b8zRo0dd5W0v9Ro0dh3bZf3syJGj2hn27TdQzpwJjVr2HzignU/zlm0SFByz58yV7zNnUYET6d7EM8Q5O3T68Z4WHBs2bpJ8BQrL0OEj77jgOHrsmIqKzU5oehAci5cslU5duqpYTgqHDx9x+Rshk9woCvHJOVa7ernIifUTJ06Ej7r3WOkGBf0GDJQV7t/bBY9AFScafvuHv8p99/2b3Pdv/yHPv/y6tO/QSQc30Th79pwa///+7Z/cb+5zv/k/mv7tP34l//nfv5X/+f1fnPH5XnYk4fkGBUe+gkXkhVfekPc+/FgKOLERFBx4R+vWb6h9w2k32EgI6gqDPAYot9sfLlu+XMt1zdp14U9ujWNOaI0eM05Gjx13216WlMaChYvVA7nR9SexYMfOXVKmXEWtI4cO3TjooD9o3/FHVyer39uCA4NYoVIVbdSRUBHrN2yio4lbcRPfLcExctQYyeNGCnfyASZVcPzYpZsKCS84jh495sRbfadgh8d5cRAMdD7tO3ZOUHDgOapbv5EUL1VWNm3aHP5UdDpn3ISJUrFKddmydWv403uTzVu2xkxwbN22TfK4cw8bNiL8yZ2DOkSdiCbmjaRx8tRJaduuozz06JMqMr7PlEU+//JbefCRx/Xv/gMHa2ceCd7ZgYOGSp78hSR9xh8kc9Yc8kO2nPJt+kzy1HMvyT8ffUJKlSmnUwu3wsWLF9SodPyxi1y+Emr7HsRPHSc+aPPJferYiA14T7LmzOMGHlNv6KvWrFsnVarXipl35ady1wRHyE1ZNUHB0aBR03iCgwZOQ2VUSKKhBQv3VgQHRnmjM7RMZWzfsVNOh70DN8MLjryuQwkKDqYzyA/Gm8R0SzQjddLdz7btO/S6JO6H+8LVGCk4Ll++LLt379Fz8d+4YaMJjtp1G9yy4IC1bpRSyQmLrt17hj8JTe2UKV9JFbkvM/7d6VQ031FmjKiC4CFh5HI2oowvXrqkefZlS3kw6j7j8snx25zIOnDwYDwPC/hjEUZ0ori2N27aJNtd2eEBC8L3eAy4f4wsz9N7e+DEyZOyxYkH8r9l6zY55o6NBnnVurXF1S1X7oziChQqGic4yOfJk6fijSJ5NniauK+gEeJz3N2ck2tTHylL7n3SlCmS8Yfs0qpNOy2H42FvxDl3v8ePn9DfBqEsEKWcZ6u7B0arXOuy5umkO+95FYtcr2adelKidDn1elBu1Dl9PuH6EYRy4r79dFw08JhRJlybOh75nM+cORuXN0Qa9S+Yf6YZdu3afb1sabcRFZNzkE/yw/c73DOkLDzUE82Dq3+088jyiYTfUi7B+yLfPH9fD3hm0eoeLF22TD7+7Et5+LGn1JNAGeE1wTvxp/sf1DImv9GgrpA/7pt2ynOZNmOWfPhJWkn1XmoZN35CgtdNCOpcqTLldbQaWf6UFx6Odh06ycGDh7TsKCfqcFCAkCfyHFkPGBWH2sdmfU7BthMJ9Zdy5d48XGPHzp36fBmkRD7/INw3fTrX8G2F/+b+mAqm/eIJCNoF8ke94plFDkCp97Rv8kO+/POljgT7X/6b3zKFTxumDQX7HvoZpiYoN8qC/iQIeSVPvh3QzoLT/YmVAeXNtckj90msYTBvwN+HjxzRvHmow/R3XI8BSmIeS/qDdu07SbUatbVeA3lq3LSFs6VNZNfu3foZ16H/9vfB+emng/A8KFOC1z3cv/bbx47HPXvqAvdF/07ZRPa7SeGuCo5KVappA4nkvKtEeEAiBQcdc6Wq1eSd9z+Udz74SLLlyK0uaF9xkyo4KPzS5SrIq2+8LW+/96F8+W166d6z9w2NMyESEhy4sHPnLSBvpHpXXncJ99byFSvD34ZASCECPv/qW73uK+761WrW0kpIXmuGBYevqLNmz5H0GX7QSkSF4mHeScFB5WvtDB7zwjwH/lbvjbu39eHYDhokQbjfZcikeX7tzXckvzPCNCxf7nheGjVupuo62JEyZ9zYPYuhw4br3zT2lu56nbt1l9btOsgXX38n9V1jiDZtdswZ3VZt2kvPXn1kypRpOv32yhup1AjQ6fpnRZ6pA+UqIJIGSsEixSTDD9niggVpfBj191J/rPlP/fFnek3KKMiBAwf1HlK9m1reTZ1GcucrIP36D9KywA0NGpTs8j5gUCgo2UPHjngeM2ZcnIEjX7NmzZGcufNrfX3z7fclXYbMMnvuPOnbv7+Olh998ll58dU3tBwGDx2mvxk3YZK2i21OgHp47i1btZE0n32h98C94J2iPtFJ0lZ4bnSixA08/8rr8uyLr8pLr72p4nHM2PFa7v0HDrzBEPD8CKpmWg3BEA0+L16qjJbJW++klizZc2kMkYe8EYRI3rTsPkijbRSjB9zTlKnTdPqONst5srp2u9C1F77zjB03QZo0bym9XH6Y48+YJZsaeNjtjFCZ8hX1t2+8/Z7kKVBIFixcFFf/ojFx0mTtaKkbwHMZNGSoTkmQzw/SfCr1GzaOVw88k6ZM1SmMp559UUaNvj46rNegkfz9oX/JD1lzxrWRm0G9r+7a8DMvvOIGFfWcuLz1YEmMTUknItu276iGOQiCg3uh3xs8eKiWNf3QN+kyyPgJE8NHhWLamrdqLf1cv+rrwV5nKBh0UKfefOcD9eSMDNxvJGPGjpOGjZvKipWhvo1nOH7iJPk63fdazynXiq7+MkCJBgKY9tjT1RnfVoaPHCXNW7SSrt16SNESpVy5vy45cufTZ8ezr+X68A8++lTFGv0aRs9DeyI/EyZOdvWwn+sfQm0kW648smTpddtAH9O5a3f1/PVwff2nab/WqWnOxTHjJ0zQOvdGqvfkfVdH6jVsEic6rrn/rXd9GVNZ1MFU7vy0a9/H8HsCQylvyuD9jz6RCpVdGbg+HWjbBNpiL0aOHuP681pqq4LQdqtWrynDR4zUv4nRo9/54pt0er2PPk3ryq1toqJj5qzZ6nmnbQBTwgyYBg4KeeNIS5Yu1+k4354pB9pKsF8YMXKM9rH7Anmkv6Ufoe/cvGWbfkacYLPmraSLe26ly1aQDJmzypw58/S7pHIXp1Sa6fwoo7lIrrrCbupupF//gXGCA/VNx0ijYg4Stz/GsmDR4nEFjCcgIcHh1ejaNeu04RKgSVQ3HR1GjYrO+U+eTHzeO5rgwNAPHTZCvQI8FL4vXa6idpIoYcAo0wEWK1lG74vrIh66OAOG4vSCo1Pnrmq0EUX5CxXRirt02XJ94FS2Oyk4YP78BVpmo8eMdZ3ETqnlOkTmqBFoVMKOTgAVKlLcNdZummfujfiawsVKxnXmhw8f1jId7PIQFBwILoQdvwWedbmKVeSTtF9Ju46dVKBgVIKjJQ8dQYVK1Vwn+L7UcNfjmdPx0+HmcsKOcuJ3NCJiIRB5hYuW0M6LvxFQlGm9ho10DpzyIf94K3gujAg3bQrFT3Bsy9ZtNRhvhPs9I1BEEsKKzsMLDkZENDgaYxA6CwwxwYBeCA1zHUeBwsVcPW4pY935uH4b90zoFDZs3KiGHqFbtVpNDaDGGNB593N1CCHNMYDQxPNVonTZuHpDx9mlaw8VU4xS8GbQiXIsdYVpMsqIuoIQZsRGh17CfU499DCaKusESZ16DbUeRUJ7orNncDDKdZRjxo3XjnOsexZAfA/PI78T13369Xd5Gy9DXLnRjnwwcv+BiLaC0sYJTMqVxPfpM2ZRY8jzA+oO9YK8j3eia7rrzKgDiLmazkhgpGjz5KGBMzDESfh2H41BTiQXc0KJ4GegjPEQ9HBtnTIkyI5z7ggbhSDUYfL9yONPq5GbH7gOhhLh8NHHn+uzTAoEkTK4ecsZdFbP3A6JCQ7qZflKVVRMM8ol4J4YiZJlyrk2VCVOGOEh5Lg2bTto26Zvbej6YcQrfSFl29qJfJ4F/Vw0eM7UxXmu34BZs2dLWSf2ibfj2Q4ZOsL1vy21XkaDEXWlqtWlWYvWcW2F/hdBzqCBMqXt0U8igBAe1HvqCn1axszZXHsco78DPEefffGNfPXt99K7bz81njxf7rNI8ZKyMPzsuFeE1atu0NLOtV8EwspVq+SCEz30Q9iJHr16a/89xPXl/L6O6yP4HX0xQb+seqJcOT/tetr0mXruOXPnahl07d4jVAYu/5TB5s2hKWn6KgZ1a5ztmeiuRb8SNMz05Qx4sUlLwn0q/SzPjnhB+g+m6bAp2AsGPtHAjiC+WrRu4wZQB9RzTb597Agez0Kuj6QPI58873YdfpScefLrIMp7zrr36KMePD9oAOxnHydUi7rnsnptyO5NcELzQ1fncrpnRNucPmOm60tvLRD47ggOpxjpgD7+/EvtGDH2wcQDQdGinKiUdMR0EFQAXJse3LAUYBfXAWNsDx86nIDg6KTnQVE3adpCDSgds4dODyPyvVNoTDMkRjTBwXkj4x1Y3sjomAqPYZzhGkb23HlV7QbBSOCSYpqFvLJcbKMzNjSWos4A4tXxYCyYw6WxesGB0anpRMKQIdcFBx0QBpTKdDPBwW9oyCXLlNVluWVdw/ANhaBYYhjoxPxoBFasXKUeHJ4h5Uq+GNXQEQQFB79nxM15gZEe3pqMP2SLa1gJcdwZm+q16kpaN/onKNLDHDmNikbixRwBsIxcMYxBBrnRXvZceeMMpGeC65AzZ80eJyQQMtwPnU0QOoGv3AiDzhgQcs2cwaVeBqETpZzwBNGR416sULmqdqyIMQ+eLJ437HGj0qIlSt9wTeo59QMDjojhbzob6s2IkaG8enjGdAK4mqnzeAN9B97d1SG8HocC3kOMHtcLjsqZMsKbktD8Lsv4MrgR79ywcQGECfdHm5k6fYaWLx1RENziiEuETumy5aWGe46nA9NgCDwMSZ36DeLKY7i7v2/SZ1QR4KEu8ewZvQcFEb8hqBl38ZXAyCwII0WMBqLkiivHlq4TRiQHYRQeabwBI4OwIl7ju+8zqaH2IAhfeu0t9eRg3G4G9ZiBxF8e+KeOPqMJu6SQmOBgyqu8qwOU3/z5C8OfihvNLnP9Y3EVt0AfVaNWHRWi1FMCV4kxCdZBpivxmCTUb1DHqdt+sEFgeb6ChW/oH5iWSWi6iTJHxHIfvr5Sd9Nl/EE9UB6MOh7gXPkKxJUZ9b2Uq0/Ubf/ZzFlzJF2GH7S/RJx61q5bJ5lcG8fYc68E81atUUs9BT7vcOToEZcfN2ALe2E9DHDoE5a6MpzrRCJ91gonUDysCDvg6jF1tJPrk+nr6Zs8lIGf+qVPr1K9pvarGHEENP243/4AAYGIa+/6a8qRPp8BOYOUIIgdBqHB/AchLzOc0cem9nXCkL6ccsT+IASwLwxO8DJ5EBmIEjyh9CXQ1wk8RD334KHsB7r+lAHjuvWhwdDkqdPky2/S64D3dkl2goPC4maZR8Vlxe8wpqQGjZvJ5199F3aNHXOV8GiCguO8q9x0VFTMwYGK7Vm9Zq2rzBVUBQbnriJJaEoFVjpDzLUYwaHQs+fKp0qWkSSNHNXLPF00EBx0zKh8OigMGKPTIOoWdGXSyHW0vrLyGUIMhYpBAxoj5YSQuBY/jCQes+bMkUxZsmvn06f/APebkPuNzpXKxPRJEJ4H3hxGmQiepAoORqzcI88n2lRakCPuHmq4hsmxkWWGi56OFGOCUaZDYPnqNGcAPTR2PEHUG+IcgvA8MFiMaCgzjBxuTgRsEEY2iNNhw0NuzqQIDvIzy43S2EtjZnh0HQ06ROo5QtoTFBx0OohBpqTauc456EYOEhQcftqQOojrmPloD/WroWsviCv/jHiGGNaEp1O2STHXHukMI40r1+rRq6+O7KItbQeEGktBI6cWgY6QTnj16rX6N6PqkmXKu/YyV/8G6nGtuvXULYyY9O2ezphlhrhxL7i6GA0vOBiJIzh4NkwXYOiChika1Amu89C/ntA+Z/2G6yKNNsFUy6dpv1bv4M1YvnyldspPPvuidO3W84b2cSskJjgQeDxv6orvAwBRSqApzxiIb1DBETbCxEYwqi7o6jh9WjRPYySRgoMVJ1my5dLnsy6iP4xGNMGBZwIvHtMWnsVLlqnB9FMMQJ6ZGqS/p83BZCek8Yox2g5y5cplHaV7cYLgYKkyxwbF76rVq7VeUMfJE8+d/qBI8VLyXYbMMn78JPXWFS5WQvMzzRn0IDxPBBsezkauDGjXkXjBwRQzfSfbEVCGh8OxFnh58Ub5NjZ5yjTJW6CIejjow32e8JKk+fQL7f8S4sD+A1LWPXPqLXaBqWKgHbAkmynbSHiWeE/8FFFSBQdTaeQbcXa73PUplWgdKfNXGGeWX9Gx0dhQp6+8nkpV/NeuMEm4pJk3wthyHAGY0QQH3gsCcKjs5SpWvcEweWi0NExUZUKrRADBQaeN4FgTdi1h9Im34H7SZcgkX3ydTt2BdIrzFyxUg4wIwbgkFFRDXlm69F7qNPLqW++oyy8S1C+bUI1yjdx7OC5duqiusXkLFsQZHPLPPDsVAvFwM/AaIR4+TfuVzvsBjRsVjvcoMqKeM+KGxNjs379f74/fM/cb7FARcTS0GwSH61g6duyiQiUxEByMBHh2fhTsmedGcUwF0MlwPRoT8TMID8+BQwe1A+nkhF4klF2LVm3VvY6owMWKQIsEtzDGPyg42MCHDiQIoxaOw6OCUGP6gQ3DCLBNiEQFhxvFIAKOHnWjY9dpYgx85xxJUgUHRgqBQTA2AoEywJ0+YNBg7YyjQdkyRUW8AgOD3n37q3igLWHYmF5o2qxVgu2FOXW8EIzAI/FidP6CkMt70JBhKgKXLr3ueWSfBjo4XOZffpPuhnZPB0/HTT2Nhhccc+aGXNc8I6L16T+YQmB0hofMT+kEwfB279lL/v7PR+XDTz6XZQHB1KtPX11t8l36TLr8ODEoP+oYYuPb9BnUpX67JCY48EiwSoU6HOxfNFbNiTKMFnjBwYjci3CCl7PnzqdxNQhpjE80r4/HC46F4Y2/GDljnHguTFkwYCP+CJEXjYQEB95APKeeufMWaBvHCNMugOObunZFHeY8MMkZZ4TAzJk3Tm9RL9j/gme9Y9dObRsIAgZGGE8P90F/jYcUI8198G/ar75VY8ozoz7QtvFy4PWgzbAXkz8PgyfsGb9jdR9TWpSBz7cXHPSHQGwJ4oG/6dM5N/bB3xP2BbHz2ZffxOWJYGW8bfwuKIAjoc7RX7317gfqMfLVG1tAjJqPiwrCslrKcOq06fo3opq+ISjMuVcGBUHBwTQKbcz/7nZIXkGjrkOhomAQ6cAJIqTScfM+UcC+00goaNQLDkQFXoxorlAUM5UT13XQPRgJgoNjcI9inPmbYEGCGRn94komj8zV4aaa61Qj3hcaPfPsPiYlEh46QUPfusr1latcKFrcdncDBB4dY8HCxVyZhVQtDZYOqK3rxILBQ8AKg7FjJ+joiA6HuXwaAm5x38iABhXPw+EEB67DSBERiRccdI7H3H8HYYMb5uMJWvKCI1cegriuz4viFaHMCU6NBNcnnVb3nn20zrRwIwhGh8G8A4KD50x8DiA4OA5vVRCMGQKUEQB1kflRpn1WhUfv0WD/BAQHnY0nUnCwEyOjFESJFxORRBMcdOYIjqBnimdG/AAdBlMd1DfEkzcciYEg6ebqLqOr7zP+oJ4lOmEEB20moY3q2BuG0SjtMBKuS91YtDg0UkZwcB9L3MjWs3fvfqles46WP1Hzce3eta+EhIYnUnAARhChl7dAYR0Q0KdEW7HEufu5vuefjz6pwXU+7oJnS9Do/Q8SNJpD58bpemjT1KNQ274uYHBdM93wx7/9Qw0q93C7JEVwUN+DHo7EBEewj8NbSvkTyIw3JtJbECRScADlwrmZ1nn3g4/UqEcTmXArggPvDLEbNxMc1OnIYEXqJ9PnHEtsgxcc5N23E/LNtBPGluBTysTXMf47sj/Aa0pQf+o0n0mWbDmdOLvugeZctFnizt75II1ehzgKiBMcYYHK86LuUa+ZnqQN0e59O2LQy0Bj3fr1N9i7aHmKBlOhOfPk08BnDwKbthjpNQf6OTwcxGBAn/6u3TZscoOHg2tHejgQHNiAxDwuN+OuCo6bLot1jR63Mg0C7wPz/+fOR+94IeFVKqEYDjwRNNoOToBEehoIVkK90kEl9lApeKLyMc6M7qkkuKrJG/PuHowigmP27LnqqifwqVLVGvGCqaioJBQxsRjc5wQniJi3Z8QSjFmJFQgORq9Fi5WMExzkiSBAhAQehSCIBQLPmG5hegIPBzu8EqR0ITDaJXiTwEnKC25HcOBO9G5BYGSGcMPlidGke+eZRQoOBCadGp3JwYjNcLhHfo/rkLlmjDoR6MRVBMFj8q0bEdPQAK8MBhCjQ/l4FrtOi+M4H5+z6yudLp14JH45KIaP+hZVcLjPmVKhroX21Kh3Q90CX28SExwIiyCsSKA86ViY0kAw+Od9M2g/Cxct0XKi/ZBXhBBTWxibID5vjHxwC0e6XLkvRBsuXp9HyjhScOCJoT3QnqMFlydGNMHhwbPRvtOPKlqjiULyvnDRIjUsjz/9nAbZXV8Wm17+HF4WS3lj4CnvNJ+mjedhwOv54cefy9PPv6yCnvMG4W8Ec1KMSCwERzA/l5zIwuCXKFVO63dCsTHRBIeH9jFg4GANek4ooDcWgoNB5GQ3wAtCW2ZlG4MmyhgxGCk4YOPGzRoHSHxEUuC3xIyxYytBopEQj0G7yJbzehkwsAkKjrPnzuqglX6HOoJnLziViC2i/0gsRiixukM55i1QSEWGB48i08bEpQXh90yLYauWhL2LzBiwWIF+zEM/SdkTA+K94ClOcCS28ZcKDteJ+gbEQ/whWy6NIA5Ch7IrPIJCyZZ3CiwoOKjcrFKhslK4uJWJVwgGCeFJ4OGj8vbtT3y7cpQ7KxxwOdFoeegsNWMFCnOiQOdIJSLqnqWRXHf1mjWSPVceVbZn3P3BiZMntBMjsFCDiZwxphKz3plgQVx4vBvGNxAUM+9C6NS5iype4LesQMBw+TXcNDZEFjEKNxsJAjErGB/iFTDint2uw2LlB65SjJWHxombHdchYoVyoMyptL4y0kFWcQLrjbff1w4FEBwEgiZFcFCGHPvO+x/pM/PQmPI7EUOg14VwHAsdAJHSQeNCg0Tw5HDCDc+Y+yTu806du0nh4iV1e3eeDS7MDJmzqCH1YGDo8FiGycoWYNTEMjAvCAADw1LH5156VUUb50MkYwAIJCMS3sNKK+apeSaMHpg792IM+C2Cg3gQDDF5ZQRG8BtGw9cDxNiyZSvUIPuRJYGb/ntWy9BhRbpPmfpg9IroIH9MiyU2nUIeV65cHTctd879nlVHDRs30b9XrVqj8RUY36ChneeMBUJG64DraEP3c12U0BYyZskmPdy9e6OD4KDtBgUHeRg5ZqzGcw0LB+4C5UTA67p1CbuWERx0hkxpco942/YHhCtTlhikRYHrBcFrxwDgHw8/Ji+8/LpO3RLA/MDDj6q7Ghc1sNIpizOwf/jrA9peacceXNAvv57KHR/aeyMSBiysEGKk68shIShLVhklJDiIVYomOBBVQcFBgCCBlPQfeOyWr1gVd22eM/fMQDAxwYGQY+qF50B8w5at12OAmHIjFgzvYzQQCjWjCA7qa6TgQCzdTHAwxfzFN+mdgc8T9xkw+GHajRgPoPwQHOQ9KDjok/BKULbBwSArtBhw0KfSJ/pYI6DdMWDB+0ueaNPB+s19/JDtehkgOPDmecFBu+Y3iKzGzZprjBbedw82kQFc1hy5dDDnIeZj8eKlKp7of1hGPiLQLjx4OHLlza8eDncpheBQ2n3WHHlkgRPTHu6N6Wg86pQF4AUpUqyU66c76d9A3/pu6o8lpzt2a/h5IziYVk8RguNWtzbHPcmqi0yuMtNRs98Cv2ek7aNuGbkULV5avRrg36XSrEXLuEqGoWPq4/tMWXW5HiM2jA8u8GUrVsRV7khQojRerh2an78euU4jK1GqjGR3lZ5zNnLnIjjpm3QZ45Q3FZMllzQMRuN4SHCdc490IFSg8q6DZC7PK9cfu3TVqRqWcaLEmfbJk6+QRvj7qRkizVlJUdmJAj89tcZ1rpmz5HCVpkRco04MBAexDtlz5tXgQg8NA08N+UTsUeaFi5bUuU3eVeGfDWBEcB8TMY76x53JaIr5R+JAgOAtjEDzFq2jTqUF0eh+V0fYpZH4kMrVquu0RWYndJgn9Vsrk0dictjV0bsEPajy/gMHaVngRif/BQsXl6o1auuxZ86GjCSbYrE0DyHKcdQrRnkYZdb1+6kSoDFzjs+/+EYDyTiGusP6e86B+AI6FwQ1AWmh6xaTatVr6Sooni0dPkGtzMuyeoR74HO8JLjr/Twtx3EP7CuAeGIappB7BoyYqdMYvKIlymgH61cpEczMklD2eyEWygfYaUfnDAT5YW+NYJBeJOQFscP1mFYqVKSE/gaPgzcMIQEzWXLkyqsdHPfIM2Kk713qnIP6wqsAEK8EhfM3nhtejufp1aeftt0F4ZgOD/UEMc9OndSr0DlKq4ckWt/hYe8BAsTpKHkmXI99UBDV5AEhhNBMSPhy/7i0C7l7+vXv/iz33fe/5L7/7z+002Xw46diMHKU0R+d4GBU6e8bAUYf9qvf/EHn4iMDzIEpGfYmwdMTFArRQAAj3DAykStAGFgxPc00tO8XgI2oEIR8DsQUEZSOAKFM8I4VL1lG+xP6Neo98/xMFVxz9x8NYlgof0bv1CfqK+1Gn4szkrRvBC8GOxrURbwM3IcfNLHUs3jpslpXPDNmztH6xPuceBbA8QwMKVdfp+mfyH8BV6fx6nEPlBMikDrlny/Pi/6EvPt2AgyYljrxjrhBoNA26Mfw7CIq8WAjWql7fM594mlq3badii02zSLmIVgG5d1vWT7sy4C6V7JseQ0g9jC9hnCijbJaLjgw5H6nTZuhK/FYJebPS50lEJ1yWODyxG/rhG1dEAQDe7GMcSLX91tATBeDWvpKzkn/VcS1BaaJg6ssqYvkmf2BqNPYUNo9A6jczv6sD0+pkG/OgSi8Xe6a4Lidl7fR+bB/A8vbqBi40hAC/mGhYnFVecVFJcOdO3P2bB2depjfR2FTgRAcVERcTonhBQcjhKAS9xDYV8aN/hAcjCBQ3lw7GLgHrKumw6Ux8SAZnQPuSKYwZrm/ERxA59GydTsddSA4UNtch+h/b9joiJiu4Z79KgvKKbTvxPi4cyUGFZz9/nGHRu6wB0RNo2QpczpxprquV+PrEK3NcTRO9opghE2+/Fp4Rpp6j64s8WIlBqN4Rm0YFka3dMoYMzqV4KoHGhSNhaV/kdMOwNTKAGewMTLkn7KPtnqEsibWhI6LTou4H85LOfK8fcPl/3U9u+ugaWwt27TVjhzPBC7IYMeBCGMKRg2869jZ2ChoWOiwiJwnQh7BwTW4N55nUJDxfAhUI18YNzpc766lQ6Ud0cn4OsEzx01KpxIUHIDXAuFCMKff3TQhGDnT0TCaQ3AQY+QD3zzkmekZX6dpmzNm8RKp6wYLIV+xStVQx+meA20v2OkDy9Rpu8FRqoc+Ag8aU1CcA2MwbXrigWo8MwJe/TtpqMN02jw3RrMYxcSCwz2IdwwDBp0RKfU3+IwR9FN5WZsTqEwh+e8QHHg4GCwkFJiLF6Vbj5668sE/u4RAXFIXcbcTwxKEPoBOnxF1cICBkMZ74kfa1BXyz2oEng/uf+o55YLgSGiqJIg+J1fffFwO0630Y6FnW1qfbWLiKa5Pdvfhy2rh4sW6IVZQQBIPMWz4CJ169G2P49luANvgBR9eOgwxK+SYPqGN0EcxdeCXpQLlx4ifvAdtgQdRwZSDFxzNnCCi/gN1iKBQzst90h/jrQRyxm+pH3Fl4AR30As1z33P0vPgclTuBdGA+GPXz2gglmlP/rwMRvFKAe0YryZv740EIU/9ZkDhy86z1fVpeNU4J/0XAb8HIhYFAJ4PvB6UBd4n+jzaPn28F1I8G2yR3zPodrg7gsMwboKP4WBqiA7VuDPgOUFwqOFMghg1jOQMMRxM5UauUjFSBiY4jGSBFxyMmG62hNZIGox2WLLLFBnL+gwjpeMFBxsrGikPExxGsgDBQdAoLkcfjGvcHggN3MhM/bCaCtdztKlMw0hpsP0AU+vEPBgpDxMcRrKAiOzK1WqG5i1vEmBqJA5BhsTCfPVtet0BNaENrwwjpTF+4mSNb+AFj0bKwwSHkSwgoI9ASIJ5E9pYykgaBM6yRJidY6PtNGgYKRUCJNmYLbEVS0byxQSHYRiGYRgxxwSHYRiGYRgxxwSHYRiGYRgxxwSHYRiGYRgxxwSHYRiGYRgxxwSHYRiGYRgxxwSHYRiGYRgxxwSHYRiGYRgxxwRHDODNmLzlz7/Jkb95k6N/QyTbTvOCstNnEn+D6q3C9Xgj5M1efU0+uD5vuEwMznfUnS/4FsY7zaVLl+XYMfJy1nbDvAnUI94zE+3tl8kJNnHj7Z7BNz/HEl45TrkcP37ihrfWJgZ507Zyh9tgYlC/eU35SZeS8lbnWMAL/I4ePaZ9xJ1obdwTb0ql7INv1Y0G9ZbnxJtcjXsTExx3GBrduAkTJFfeArJk2XL9jFf8NmrcLG7Xxw0bN+nrt4cOHS5X76CRXbxkmb5auP+AQYl2aLyCm9cv83rwxFjm8l+lWg3p2btvkjvyW4XXUjdo1ERGjxl71wxUSoTyZ1tnXg1OmSVneJV+3fqNZPacuXdFRGLEylaoJE2at3DG/FT408ThVeAVKlfTV8rfLRBi7P7a8ceusm/f/vCndxeuy3b3gwYPvalASAoMXvr26y8tWrWWnTtDr7BPCN7tU75SFZk8ddot9Xv0ZdH6Hz7n+v67K+5f/qYfIbHjLoOmYF/If/NZvGMC5/fn9ceQklJW1HV+6+s8Aotdk/k917h48VLctbku3yfUPrinhPpcf53g9/w35/P55fzcQ+T5I/N4tzHBcYehYvZxDfCt91LLjFmhVyj37TdASpYupx0xrFi5SsqUqyCdu3S7o4KD7awzZskurdu000qVEIsXL5FSZcpJ9x69w59EZ5bLf5bsOaWxE0cJVf6fyrr1G6VYyTLSu08/HcEb0aH8Bwwa4p5HLldmG8KfJk+mTJ0uhYuWlPETJt6Vju3AgYPyXYZMUqJ0WR29J4Vx4ydIhszZpEOnzuFPYs/Zs+eldr0GUqdew5sa51ixw103d76C0tHd96U7IDgwoK3btpMKTkhs3rwl/Gl0GHBlzpZThg4fkeR+D88Jz2j4yFE35Jf3LTVu2tz1Y+Vl/YYNmo8ePXvLD+78vEPom/QZ5fMvv5E8+QvKpMlT9Dd43Zo2aynfZ84qX333vR7zmTumeKky+loFwFvTo2cvyZw1R+g86TLIF19/J7XrNpDde3brMQmxfMVKFZSrVq1RY9+pc1f5NO1Xeo70GX+QTK5vTpchs3ztrs0523foFPXN2LwLaeDgITLQtfdoL13csnWbdO3WQyZNmRr+RGTevPlSsHAx+eKbdHpfnL9A4eIyc9ac8BEhIcWrI7p27yk7d/089c8Ex09gx86driGMlmXLV4Q/CRmGrdu2yVjXoe0/cEA/o+JUdKOpxUuW6t+r16wNeQ569bmjgmP//gMyY+YsWbduvXb0uC7HuU6fVzmfcpXYg+eiUpVqKoQS44DL/0wnOsjvnTAcc+ctkNFjx2k+PRs2ulFPxSoyYOBgc7UmAvVq6PCRkq9AYfWQJWdmzJztBHVFmew6xDspOC66Edz8BQud8BqsnbKHUeS06TNk4aLFzvCEpi1vxu49e2S6aysbNm7Uv6l78+YvkFFjxsrxEyf0s5/C5i1bZZgzrOudOPRlQD4bOSPZuGkL2b17j352t+FdJEWKl5JuzujcKcHR8cfOUqNWHdnqDGFirFm7zgmAQlrGSe336CsKFCqqZXbeXQuYBuv0Y1f50hnXtu07qNeGKaKiJUrJd99nlvoNG0vL1m2lafOW0qVbd+2/AJGX6YdskiNXPvUw+2N69+0n28JewwMHD6qX+FsnEuqFz8Ox2XPllboNGsmOHTv1uGhMnDRZChYprm+0vXz5ikybMVN/26JVWyfAS8irb7yt7YIXVDZr0coJ82ku3/Gn9A4dOeIETn2pVade1BdZLlm6TEqUKiudu3bXv6lfeKwQTyVKl9c8c/5iJcs6MVVW3z0DCI6p06ZLCSfSfJncbUxw/ARQi6XLV1LRkRgY07shOCKh0td0lbZNmw6usV6frljmKiyCo1//geFP7g5du/eSyu6+d+26PlIICo47aZx+aaQkwTFn7vyYCA7o1buvjlrP3mFxevnyJfX4YWxO3oGYpQULF6tRQLB7mFJBcDRq0ly9Mj8HQcFxJ7gVwUG9vVXBgcEtXbaCtGnXQdsAicFctpx53PPqJdfc38CAqlTZ8uphSIjt23dIvoKFZcyYceFP4sMgsUHjpup9CDJi1Gj1nvQfOCj8SXwQvWWcPZgS5dX5iGGE06ZNm8OfJAyxRQgVPDiHDx8Jf3odPOSVq1aXXn366d+UCdPjFatUly1br0+34glBcFSrUVvOn7ugx82aPUffyv1zeUlTlOCgkaIax42fKOMnTHKjiC1O3oW/dOAO2+Yq1aFDh9SooyDxQnj470lOfVJh6QgI7LwZBE0yEuJ6dKA8KEYq23fskB+7dFXXW1X3QKe7fOGm4qHiJtuwYWPciP1WBQdzcJs2b7lhFMR5aXwbN21y31/vbAn+xIATAEqjo5LhOiRIdbK7V9ynxUqUln4DBmlFZQSI669ajVqaL/JMmYyfOEmWOiHCtT0EuNGJHDp8WP9muog87du/35XxYfVYjBk3XmbNmatlnhCck2vSGHPkzudGJ110pHrCjSSZ163kGsowZ0y5N8px7LgJquKjBb9SB1Dp1IEJEyffdC6cPDMqoeHSmTCKHTN2nMv7/Lj7CkI5cgx1hGvgag1O9TBPyuiY63JevEe4igl63bt3n9YL/qXzwZXrRxIYXjodrk2jZyQVCc+X+/f1mzrgDTbPPymCg86Kes7IaaerF+SBqQ3q3oWLoREiEKzLsyS/1B/qNnnFFQwYksVLluizID+USTT3Lqxdt15Hd2NdXeA5T5g0Res77Y98az3atk3OREyZUY94/pGeLfI/1XXa5JvEMdTpea7OlKtQWb5Nn1G9HExRUkd4xlu2bJW9+/Zpvrmnbdvjx7nQPja6ssNNz71Qt/lvyor+gHNjyGgrS5ct17rGNAGeviC+LfJ8gu0F+I57bdm6nRtNZ9f4JKaYKGvqCIakTdsOstaN9sk/8V20H+8NBV9n+Yz+bJorixUrV2oMAHCP/JY2O8GVO88tcgqV3+PdJFEXGd2Tt92ubvJ69z59+8s2V05T3Xc8t1A9jy/iLrr+grrj6wHtJugBSkxw0D9zfdrpgkWLtE3nd0YXL+etCo72HX/Uv+mj8BYwgvd1FXi2pctV0NF90JsbhDJBcOANCP42CGVe3z2z5u78wfpOf1rFGWpik3g+0UhMcPBd7rwFtF7djNsVHFx7+YpV+pmH+LtCxUqo0OQ44qpMcCQBOn1G5Gm//k7eeucDeT3Vuzp/56cPYOWqNRoIhsuKkfRnX3wtg4cOC3UQzkA2dMo19cefyRvvvC+ff/mtNpSgazYSOrNeffrKp2m/lnfe/1A++OhT7ZS2bduh0yR8/sQzL8gLL78u332fSY0mbj8aVP6CReLmNG91SoVGVrlqDa105B0QU+07/KgCZ+Wq65WKikbFpMNdtHipjtAQGnhfcucrIM+88Irm77U331UXHXPcuDbxcDDaYi43zWdfaJky10jH6zsvjAwVe/iIUfo3AoGyrerECiPNHLnzy6tvviPvf/iJO08X7XyigRhBZb/46hvyrMvPS6++6dR+MffsNqhAomxauQ66ddv2zphkktffelfzMtqNRHxeeMZHjhzR6/j8vvH2e9KkecuoxttDEGGDRk111IILkkb/yhup5GN3jvYdO7s8X+94eN5DXH35Nl1GPTfXyOiMxqjRY1SIAAKvZWtXBtVraqfHc69Tr4HrzHbpXHPxkmVUUH2d7ntXZz6SrDlyu3Kcr2IjV5788vLrb8n7qT+Wdh063lBeGF0EIHOvem+p3pMSpcupYeLeqQdJERx0dmVdHaXeMtr76NO08vZ7qdXVjPhglA0YWvJfpHhJadu+k841U0bHXSdLW0PwZM6S3eXjXXnT5efb7zM6QzzQdebXRSB5oi4Tg/PuB2nktbfe0VE952FkNW36TO2cEZfVataJ18lR/znOGyrOt337TqlVt757Pl+6fH8oL77yhtSr31DPQZ19/uXX5MlnX5B3PvhIirqR+jZn3FnlVK5iZTcA6KYisnnL1lLJ1dugUKQe0VbobFetXus63nlatzEE29w16Uteeu1Nefq5l/ReKlSqqjFRtPfOXbrH9TFA2XVxdalG7XrxBC9Crrcz5uTv6edf1jr/xdfptE/AgNF+atepr67+AoWLubr4tnz4yeea57NOkAB1tr6rs7jwmUpg6qBG7br6OQIHwU1sFdeg7RV0BnjJkmUqhoE8USdfc20z1buptQ7QtqhjB1zfwtQDUwnt3Cj+q2+/d3UylXzt/g22N8CLNGHCZDeyzxFXD2iXffoNiDPq0QQHz5GpJMruTdfXvvfhx5LTtbv2rn0g6Bik3IrgwFtG26I/5Tqly1fQ+wjiBUfb9h0TFBNecNBPJ0RQcPCcPbQb4jjoxxJa2ZSQ4OBWeWb0PYium/FTBMey5Sv1M8/gIcP0nvGs8GxNcCSRPW5UOdApU1ZYMN+23Cn+Qq6hEYSF+oRVq9dpUF26jJm1s2OkgRrne/8A6az5PaMOHhABNJEjLM9QZ3wIKGJOGsO4dOlyDUzavXuvGp7Ro8dKgSLFpU27juquwyBfcJUdw4ChYTQFtyo46KSZhyTy3rted+3eLXmdsUFAYAB9B8hxGD88MXgcyO94NxKhY6JS0Qhr1qqrHTaNiUq3bv16Lac0riMaOWq03hujdMRadWcY/OiQylm6bHkdEQCNuoY7Fx0UwVecn9Fn6zYdpHCxkq6cZupxkXA/zMU2aNQslD836mHERyNmNMqo520n6AiK5NnQOCivsuUrxok2ypvA0jrO+Cx3jYrjKM8CRYpJC9dZs9QwGhhIDMMLznDx/DkfnhQ6YLw/8+cv1OPoOLt27+FEVF4Z4hopedi0ebP0dNfM58Sjb9yIEoQboqVLtx46V88zYpSMoEWYMhqjDBEZ1NFUzuAzt4v3gmsjHPmcTsizd+9eGeSuu9oZQ+6NToUyZUrMd3x0lDcTHNRVjPUnTkCEnu1WvZemLVpK9lx5tFMEBCwrXl567S2thxgLOneMFt4DyqFHr95x5TBk6AjJ7wxkBxWWoQ6dfBYozPx6c63T1IXprt0hiqlbeH+ob6wIKVexijtmnf7OgyHn2SOWgTaEyOLZL3QjbjwIlBGGkJU5eOO4VracuWX+woXqacK4kG+MKM+U/ONqV8GPBzQMHTeB223ad1AhQjmULFNOR+6cg+fSqHFzPc88144w2rRnvG+1nEA4eux6MOqmTVukvBMk3br30ucehHaJAKIukwfKkLKlflLfm7VoLa+49kMdomy5LuIFzx/xV8A5qzvD+kGaT6WLq5M8Q992p0yZqiN+PECUF30c90R+8C4xjdrWCYkK7tkud3WI+olHjZVriGbKimkNzq1eDleuBDnWrldf28N2Z5Q9g4YMlewuX0y/+HowzA0+EErUYTwutG2EbVBw8C+GmUETfQ3PgcEL1303dRoVHEkFLzTCBe8C/9Jn02dE4gUHQuqgG4DQ/+GJpj/2faUXHNw3z9Yfw334Y7zgaOmE4emAuN7j2idTv9Q/DHw0fm7BwUCDQbeHtkDgarGSpWWf6385zgRHEkEUHHYj3CBtXaUv60Y2NAag06MDq+IMcHAkxsOu6wwV7rgg3VzHVMgZgmBMgYeHxWiE+U4frAR4CHyHi/hhOmX02OsNiMA25vtovD5ftxM0OmLkKB3p4Y2ARe63Wd3oIH2mLOrpYVoFI1nTGVNGKlQmBAejAdzbQOfTsEkzDbA6e+76aG+VExcYUTpcOiAPU0d5XacwMRzVTSdB9PnQYSP0bzpNBE6mLDl0nt5DJ0Vlb9q8hVwNjJAi6d13gAqGXYEIacROYVfGGOBg5D7GmVHniFFj9G+eXSXXgc0Pr/TxYPRZ8bM8ELgbhHpQp34jyZQ1uxo+zwbX0TMKxsNDh7PRGbf8hYpo50kn5DnqjAdGn04eI03Hxgg+kzOqQfcoHRudBJ0qozsPIwy8cRhD9osA3JuMoBu583j3rNbviM6FUV2ZgOhKiuBgVI7Bp14g0jw7XCedK08+PScGlukNptWI1melkGfPnr3aQbHElE7Zg5Fu5oRdQSfwEI8EHDKfXbiYG10H2hXthnaFNwfxwf2pp8x1cky9BEEY0L6YQsEY02nSfmfPvv6cgHLnvIDhLF6q9A2jTOowdYXRLXA95vNHjr4eW4WgRmSzOgUwDnhFEL/A+fv2G6ht7kRgae04J0hYVbJo8eLwJ+IM+FxtO977FI3FeBtdmw/WOe6xia6SyBLXxoB6X931I/Q3tGmmXrhmTve8ggHp3Cf1lVUhQRAVtGcEAlOdXLdu/Qbhb0PgHUSwMN1HP4KbHQPsQahyDgZi9CU8YwYHxJv4AR1gpFu2aqvxCIgyb9QQHIgX6Nm7j7ZnvyrPw0qT713/hbcnoXKLhDZRyrW9p557Sb2S9K3RYCCAdxevIt5rVmogvMu5QRuDNUDUE//zXuqP1WvEMWncMWwR4AUl02cIjjaujL2nhHLDG5zT1WkMdkL83IID0Rlsy9gBxDlT/zwnjsODTT9qgiOJqBu2ZBntqJjSYD5y/YZQITPPSeUMrTG/7opnJMKyJCoM8QyMYhg9sjyJaGQ/wgpCJaMzypA5q466FrnRaiTMe/KQGZl67pTgoGLS+Y1SN+dVjV1B5bOUlqhnDAOGHiHFKA1wEwcFBy5YPECt27S/YdqBVSoICdzuQaiENEii6wGvSFBwYMBoCMxj4rr20CFh4KrXrC1XwgY0Gp279tA9AJgG8xA0ysgFN3TQFUpnzggJkQLMM3/8+Vfq5cEg8gxx5af96jt9Rgl1BLixERyM8IPiiviBZm40xJLf06fPymxnGDjf2nXxG+JIJ3rIIzERGGGmIiiD4Nw+694ZXVWtXksNhoc5b7xd850R9BDTgEGhDgTvGXgmWr+Lufr9xddaT4kHgqQIDuJxSjrji4cvCPWZPNO5HnbPjvl6ovBLO0Hj5+5pK9Q7ysF7foJglNTQuufHM+f33Xv2ijctuXDREhVUxB4kRXDs2rNbhTz1FO9QpNfAg4uf3xQqWlxHop6g4KA9kbe2HTqqx4n7JtEn4KnwbZL4kqDgQEx37dZTByt7nFH2YFQxQCx1B7wECC2mLE4FhEkkLEekLTKN5Y2rX6WCaMc748GoENdBe6fucP8Ic9pasI7hMWXpL8aSf2kDTCvRJpiGZMoQgc190C7qN2gcb8pHPaVOWHAsBsiDKx4vFHWdaSGmZKmHwYGFZ7YTXFyfARcCBIOG5xPPA+ek3LlHLxI9xKMgKG8laJR+Bs8F4oBlpZw32lJSBgLs8YGoJG6GWA4MNs8K7y/sVi9xIfU8UbYcw/PA4+KnTGkbeJ+YjqetUT+z58yrS06Jt4kW5+L5uQQH9QtvZtqvvtWl3tQLPDm58xaUtu06xAkujlvg7BgDLT+QvdukCMFBJaaAGAHQsWBwGFl99ElarRC4cgGXIiPtUaPHxlV2jDWekMxZc2pl10bqUhHXkTN67OXUeHAkGOTosaO63lmNnBMqjA6pMHRgEEvBwUiEkXXT5q20A2Rd9nBncJYtd2LBnWv+gkWqajF+XnDdiuCgwjJaDEJFpkFSeSGa4GgabghBwYHbk6kYlnLdjuDAVYlBCE5t4bHAnY1rGoa7PH35TXpt+HSy+gzdv8QAdO7a7YYOPIgXHES5BwUH7nmML+KNcsKjwtQLMQSR4DVAUOH+pgyY39UyCATKesGBofV7QVBvOW8e19EEBSueOowfo0LqEh0BZdLKdYCMzBHRBMYx90499/UoKYKDJXm0AUbhQTAirZ1RQ3TgYaLjpLMl1gmjAeTXx1vgZo9k6bIVUt0ZFg2o3H/QGcgGGutBnQ/CtRFoQcGBJzByVEX95155dkxL0cmOGDFKyzIaSREcfqknAY4YIAwIAacIBMrP3+vkKUkTHPQj1JGm7plzL4j8Vm3aqcj33qloJCY4tE27AYMHb0KLlm1UwPFcvODQOhuoY7RP6v4PWXNc78fc3/SHGMnFYWOGpwEvHJsPMsJnGpjpF+DeKHM+Y9dRD/FfGEuEPR4/+jnadGQQIvAZ37GxIW02KDguXbri+qTW6vWIBMGJF+WWVqm4+2dqlTgRPCQMGrEDwfgKQHDcbJWKn1IhcDshgoKDfp/ypc8hqPpm3CnBQf9A30RcT7R9Zbz9wJMICQmOH90zCAa+ctx+184Q25ExMHeLFCE4ULQ0xs+++OaGkWz/gUM0mAqlDX4lBIbYCw460XZOcNAZYVhuB1QmI9IPP/7cdWwV4kYdzNEjOIaEDTLcKcFBZ8ZUCQ155uw5asyYQ8XIYfzGug6VgEmikL06jxQcVDZGTYyegh1XQvtwJFVwMIIJni+pgqNTl+4qOIJTDgntwxEpOBCRZd2zDbr5k4IXHBgJHw8DQcFBB888d2lXdhtdfiIZ44xL+YpVtUP1gkPLICDiEhMcTC8scGXpCQoOoPNs2LiZfJb2a82Hh5gl5vLx9kBSBAcrRKiTLMsMwjRgPTfixaWPe52RNNNtuKF9udMhUUfxEvqNkIIw2i1drpKOfjHyCJO+/QfGG/XhtiV41AsOrZfu2UV6OIgNILYFwUEb51nwWeRqFg+f8z2CIyigg4LDi59lThxRxkxpsDEUU2JzA16mSMFBveqigriW7I3wCowdO0Gnk5i6wGAgGiKPiQRvUOmyFbVzjxQckftwJCQ4tM4G7pP+jdH71KnXY38Sg/JGdKRO85kG1HJ9roURpRyD+3AEBQd9J30BZcbAJpJ58xeq14FpqkgPBwK6tusraVvU/yAITmJVmCb1ZXIzeLZ+lcpVN3gkhoTAVYSFH/iBj+G4U6tU2DwxGFCeFO6U4MBDx0CSPjU4SPJgd5hGJlYQKIfrUyo3ivrkRooQHHgweJBqoAOVuJUbuWshhzuyaIIDMFYlSpXRChEJc6bRKj/XCZ4DJkycJFmy5VSDDfzL9WLh4QCuR0Nu7jojOhrmKclT167d1dtSzt07I0xPpODAvYqHgxUgjPI8P5fg6OJGkFVr1IwLpoWbCY5+Awbr3xgxOs/IqQKgTBLqwG4mOBhF0LGsXrtW733IsOGuAV+vYxi55m5Ehdg55oQBQch0BndCcNR0YhkI/MMrweg9GAPDCBej6AVaUgTHZGeMMCh0RlevXi+T9e43dLZMXVFWiG9ETlBwADE1zL8zeqJteOigeX6ce7cbnSOSWEnBPH8wP9xz9x49dZqL9kZnyHLW7Dnz3CCmqJu0gaw5cmkMFXno7541YmdNRHAp+cBDQxlTRsSR4Hb2BAUHsTRALAPtq1WbtjJy9Bg15j7GACIFB0aKAHK8h6xoC0K96d6ztxNXAzT2goFAMM4nGnh5MJTBkfFPFRx4RXhmfBdpMLlvxB3lHfS8MH1HX8F97dt3QEe4jIATEhxMG3AOpg/xrhEjFYxh4znwDPiOeyAfoRiOkOCgbuEh0P7PDZCC0A8zCkc0AGKF5+gHTNHwgoO2QBPnerTZj9zgj502vT2gbyzljLCKzoiy8dzKKpXIoNGkcKcEB/Uc7zOrxIIxQMD9ssJJPZ/h2C6eNzYvMmg0Ep4NsVhMMSVURrEmRQgO3IAsEUN10llTUXHr4mJnzs5PqRBgRYfFMs6gWKCjYf6PuWkaN7+ng2Gkhrs32LF6CFQj6ImRnu/wGK1QaZjWADpKDDwuPs6JixLBgesPJe8NK8YUo+pHjVwXg68GhtqYADQQpnLeePt9XUGhNdfB6hhGLWm/TqejDQ+dHB2vFyF0KHQ2BAeucQbVR2MTgImQwPgEQbDlypvfVd5Qh0DZ4JIdEn7fBIKjsTPSzKNGCg5iFzCgiQkOOhzOR0eBkafxrN+wSY05DSxo+BBFGG+W4AGBhazaweBt2bJFGyVljogjoJYOJxohL08DfUZBwbHDCQ5EHAaAeB+EBXEerM6Y7Qwj58dAjHNlSQdN/jDgCA6mU7QMIgQHnzOVEBQcdEIY22AMB3WYDprnAhgVzsfozNdv6tjX32XQAFAvXBF+zMv6KbRozHKiE08gWyhTzzgX+cEbRnyOry88y/oNm+i0Q7Dc6YgYPWZ17YrRri8H6haxTExfYZC4t5mzZqnXD8NIOXPcandN2iRLS/1InHZCR49R9e0PQ/xe6jS6pwbTFNRLlkljqPAm4vXg2gTMEgdDLALHYCwIzOXe/AoEjBIeFQJzveAgf9QNpg9YsYHnh/N5iHVhStUHkfp2q+d2nTbl4NumXnfESC0rjCsDAT5LDD+owGBTtygzyoepDkRDpOBo1ryVCgkvOPBMap0N1DEdbDihwFJsBhU8N8qSOsOeHAQj4wHFC0yd4R54zvwGbxTX2ecMqgoJN2gJCg7ibug7/Qo42gSeC54lq4R8PeBZUA9w13txg/eBuoxwBvpJ4pYaNW2m/Sx5ZOUKQdlvvv2eBo0CAySezfDhof4mGjxbVhdRx7z3CsFbplwl+eTzL/VeyQPtn/gi2qBfpeKTtwX0p2wVwGo3v0rFJy/SEBzYGgZWkdM2NwNRQRki+oNQVSiTHLnyxg06E4Py37hxo/bF9BMEFWv5u4R3g6kj6rovD+4Pm8e1mfZMCOwY0/LYFPr6n4MUITgoUB98h0Jmr4KGbnTFSMxHiwMihA4GAxkUHFQmRpp0/O9/9IkKFYJFq1avqQ2ThhMJD5fAKiKjNaLZHc9c6ZRp07QRAQb8xy7dda49ixupEXxEJDqdU5ZsueKC/fAkMBVDwA7gisTw4sJNTHDQYdD5smSUvfI9dLbcRy7XOQc3OMKNyxwvUwBayx24lrPlyqNr9hsTcX7seMhd6kYDjACDINiy5sztDFtIYKCuaex4aAAvCYFoeDKCHSH/jQeH8kxMcOzZs0+9Fq+leldHLUxf4OEgyJGlakHDhyhiioMpI6BzpJFg/D8P1wGeI/eBOAk+7yB0GnS2eB/ocD0IGOb1GVV61ylGDtHEuYl0Z2+K/AWLaofro9j5F3GgZRCeWgPqCwa8ZOnycUFtGD06msxZcsjcwEiF+BcCgBGd1D3ujSBN9ihgnxmuj2EiYBRD6j14uII5JjG3KcslmaZg10GCAAm2I4CQlQkIUYwZIELYV4BRYbDcgU6eeIqvXPnyPgrKIWfu/Hr9YNwKK5/6OzFN8DXxVKwKoPzw/mTPlU83fILLdIjOmBPkTb1lpQIdJs8OgedX4VDfZ82erZ/RzimLdN9nVgPh84iIZ2WZrkCoWFmfI+XNfiIYaC84gOdJf8BgIziNB+QN74w3frQWPDW58xXS+Xum/hixexDf7DtDHQ8+94RAZBBQi6hiVRcCAVHGc61bv7GKMA9iirbJ9DCCA+8P19c6G3Et6jBl9/lX3+i7Pki0WZ4N02TEIFC32MOEepTelTVCBgFE+VImxCawV0xQcMxfsFjLarjru3x/yLPGm0c7Y9ts6gEDqQEDh8TVA87Zpl17rcv+OXLveJVYyUVZIpDoH9g+gP8mMBWIg8ETxvLohGCQQLwdXo2gp2XlytW6/cHHTnQwkGHUzqDu9VTvaZ2l3pNvFgtQXtQflrZiQ9ibhL1R/DHUD+/tpbzx0FCH6StvBUQ0ZUgcVRC6YmJ5fsiaM+pUZTToz/CGIMgQ5aE+6RvdYp2t2Al693AsNo9rL1ma8MZilAGLDj53zySx1TaxJEUIDkCFUkEJrKMRMOLC8GKEfBQysRbsG49Hg84+EqKr6UipvFRCOoGEDBUqE2FAw+R4XLN0TpHihAhgKiueBAw5IwM6Kka2Pt6AhohB8V4B8rtg4UIVJAnLjRAYF4xWcJ8JGjTCB7V8wZWLh46LeXbcoR5ULW5g7oERq7rUnNFkusR7hjyMlMi3FzF0rHS0fn0952KqA2EXNFL8N8qbnSn9VsMJQSNq6UYrzP3TeeLyxeVOGflRBtBxRsvj0mXL1KVNHfD3FCybSOgQeYsuzzIYa4AHC6GyzNUfv6IJGKXhPiewj7qCixkx4dEycL+JLAO8W3xOeSE6gTpEJ8fIJ2ikqMt0PJSZr6ecl0BHRnKh+j0nXL9XqDgA8sZS08RGXhPdSJ4VIYgLhCdeExIjesrCw/W4B8o4WO4e3Pd4lzB6lAMdWrRyxmgxumKagNElUxW0CbxOjLg9lDcxKZwL9zj3xf4MDCQi43KmzZihx1AOiP6gWKC9Usa4zvEcEo+CYEQcU17B9kk546Xk3iPd43gY5s53bSWwFJsBBKuVqF94k4IrBGjbdOiImqRCOXTr0VM9AHh+KHPOg7D3wg9ok3xO2+BZcI+0ba2zgTrmQRAyWCAvJFzsjN6BZ0wbpv5SflybeubBE0BAK/1KsI/knPSd9F3Bz9m9lakkXw8GDxmqwslDeeM95RrB+kHZswsqeaBOI9oRDxg6n1eeAUvxI9t4ENpY6Nmujtf3ck3qB+XJcZQZZUGZUOd9P4+xv3Tpoh5D2RCAGjyG502dAo6hj1nh2vKtxnDQZihDPDCRIPToB5jquxW4NzyOlCPPgMEf/XQQnhc2j2tHW9Xiofwoa4RRcMB4N0kxgsMwjJvD6Ip5ZNzVxp2DWA9c2cQSGYZxe5jgMIxfEF5wML1m3BnwVDESJm4AT4BhGLeHCQ7D+AUxbgKxCaH3mBg/DVzQuJ4nTZqi7w8iXsUwjNvHBIdh/IKYNGWaLhVnnt74aRBbQlBxms/SaowWsRaGYdw+JjgM4xcEAaaszw++/8K4PQjA5M3MBBoGVwUYhnF7mOAwDMMwDCPmmOAwDMMwDCPmmOAwDMMwDCPmmOAwDMMwDCPmmOAwDMMwDCPmmOAwDMMwDCPmmOAwDMMwDCPmmOAwDMMwDCPmmOAwDMMwDCPmmOAwDMMwDCPmmOAwDMMwDCPmmOAwDMMwDCPmmOAwDMMwDCPmmOAwDMMwDCPmmOAwDMMwDCPmmOAwDMMwDCPmmOAwDMMwDCPmmOAwDMMwDCPmmOAwDMMwDCPmmOAwDMMwDCPmmOAwDMMwDCPmmOAwDMMwDCPmmOAwDMMwDCPmmOAwDMMwDCPmmOAwDMMwDCPmmOAwDMMwDCPmmOAwDMMwDCPmmOAwDMMwDCPmmOAwDMMwDCPmmOAwDMMwDCPmmOAwDMMwDCPmmOAwDMMwDCPmmOAwDMMwDCPmmOAwDMMwDCPmmOAwDMMwDCPmmOAwDMMwDCPmmOAwDMMwDCPmmOAwDMMwDCPmmOAwDMMwDCPm3JLgWLhyrly6dNmSJUuWLFmyZOmW0q59O27QFJoSEhwTZk2Q3fsOWbJkyZIlS5Ys3VJatmblDZpCU0KCY+6yWXLm3HlLlixZsmTJkqVbSlt2bblBU2iyGA7DMAzDMO4kFjRqGIZhGEbMMcFhGIZhGEbMMcFhGIZhGEbMMcFhGIZhGEbMMcFhGIZhGEbMMcFhGIZhGEbMMcFhGIZhGEbMMcFhGIZhGEbMMcFhGIZhGEbMMcFhGIZhGEbMMcFhGIZhGEbMMcFhGIZhGEbMMcFhGIZhGEbMMcFhGIZhGEbMMcFhGIZhGEbMMcFhGIZhGEbMMcFhGIZhGEbMMcFhGIZhJEuuXr0ia9ZtlJFjJ8rAYaNl4HBLySq5ZzJk5FiZPW+hnDh5MvzUEsYEh2EYhpHsuHT5ssxZsEgaNG8rBUtVkpyFSkvOwmUsJafknkmeYuWkYs2GMmDYKDly9Fj46UXHBIdhGIaRrLh27Zqs27hZqtdvKrmLlpUiZataSsYJQViwdGUZO3GqnD9/IfwU42OCwzAMw0hWXL58RXr2GyxFy1VTQ8a/lpJvKlymqhRyz6l2w5aybceu8FOMjwkOwzAMI1lx8eIladiineQtXj6qgbOU/FLhMlU0rVq7PvwU42OCwzAMw0hWIDjqNGml8QHRjJul5JcQG/lLVJAVa9aFn2J8THAYhmEYyQoER92mrU1wpKCE4ChQsqKsNMFhGIZhpBRMcKS8ZILDMAzDSHGY4Eh5yQSHYRiGkeIwwZHykgkOwzAMI8VhgiPlJRMchmEYRorDBEfKSyY4DMMwjBSHCY6Ul0xwGIZhGCkOExwpL5ngMAzDMFIcKVVw8F6R/CUqSt5i5e+5LdlNcBiGYRgpjuQqOEIvKqushvXGVEkNbvEKNaRirYZSrV5TKVO1rh4f7Ty/xGSCwzAMw0hxJEfB4d+MiqgoVbmWlK5cWxP/XbxiTf2ueoPmMmf+Itm9d5/07D9Et/ouEuVcv8RkgsMwDMNIcSRHwcE0SeU6jWXilJn6RtQdu3bLjp279b+Xr14r7br0kvrN28qa9RvlytUrMmTUOMlXvLwJjgAmOAzDMIxkRXITHLkKl5GGLTrI6nUb5NDhI7J0xSoZPWGKjJ00TV9WdvHiRZk0bZY0adNJlixfJWfOnpUBw0ab4IjABIdhGIaRrEhOgiO/M6LV6zdTQ3r+/AWZOG2mVKhRX7IXLCU5i5SRKnWbyOCRY6Vjt97SqGV7WbZy9Y2Co3xoOoZ7yemEi0+53G+JBylWvrpep7A7htfxRx5DfAjfc1yBUpVU/AS/J3/B/P5cyQSHYRiGkeJILoLDx2xMnTVXLly4KNNmzZMyVeuoUPDfY2gx+hjbmo1ayorVa+MER34nIAq4Ywu5Y5hu6dC1t/zYs5906t5XWnfsJmWq1AmtaAkLj1ru9+279JQfe/STjt37SMsOXaWqEzTkgePKVa8nbTv3lM69+rtj+kord44qdRpLodKVXT5+3gBVExyGYRhGiiM5CA4vJlq17yq79+yVw4ePSsdufUJeC/dd8DgEBUYfwRAUHHmKllUPRZPWHWXLth1y+swZOXzkqBw9fkJOnTojA4eOkmLuHIVKhwTJshWr5fSp03LIHXPi5ClNg0eMlRIVazrhUlFGjJnkPjstBw4eliNHj8nxEydlyozZGltCHn7O6RsTHIZhGEaKI7kIDkTEACcKTjkRsHb9RqnbpLUKiHjHuoTBjRQc2QuUlPrN2souJ1hOnT4t4yZNkwZOWLTv2lu2bt8pZ86clTETpjqx0U6mTJ8tp0+fkTnzF0s995teA4bK5q3bZMjIser96D94pJx0+Zg5d4GUq1ZPWrTvIus3bdG8jZs8Xcq6zwqWip+3u5VMcBiGYRgpjuQkOIaMHCcnTpySeQuXSOXajdQbEe9YlyIFR59Bw6VkpVoybeZcdz8XZd4i9/tajTQGA2Ew0AmSs2fPyaYt26T/kJGyZt0GFSD8N/EZnJcy4JrN2naSLU6gsNy2UcsOki5bAZ1i6TdklIqUje4cxJnkK1EhXt7uVjLBYRiGYaQ4kpPgYErj5MnTsmjpCt3QK6mCg304ajRoroLi4KEjGrvBMZwTwdGgeTvZsGmL7D9wUHr0HSJDR42Ty5evqKgYNmq8BpCmz1FQxUefgcN1+oS0eu0GWbJslSxduVq279yt5bXXnaNWwxb6m8i83a1kgsMwDMNIcSQnwYHHgWmLDRs363RItGmLhARHrYYtZfPWHbJ91x5p1razFC1fXY8jEQy62AmHI0ePajApAaFTZsyRXXv2yYXzF2X85OnSpfcAKVmxpvTsN0SOHz+pS3I5/9IVqzUtXLJcZs9fpF6Y8jXq/6zbqZvgMAzDMFIcyUZwOCNKoOj+g4c02LNd5x6So1Ap/c4fh6HNW6KCTmfUbNjiBsFRs0EL2bRlu+w7cFDjNryIQbTUadJaNwkj+LNrrwGSNX8Jvd/m7TrrOc6eO6/naftjD+nRd7Acdsexx0clpmWKlNWVMXg0yA+/49wEoAbv4W4mExyGYRhGiiO5CA6MKNMiC5YslyuXr8jUmXN0xQhLUHlJGwaWgM5KtRuphwIRsXxVSHD0HjhMP5u/aKnGarAxWNmqdSWvuyf20+jZb7AcO3Zctm3fKa06dJXSVepIqcq1JbcTEyUr1pLZcxfKxQsXZfL0WdJ7wFD1fBw4dFi9IXmKlZc8Rd15SlZSzwbn9ft5/FzJBIdhGIaR4kgOgsMnhEfzdl003uLsuXMyzwkIVpGUqFhDRQJbmq9YvU5XkzRp3UmWrVwj586f11UqOQqV1r00jh0/IUeduOg7aJiKg7pN2zjDvF739hgwbJTUbtRCZs1ZIOMmTZeiZaup8JjlBMdZJ1wmO6HSvO2PIdFz5aosWrZShU0RJ3qYwmFaBUHCe13wnkS7h7uRTHAYhmEYKY7kJDgwpCUq1NCA0RlOFBDYyRTL9p28T2WPCgmCQpn6YEqF1SaXL1+WwSPHSc7CpXVaplufQXLq9BlNO3fvkf0HDsnxE6dk9ISpusNonSatZMvW7XLp0iXZru9p2SMnTpzUlTEEl+K9aNaus6zfuEXPze9ZVrt33wF9l0ujVh00n8GpnrudTHAYhmEYKY7kJDhIGNMcBUvpEtVBw8foe1TYU4N3qYwaP1k69+yvS2BJ7bv2kr6Dh6sXhN/5N8Z26zNQRo6dpL8Z437vp1xYhVKhZgOdKhk+ZkLovBOn6XUQInoOZ8jJBxuIsZqF33Mc+ejgrle0PJuH/XzeDZIJDsMwDCPFkdwEBwkvA8GevL/Ev8vEJ/JJXAceBvbH8O9A4TckvstdtOwNvyFWA5EQ+r6K/i74vX9Pig8G5V8CU4PHkPjdz+nZ8MkEh2EYhpHiSI6CwyeMe2SKdkz8zyJ/e+P3oWOC30cXEUk55udIJjgMwzCMFEdyFhyWoicTHIZhGEaKwwRHyksmOAzDMIwUhwmOlJdMcBiGYRgpDhMcKS+Z4DAMwzBSHCY4Ul4ywWEYhmGkOBAc7EFhgiPlJAQHe46sMMFhGIZhpBQQHA1btPtZX7du6dYSgoO0au368FOMjwkOwzAMI1nB9uG83AxD9nO+ct1S0hIbm7GJWe2GLXWr9YQwwWEYhmEkK65duybrNmyS6vWb6g6doU2u4m96ZennTqFnwg6sBUtVlrETpsr58xfCTzE+JjgMwzCMZMely5dlzoJF0qB5WzVoOQuVjrett6WfOblnQpxNxZoN9a23R44eCz+96JjgMAzDMJIlV69ekTXrNsrIsRNl4LDRMnC4pWSV3DPhtfyz5y2UEydPhp9awpjgMAzDMAwj5pjgMAzDMAwj5pjgMAzDMAwj5pjgMAzDMAwj5pjgMAzDMAwj5pjgMAzDMAwj5pjgMAzDMAwj5pjgMAzDMAwj5tyS4LBkyZIlS5YsWbpjyQSHJUuWLFmyZCnmCcHxesaHx0f90pIlS5YsWbJk6U6kkOB4pGbULy1ZsmTJkiVLlu5Ienj4fe/lePD/OtHR4fUMj5yPfpAlS5YsWbJkydLtpoeHv/f1g7/5/wGV56NB2nz/ewAAAABJRU5ErkJggg==;" vertex="1" parent="1">
          <mxGeometry x="40" y="360" width="540" height="358" as="geometry" />
        </mxCell>
        <mxCell id="3vIbY6viFx3dQWntIyNH-4" value="&lt;b&gt;Your current productivity is 0.7&lt;/b&gt;" style="text;html=1;align=center;verticalAlign=middle;resizable=0;points=[];autosize=1;strokeColor=none;fillColor=none;fontSize=14;fontFamily=Manrope;" vertex="1" parent="1">
          <mxGeometry x="150" y="110" width="220" height="30" as="geometry" />
        </mxCell>
        <mxCell id="3vIbY6viFx3dQWntIyNH-5" value="" style="endArrow=none;html=1;rounded=0;fontFamily=Manrope;fontSource=https%3A%2F%2Ffonts.googleapis.com%2Fcss%3Ffamily%3DManrope;fontSize=14;strokeColor=#E6E6E6;" edge="1" parent="1">
          <mxGeometry width="50" height="50" relative="1" as="geometry">
            <mxPoint x="30" y="100" as="sourcePoint" />
            <mxPoint x="520" y="100" as="targetPoint" />
          </mxGeometry>
        </mxCell>
        <mxCell id="3vIbY6viFx3dQWntIyNH-6" value="" style="endArrow=none;html=1;rounded=0;fontFamily=Manrope;fontSource=https%3A%2F%2Ffonts.googleapis.com%2Fcss%3Ffamily%3DManrope;fontSize=14;strokeColor=#E6E6E6;" edge="1" parent="1">
          <mxGeometry width="50" height="50" relative="1" as="geometry">
            <mxPoint x="28.96" y="210" as="sourcePoint" />
            <mxPoint x="518.96" y="210" as="targetPoint" />
          </mxGeometry>
        </mxCell>
        <mxCell id="3vIbY6viFx3dQWntIyNH-9" value="&lt;font color=&quot;#ffffff&quot; style=&quot;font-size: 16px;&quot;&gt;&lt;b style=&quot;font-size: 16px;&quot;&gt;Close&lt;/b&gt;&lt;/font&gt;" style="rounded=1;whiteSpace=wrap;html=1;fontFamily=Manrope;fontSource=https%3A%2F%2Ffonts.googleapis.com%2Fcss%3Ffamily%3DManrope;fontSize=16;fillColor=#808080;" vertex="1" parent="1">
          <mxGeometry x="371" y="220" width="99" height="40" as="geometry" />
        </mxCell>
      </root>
    </mxGraphModel>
  </diagram>
</mxfile>
